<?xml version="1.0" encoding="utf-8" ?>
<svg baseProfile="full" height="1000" version="1.1" width="1000" xmlns="http://www.w3.org/2000/svg" xmlns:ev="http://www.w3.org/2001/xml-events" xmlns:xlink="http://www.w3.org/1999/xlink"><defs /><circle cx="400" cy="500" fill="red" r="5" stroke="red" stroke-width="2" /><circle cx="600" cy="400" fill="orange" r="5" stroke="orange" stroke-width="2" /><circle cx="600" cy="700" fill="purple" r="5" stroke="purple" stroke-width="2" /><circle cx="500" cy="700" fill="green" r="5" stroke="green" stroke-width="2" /><g fill="none"><path d="M 317.705098,335.410197 A 236.803399,208.748293 -26.565051 0,1 600.000000,248.063691" stroke="red" stroke-dasharray="10,10" stroke-dashoffset="10" stroke-width="6" /><path d="M 317.705098,335.410197 A 236.803399,208.748293 -26.565051 0,1 600.000000,248.063691" stroke="orange" stroke-dasharray="10,10" stroke-dashoffset="0" stroke-width="6" /><line fill="orange" stroke="orange" stroke-linecap="round" stroke-width="6" x1="600.0" x2="600.0" y1="258.0636914008784" y2="238.0636914008784" /><path d="M 600.000000,248.063691 A 386.803399,360.023429 45.000000 0,1 738.903652,330.548174" stroke="red" stroke-dasharray="10,10" stroke-dashoffset="10" stroke-width="6" /><path d="M 600.000000,248.063691 A 386.803399,360.023429 45.000000 0,1 738.903652,330.548174" stroke="purple" stroke-dasharray="10,10" stroke-dashoffset="0" stroke-width="6" /><line fill="orange" stroke="orange" stroke-linecap="round" stroke-width="6" x1="729.9593800199044" x2="747.8479238399028" y1="335.0203099900478" y2="326.0760380800486" /><path d="M 738.903652,330.548174 A 275.000000,230.488611 90.000000 0,1 793.181818,700.000000" stroke="orange" stroke-dasharray="10,10" stroke-dashoffset="10" stroke-width="6" /><path d="M 738.903652,330.548174 A 275.000000,230.488611 90.000000 0,1 793.181818,700.000000" stroke="purple" stroke-dasharray="10,10" stroke-dashoffset="0" stroke-width="6" /><line fill="purple" stroke="purple" stroke-linecap="round" stroke-width="6" x1="783.1818181818182" x2="803.1818181818182" y1="700.0" y2="700.0" /><path d="M 793.181818,700.000000 A 325.000000,283.945417 108.434949 0,1 600.000000,860.714286" stroke="orange" stroke-dasharray="10,10" stroke-dashoffset="10" stroke-width="6" /><path d="M 793.181818,700.000000 A 325.000000,283.945417 108.434949 0,1 600.000000,860.714286" stroke="green" stroke-dasharray="10,10" stroke-dashoffset="0" stroke-width="6" /><line fill="purple" stroke="purple" stroke-linecap="round" stroke-width="6" x1="600.0000000000001" x2="600.0000000000001" y1="850.7142857142856" y2="870.7142857142856" /><path d="M 600.000000,860.714286 A 175.000000,167.705098 180.000000 0,1 582.402636,864.805272" stroke="purple" stroke-dasharray="10,10" stroke-dashoffset="10" stroke-width="6" /><path d="M 600.000000,860.714286 A 175.000000,167.705098 180.000000 0,1 582.402636,864.805272" stroke="green" stroke-dasharray="10,10" stroke-dashoffset="0" stroke-width="6" /><line fill="green" stroke="green" stroke-linecap="round" stroke-width="6" x1="577.9305002392364" x2="586.8747721492355" y1="855.8610004784725" y2="873.7495442984709" /><path d="M 582.402636,864.805272 A 286.803399,249.511903 -135.000000 0,1 266.728818,700.000000" stroke="purple" stroke-dasharray="10,10" stroke-dashoffset="10" stroke-width="6" /><path d="M 582.402636,864.805272 A 286.803399,249.511903 -135.000000 0,1 266.728818,700.000000" stroke="red" stroke-dasharray="10,10" stroke-dashoffset="0" stroke-width="6" /><line fill="green" stroke="green" stroke-linecap="round" stroke-width="6" x1="276.7288176704498" x2="256.7288176704498" y1="700.0" y2="700.0" /><path d="M 266.728818,700.000000 A 236.803399,208.748293 -116.565051 0,1 235.410197,582.294902" stroke="green" stroke-dasharray="10,10" stroke-dashoffset="10" stroke-width="6" /><path d="M 266.728818,700.000000 A 236.803399,208.748293 -116.565051 0,1 235.410197,582.294902" stroke="red" stroke-dasharray="10,10" stroke-dashoffset="0" stroke-width="6" /><line fill="red" stroke="red" stroke-linecap="round" stroke-width="6" x1="244.35446853496762" x2="226.46592471496928" y1="577.8227657325162" y2="586.7670376425153" /><path d="M 235.410197,582.294902 A 348.606798,310.687463 -71.565051 0,1 317.705098,335.410197" stroke="green" stroke-dasharray="10,10" stroke-dashoffset="10" stroke-width="6" /><path d="M 235.410197,582.294902 A 348.606798,310.687463 -71.565051 0,1 317.705098,335.410197" stroke="orange" stroke-dasharray="10,10" stroke-dashoffset="0" stroke-width="6" /><line fill="red" stroke="red" stroke-linecap="round" stroke-width="6" x1="322.1772342674838" x2="313.2329623574846" y1="344.3544685349676" y2="326.46592471496933" /></g></svg>