<?xml version="1.0" encoding="utf-8" ?>
<svg baseProfile="full" height="1000" version="1.1" width="1000" xmlns="http://www.w3.org/2000/svg" xmlns:ev="http://www.w3.org/2001/xml-events" xmlns:xlink="http://www.w3.org/1999/xlink"><defs /><circle cx="400" cy="500" fill="red" r="5" stroke="red" stroke-width="2" /><circle cx="600" cy="400" fill="orange" r="5" stroke="orange" stroke-width="2" /><circle cx="600" cy="700" fill="purple" r="5" stroke="purple" stroke-width="2" /><circle cx="500" cy="700" fill="green" r="5" stroke="green" stroke-width="2" /><g fill="none"><path d="M 317.705098,335.410197 A 236.803399,208.748293 -26.565051 0,1 600.000000,248.063691" stroke="red" stroke-dasharray="10,10" stroke-dashoffset="10" stroke-width="6" /><path d="M 317.705098,335.410197 A 236.803399,208.748293 -26.565051 0,1 600.000000,248.063691" stroke="orange" stroke-dasharray="10,10" stroke-width="6" /><path d="M 317.705098,335.410197 A 236.803399,208.748293 -26.565051 1,0 600.000000,248.063691" stroke="red" stroke-dasharray="5,15" stroke-width="2" /><path d="M 317.705098,335.410197 A 236.803399,208.748293 -26.565051 1,0 600.000000,248.063691" stroke="orange" stroke-dasharray="5,15" stroke-dashoffset="10" stroke-width="2" /><circle cx="600.0" cy="248.0636914008784" fill="red" r="8" stroke="red" /><path d="M 600.000000,248.063691 A 386.803399,360.023429 45.000000 0,1 738.903652,330.548174" stroke="red" stroke-dasharray="10,10" stroke-dashoffset="10" stroke-width="6" /><path d="M 600.000000,248.063691 A 386.803399,360.023429 45.000000 0,1 738.903652,330.548174" stroke="purple" stroke-dasharray="10,10" stroke-width="6" /><path d="M 600.000000,248.063691 A 386.803399,360.023429 45.000000 1,0 738.903652,330.548174" stroke="red" stroke-dasharray="5,15" stroke-width="2" /><path d="M 600.000000,248.063691 A 386.803399,360.023429 45.000000 1,0 738.903652,330.548174" stroke="purple" stroke-dasharray="5,15" stroke-dashoffset="10" stroke-width="2" /><circle cx="738.9036519299036" cy="330.5481740350482" fill="purple" r="8" stroke="purple" /><path d="M 738.903652,330.548174 A 275.000000,230.488611 90.000000 0,1 793.181818,700.000000" stroke="orange" stroke-dasharray="10,10" stroke-dashoffset="10" stroke-width="6" /><path d="M 738.903652,330.548174 A 275.000000,230.488611 90.000000 0,1 793.181818,700.000000" stroke="purple" stroke-dasharray="10,10" stroke-width="6" /><path d="M 738.903652,330.548174 A 275.000000,230.488611 90.000000 1,0 793.181818,700.000000" stroke="orange" stroke-dasharray="5,15" stroke-width="2" /><path d="M 738.903652,330.548174 A 275.000000,230.488611 90.000000 1,0 793.181818,700.000000" stroke="purple" stroke-dasharray="5,15" stroke-dashoffset="10" stroke-width="2" /><circle cx="793.1818181818182" cy="700.0" fill="orange" r="8" stroke="orange" /><path d="M 793.181818,700.000000 A 325.000000,283.945417 108.434949 0,1 600.000000,860.714286" stroke="orange" stroke-dasharray="10,10" stroke-dashoffset="10" stroke-width="6" /><path d="M 793.181818,700.000000 A 325.000000,283.945417 108.434949 0,1 600.000000,860.714286" stroke="green" stroke-dasharray="10,10" stroke-width="6" /><path d="M 793.181818,700.000000 A 325.000000,283.945417 108.434949 1,0 600.000000,860.714286" stroke="orange" stroke-dasharray="5,15" stroke-width="2" /><path d="M 793.181818,700.000000 A 325.000000,283.945417 108.434949 1,0 600.000000,860.714286" stroke="green" stroke-dasharray="5,15" stroke-dashoffset="10" stroke-width="2" /><circle cx="600.0000000000001" cy="860.7142857142856" fill="green" r="8" stroke="green" /><path d="M 600.000000,860.714286 A 175.000000,167.705098 180.000000 0,1 582.402636,864.805272" stroke="purple" stroke-dasharray="10,10" stroke-dashoffset="10" stroke-width="6" /><path d="M 600.000000,860.714286 A 175.000000,167.705098 180.000000 0,1 582.402636,864.805272" stroke="green" stroke-dasharray="10,10" stroke-width="6" /><path d="M 600.000000,860.714286 A 175.000000,167.705098 180.000000 1,0 582.402636,864.805272" stroke="purple" stroke-dasharray="5,15" stroke-width="2" /><path d="M 600.000000,860.714286 A 175.000000,167.705098 180.000000 1,0 582.402636,864.805272" stroke="green" stroke-dasharray="5,15" stroke-dashoffset="10" stroke-width="2" /><circle cx="582.4026361942359" cy="864.8052723884717" fill="purple" r="8" stroke="purple" /><path d="M 582.402636,864.805272 A 286.803399,249.511903 -135.000000 0,1 266.728818,700.000000" stroke="purple" stroke-dasharray="10,10" stroke-dashoffset="10" stroke-width="6" /><path d="M 582.402636,864.805272 A 286.803399,249.511903 -135.000000 0,1 266.728818,700.000000" stroke="red" stroke-dasharray="10,10" stroke-width="6" /><path d="M 582.402636,864.805272 A 286.803399,249.511903 -135.000000 1,0 266.728818,700.000000" stroke="purple" stroke-dasharray="5,15" stroke-width="2" /><path d="M 582.402636,864.805272 A 286.803399,249.511903 -135.000000 1,0 266.728818,700.000000" stroke="red" stroke-dasharray="5,15" stroke-dashoffset="10" stroke-width="2" /><circle cx="266.7288176704498" cy="700.0" fill="red" r="8" stroke="red" /><path d="M 266.728818,700.000000 A 236.803399,208.748293 -116.565051 0,1 235.410197,582.294902" stroke="green" stroke-dasharray="10,10" stroke-dashoffset="10" stroke-width="6" /><path d="M 266.728818,700.000000 A 236.803399,208.748293 -116.565051 0,1 235.410197,582.294902" stroke="red" stroke-dasharray="10,10" stroke-width="6" /><path d="M 266.728818,700.000000 A 236.803399,208.748293 -116.565051 1,0 235.410197,582.294902" stroke="green" stroke-dasharray="5,15" stroke-width="2" /><path d="M 266.728818,700.000000 A 236.803399,208.748293 -116.565051 1,0 235.410197,582.294902" stroke="red" stroke-dasharray="5,15" stroke-dashoffset="10" stroke-width="2" /><circle cx="235.41019662496845" cy="582.2949016875158" fill="green" r="8" stroke="green" /><path d="M 235.410197,582.294902 A 348.606798,310.687463 -71.565051 0,1 317.705098,335.410197" stroke="green" stroke-dasharray="10,10" stroke-dashoffset="10" stroke-width="6" /><path d="M 235.410197,582.294902 A 348.606798,310.687463 -71.565051 0,1 317.705098,335.410197" stroke="orange" stroke-dasharray="10,10" stroke-width="6" /><path d="M 235.410197,582.294902 A 348.606798,310.687463 -71.565051 1,0 317.705098,335.410197" stroke="green" stroke-dasharray="5,15" stroke-width="2" /><path d="M 235.410197,582.294902 A 348.606798,310.687463 -71.565051 1,0 317.705098,335.410197" stroke="orange" stroke-dasharray="5,15" stroke-dashoffset="10" stroke-width="2" /><circle cx="317.7050983124842" cy="335.4101966249685" fill="orange" r="8" stroke="orange" /></g></svg>