<?xml version="1.0" encoding="utf-8" ?>
<svg baseProfile="full" height="1000" version="1.1" width="1000" xmlns="http://www.w3.org/2000/svg" xmlns:ev="http://www.w3.org/2001/xml-events" xmlns:xlink="http://www.w3.org/1999/xlink"><defs /><circle cx="400" cy="500" fill="red" r="5" stroke="red" stroke-width="2" /><circle cx="600" cy="400" fill="orange" r="5" stroke="orange" stroke-width="2" /><circle cx="600" cy="700" fill="purple" r="5" stroke="purple" stroke-width="2" /><circle cx="500" cy="700" fill="green" r="5" stroke="green" stroke-width="2" /><path d="M 317.705098,335.410197 A 236.803399,208.748293 -26.565051 0,1 600.000000,248.063691" fill="none" stroke="red" stroke-dasharray="10,10" stroke-dashoffset="10" stroke-width="6" /><path d="M 317.705098,335.410197 A 236.803399,208.748293 -26.565051 0,1 600.000000,248.063691" fill="none" stroke="orange" stroke-dasharray="10,10" stroke-dashoffset="0" stroke-width="6" /><path d="M 317.705098,335.410197 A 236.803399,208.748293 -26.565051 1,0 600.000000,248.063691" fill="none" stroke="red" stroke-dasharray="5,15" stroke-dashoffset="0" stroke-width="2" /><path d="M 317.705098,335.410197 A 236.803399,208.748293 -26.565051 1,0 600.000000,248.063691" fill="none" stroke="orange" stroke-dasharray="5,15" stroke-dashoffset="10" stroke-width="2" /><line fill="orange" stroke="orange" stroke-linecap="round" stroke-width="6" x1="600.0" x2="600.0" y1="258.063691401" y2="238.063691401" /><path d="M 600.000000,248.063691 A 386.803399,360.023429 45.000000 0,1 738.903652,330.548174" fill="none" stroke="red" stroke-dasharray="10,10" stroke-dashoffset="10" stroke-width="6" /><path d="M 600.000000,248.063691 A 386.803399,360.023429 45.000000 0,1 738.903652,330.548174" fill="none" stroke="purple" stroke-dasharray="10,10" stroke-dashoffset="0" stroke-width="6" /><path d="M 600.000000,248.063691 A 386.803399,360.023429 45.000000 1,0 738.903652,330.548174" fill="none" stroke="red" stroke-dasharray="5,15" stroke-dashoffset="0" stroke-width="2" /><path d="M 600.000000,248.063691 A 386.803399,360.023429 45.000000 1,0 738.903652,330.548174" fill="none" stroke="purple" stroke-dasharray="5,15" stroke-dashoffset="10" stroke-width="2" /><line fill="orange" stroke="orange" stroke-linecap="round" stroke-width="6" x1="729.95938002" x2="747.84792384" y1="335.02030999" y2="326.07603808" /><path d="M 738.903652,330.548174 A 275.000000,230.488611 90.000000 0,1 793.181818,700.000000" fill="none" stroke="orange" stroke-dasharray="10,10" stroke-dashoffset="10" stroke-width="6" /><path d="M 738.903652,330.548174 A 275.000000,230.488611 90.000000 0,1 793.181818,700.000000" fill="none" stroke="purple" stroke-dasharray="10,10" stroke-dashoffset="0" stroke-width="6" /><path d="M 738.903652,330.548174 A 275.000000,230.488611 90.000000 1,0 793.181818,700.000000" fill="none" stroke="orange" stroke-dasharray="5,15" stroke-dashoffset="0" stroke-width="2" /><path d="M 738.903652,330.548174 A 275.000000,230.488611 90.000000 1,0 793.181818,700.000000" fill="none" stroke="purple" stroke-dasharray="5,15" stroke-dashoffset="10" stroke-width="2" /><line fill="purple" stroke="purple" stroke-linecap="round" stroke-width="6" x1="783.181818182" x2="803.181818182" y1="700.0" y2="700.0" /><path d="M 793.181818,700.000000 A 325.000000,283.945417 108.434949 0,1 600.000000,860.714286" fill="none" stroke="orange" stroke-dasharray="10,10" stroke-dashoffset="10" stroke-width="6" /><path d="M 793.181818,700.000000 A 325.000000,283.945417 108.434949 0,1 600.000000,860.714286" fill="none" stroke="green" stroke-dasharray="10,10" stroke-dashoffset="0" stroke-width="6" /><path d="M 793.181818,700.000000 A 325.000000,283.945417 108.434949 1,0 600.000000,860.714286" fill="none" stroke="orange" stroke-dasharray="5,15" stroke-dashoffset="0" stroke-width="2" /><path d="M 793.181818,700.000000 A 325.000000,283.945417 108.434949 1,0 600.000000,860.714286" fill="none" stroke="green" stroke-dasharray="5,15" stroke-dashoffset="10" stroke-width="2" /><line fill="purple" stroke="purple" stroke-linecap="round" stroke-width="6" x1="600.0" x2="600.0" y1="850.714285714" y2="870.714285714" /><path d="M 600.000000,860.714286 A 175.000000,167.705098 180.000000 0,1 582.402636,864.805272" fill="none" stroke="purple" stroke-dasharray="10,10" stroke-dashoffset="10" stroke-width="6" /><path d="M 600.000000,860.714286 A 175.000000,167.705098 180.000000 0,1 582.402636,864.805272" fill="none" stroke="green" stroke-dasharray="10,10" stroke-dashoffset="0" stroke-width="6" /><path d="M 600.000000,860.714286 A 175.000000,167.705098 180.000000 1,0 582.402636,864.805272" fill="none" stroke="purple" stroke-dasharray="5,15" stroke-dashoffset="0" stroke-width="2" /><path d="M 600.000000,860.714286 A 175.000000,167.705098 180.000000 1,0 582.402636,864.805272" fill="none" stroke="green" stroke-dasharray="5,15" stroke-dashoffset="10" stroke-width="2" /><line fill="green" stroke="green" stroke-linecap="round" stroke-width="6" x1="577.930500239" x2="586.874772149" y1="855.861000478" y2="873.749544298" /><path d="M 582.402636,864.805272 A 286.803399,249.511903 -135.000000 0,1 266.728818,700.000000" fill="none" stroke="purple" stroke-dasharray="10,10" stroke-dashoffset="10" stroke-width="6" /><path d="M 582.402636,864.805272 A 286.803399,249.511903 -135.000000 0,1 266.728818,700.000000" fill="none" stroke="red" stroke-dasharray="10,10" stroke-dashoffset="0" stroke-width="6" /><path d="M 582.402636,864.805272 A 286.803399,249.511903 -135.000000 1,0 266.728818,700.000000" fill="none" stroke="purple" stroke-dasharray="5,15" stroke-dashoffset="0" stroke-width="2" /><path d="M 582.402636,864.805272 A 286.803399,249.511903 -135.000000 1,0 266.728818,700.000000" fill="none" stroke="red" stroke-dasharray="5,15" stroke-dashoffset="10" stroke-width="2" /><line fill="green" stroke="green" stroke-linecap="round" stroke-width="6" x1="276.72881767" x2="256.72881767" y1="700.0" y2="700.0" /><path d="M 266.728818,700.000000 A 236.803399,208.748293 -116.565051 0,1 235.410197,582.294902" fill="none" stroke="green" stroke-dasharray="10,10" stroke-dashoffset="10" stroke-width="6" /><path d="M 266.728818,700.000000 A 236.803399,208.748293 -116.565051 0,1 235.410197,582.294902" fill="none" stroke="red" stroke-dasharray="10,10" stroke-dashoffset="0" stroke-width="6" /><path d="M 266.728818,700.000000 A 236.803399,208.748293 -116.565051 1,0 235.410197,582.294902" fill="none" stroke="green" stroke-dasharray="5,15" stroke-dashoffset="0" stroke-width="2" /><path d="M 266.728818,700.000000 A 236.803399,208.748293 -116.565051 1,0 235.410197,582.294902" fill="none" stroke="red" stroke-dasharray="5,15" stroke-dashoffset="10" stroke-width="2" /><line fill="red" stroke="red" stroke-linecap="round" stroke-width="6" x1="244.354468535" x2="226.465924715" y1="577.822765733" y2="586.767037643" /><path d="M 235.410197,582.294902 A 348.606798,310.687463 -71.565051 0,1 317.705098,335.410197" fill="none" stroke="green" stroke-dasharray="10,10" stroke-dashoffset="10" stroke-width="6" /><path d="M 235.410197,582.294902 A 348.606798,310.687463 -71.565051 0,1 317.705098,335.410197" fill="none" stroke="orange" stroke-dasharray="10,10" stroke-dashoffset="0" stroke-width="6" /><path d="M 235.410197,582.294902 A 348.606798,310.687463 -71.565051 1,0 317.705098,335.410197" fill="none" stroke="green" stroke-dasharray="5,15" stroke-dashoffset="0" stroke-width="2" /><path d="M 235.410197,582.294902 A 348.606798,310.687463 -71.565051 1,0 317.705098,335.410197" fill="none" stroke="orange" stroke-dasharray="5,15" stroke-dashoffset="10" stroke-width="2" /><line fill="red" stroke="red" stroke-linecap="round" stroke-width="6" x1="322.177234267" x2="313.232962357" y1="344.354468535" y2="326.465924715" /></svg>