<?xml version="1.0" encoding="utf-8" ?>
<svg baseProfile="full" height="1000" version="1.1" width="1000" xmlns="http://www.w3.org/2000/svg" xmlns:ev="http://www.w3.org/2001/xml-events" xmlns:xlink="http://www.w3.org/1999/xlink"><defs /><circle cx="400" cy="500" fill="red" r="5" stroke="red" stroke-width="2" /><circle cx="600" cy="400" fill="orange" r="5" stroke="orange" stroke-width="2" /><circle cx="600" cy="700" fill="purple" r="5" stroke="purple" stroke-width="2" /><circle cx="500" cy="700" fill="green" r="5" stroke="green" stroke-width="2" /><g fill="none" stroke="purple" stroke-width="2" transform="translate(500.000000,450.000000),rotate(-26.565051,0,0),scale(1,-1)"><path d="M -111.803399,184.016994 A 236.803399,208.748293 0 0,0 179.751382,135.895966" stroke-width="4" /><path d="M -111.803399,184.016994 A 236.803399,208.748293 0 1,1 179.751382,135.895966" stroke-dasharray="3,7" /><circle cx="179.75138173059383" cy="135.8959657112087" fill="purple" r="8" /></g><g fill="none" stroke="orange" stroke-width="2" transform="translate(500.000000,600.000000),rotate(45.000000,0,0),scale(1,-1)"><path d="M -178.145872,319.567228 A 386.803399,360.023429 0 0,0 -21.600821,359.461606" stroke-width="4" /><path d="M -178.145872,319.567228 A 386.803399,360.023429 0 1,1 -21.600821,359.461606" stroke-dasharray="3,7" /><circle cx="-21.600821013049384" cy="359.46160567278037" fill="orange" r="8" /></g><g fill="none" stroke="green" stroke-width="2" transform="translate(600.000000,550.000000),rotate(90.000000,0,0),scale(1,-1)"><path d="M -219.451826,138.903652 A 275.000000,230.488611 0 0,0 150.000000,193.181818" stroke-width="4" /><path d="M -219.451826,138.903652 A 275.000000,230.488611 0 1,1 150.000000,193.181818" stroke-dasharray="3,7" /><circle cx="150.0" cy="193.1818181818182" fill="green" r="8" /></g><g fill="none" stroke="purple" stroke-width="2" transform="translate(550.000000,550.000000),rotate(108.434949,0,0),scale(1,-1)"><path d="M 65.401652,278.136694 A 325.000000,283.945417 0 0,0 278.958065,145.690649" stroke-width="4" /><path d="M 65.401652,278.136694 A 325.000000,283.945417 0 1,1 278.958065,145.690649" stroke-dasharray="3,7" /><circle cx="278.95806502199616" cy="145.6906493434718" fill="purple" r="8" /></g><g fill="none" stroke="red" stroke-width="2" transform="translate(550.000000,700.000000),rotate(180.000000,0,0),scale(1,-1)"><path d="M -50.000000,160.714286 A 175.000000,167.705098 0 0,0 -32.402636,164.805272" stroke-width="4" /><path d="M -50.000000,160.714286 A 175.000000,167.705098 0 1,1 -32.402636,164.805272" stroke-dasharray="3,7" /><circle cx="-32.40263619423588" cy="164.80527238847176" fill="red" r="8" /></g><g fill="none" stroke="green" stroke-width="2" transform="translate(500.000000,600.000000),rotate(-135.000000,0,0),scale(1,-1)"><path d="M -245.513067,128.978141 A 286.803399,249.511903 0 0,0 94.236957,235.658313" stroke-width="4" /><path d="M -245.513067,128.978141 A 286.803399,249.511903 0 1,1 94.236957,235.658313" stroke-dasharray="3,7" /><circle cx="94.23695676197374" cy="235.65831299928328" fill="green" r="8" /></g><g fill="none" stroke="orange" stroke-width="2" transform="translate(450.000000,600.000000),rotate(-116.565051,0,0),scale(1,-1)"><path d="M -7.481355,208.644088 A 236.803399,208.748293 0 0,0 111.803399,184.016994" stroke-width="4" /><path d="M -7.481355,208.644088 A 236.803399,208.748293 0 1,1 111.803399,184.016994" stroke-dasharray="3,7" /><circle cx="111.80339887498948" cy="184.01699437494744" fill="orange" r="8" /></g><g fill="none" stroke="red" stroke-width="2" transform="translate(550.000000,550.000000),rotate(-71.565051,0,0),scale(1,-1)"><path d="M -130.119665,288.233548 A 348.606798,310.687463 0 0,0 130.119665,288.233548" stroke-width="4" /><path d="M -130.119665,288.233548 A 348.606798,310.687463 0 1,1 130.119665,288.233548" stroke-dasharray="3,7" /><circle cx="130.11966457609205" cy="288.2335475845111" fill="red" r="8" /></g></svg>