<?xml version="1.0" encoding="utf-8" ?>
<svg baseProfile="full" height="1000" version="1.1" width="1000" xmlns="http://www.w3.org/2000/svg" xmlns:ev="http://www.w3.org/2001/xml-events" xmlns:xlink="http://www.w3.org/1999/xlink"><defs /><circle cx="400" cy="400" fill="red" r="5" stroke="red" stroke-width="2" /><circle cx="600" cy="400" fill="orange" r="5" stroke="orange" stroke-width="2" /><circle cx="700" cy="450" fill="yellow" r="5" stroke="yellow" stroke-width="2" /><circle cx="650" cy="520" fill="green" r="5" stroke="green" stroke-width="2" /><circle cx="530" cy="620" fill="cyan" r="5" stroke="cyan" stroke-width="2" /><circle cx="450" cy="600" fill="blue" r="5" stroke="blue" stroke-width="2" /><circle cx="380" cy="520" fill="purple" r="5" stroke="purple" stroke-width="2" /><path d="M 404.545954,372.724275 A 112.500000,51.538820 0.000000 0,1 496.960000,348.480000" fill="none" stroke="red" stroke-dasharray="10,10" stroke-dashoffset="10" stroke-width="6" /><path d="M 404.545954,372.724275 A 112.500000,51.538820 0.000000 0,1 496.960000,348.480000" fill="none" stroke="orange" stroke-dasharray="10,10" stroke-dashoffset="0" stroke-width="6" /><line fill="orange" stroke="orange" stroke-linecap="round" stroke-width="6" x1="505.90427181646425" x2="488.01572799646596" y1="352.95213590823215" y2="344.00786399823295" /><path d="M 496.960000,348.480000 A 168.401699,72.347304 9.462322 0,1 684.437445,400.000000" fill="none" stroke="red" stroke-dasharray="10,10" stroke-dashoffset="10" stroke-width="6" /><path d="M 496.960000,348.480000 A 168.401699,72.347304 9.462322 0,1 684.437445,400.000000" fill="none" stroke="yellow" stroke-dasharray="10,10" stroke-dashoffset="0" stroke-width="6" /><line fill="orange" stroke="orange" stroke-linecap="round" stroke-width="6" x1="674.4374450965876" x2="694.4374450965876" y1="400.00000000000006" y2="400.00000000000006" /><path d="M 684.437445,400.000000 A 68.401699,39.418175 26.565051 0,1 711.710585,433.605180" fill="none" stroke="orange" stroke-dasharray="10,10" stroke-dashoffset="10" stroke-width="6" /><path d="M 684.437445,400.000000 A 68.401699,39.418175 26.565051 0,1 711.710585,433.605180" fill="none" stroke="yellow" stroke-dasharray="10,10" stroke-dashoffset="0" stroke-width="6" /><line fill="yellow" stroke="yellow" stroke-linecap="round" stroke-width="6" x1="705.8982034964356" x2="717.5229673708175" y1="441.74251510499016" y2="425.4678456808555" /><path d="M 711.710585,433.605180 A 111.413326,90.487177 67.380135 0,1 717.703736,458.851868" fill="none" stroke="orange" stroke-dasharray="10,10" stroke-dashoffset="10" stroke-width="6" /><path d="M 711.710585,433.605180 A 111.413326,90.487177 67.380135 0,1 717.703736,458.851868" fill="none" stroke="green" stroke-dasharray="10,10" stroke-dashoffset="0" stroke-width="6" /><line fill="yellow" stroke="yellow" stroke-linecap="round" stroke-width="6" x1="708.7594641326385" x2="726.6480079526369" y1="454.37973206631926" y2="463.32400397631847" /><path d="M 717.703736,458.851868 A 55.511626,35.093314 125.537678 0,1 718.066203,463.278164" fill="none" stroke="yellow" stroke-dasharray="10,10" stroke-dashoffset="10" stroke-width="6" /><path d="M 717.703736,458.851868 A 55.511626,35.093314 125.537678 0,1 718.066203,463.278164" fill="none" stroke="green" stroke-dasharray="10,10" stroke-dashoffset="0" stroke-width="6" /><line fill="green" stroke="green" stroke-linecap="round" stroke-width="6" x1="710.3839900809354" x2="725.748415672883" y1="469.6800082658871" y2="456.8763202725975" /><path d="M 718.066203,463.278164 A 133.614123,58.332957 135.000000 0,1 575.997631,631.499408" fill="none" stroke="yellow" stroke-dasharray="10,10" stroke-dashoffset="10" stroke-width="6" /><path d="M 718.066203,463.278164 A 133.614123,58.332957 135.000000 0,1 575.997631,631.499408" fill="none" stroke="cyan" stroke-dasharray="10,10" stroke-dashoffset="0" stroke-width="6" /><line fill="cyan" stroke="cyan" stroke-linecap="round" stroke-width="6" x1="566.2962060021435" x2="585.6990560050502" y1="629.0740515005359" y2="633.9247640012625" /><path d="M 575.997631,631.499408 A 174.845179,96.544481 149.036243 0,1 568.377688,634.271236" fill="none" stroke="yellow" stroke-dasharray="10,10" stroke-dashoffset="10" stroke-width="6" /><path d="M 575.997631,631.499408 A 174.845179,96.544481 149.036243 0,1 568.377688,634.271236" fill="none" stroke="blue" stroke-dasharray="10,10" stroke-dashoffset="0" stroke-width="6" /><line fill="green" stroke="green" stroke-linecap="round" stroke-width="6" x1="574.1900702732968" x2="562.5653063989149" y1="626.1339016173844" y2="642.4085710415192" /><path d="M 568.377688,634.271236 A 131.833553,76.026875 158.198591 0,1 498.987300,645.843916" fill="none" stroke="green" stroke-dasharray="10,10" stroke-dashoffset="10" stroke-width="6" /><path d="M 568.377688,634.271236 A 131.833553,76.026875 158.198591 0,1 498.987300,645.843916" fill="none" stroke="blue" stroke-dasharray="10,10" stroke-dashoffset="0" stroke-width="6" /><line fill="cyan" stroke="cyan" stroke-linecap="round" stroke-width="6" x1="506.6695130583872" x2="491.30508746643966" y1="639.442072451344" y2="652.2457604446337" /><path d="M 498.987300,645.843916 A 53.731056,34.453250 -165.963757 0,1 489.348514,644.969730" fill="none" stroke="cyan" stroke-dasharray="10,10" stroke-dashoffset="10" stroke-width="6" /><path d="M 498.987300,645.843916 A 53.731056,34.453250 -165.963757 0,1 489.348514,644.969730" fill="none" stroke="blue" stroke-dasharray="10,10" stroke-dashoffset="0" stroke-width="6" /><line fill="blue" stroke="blue" stroke-linecap="round" stroke-width="6" x1="482.76346773488706" x2="495.93355989225745" y1="637.4439631255852" y2="652.4954970197227" /><path d="M 489.348514,644.969730 A 106.881785,57.434450 -146.309932 0,1 384.497656,583.624414" fill="none" stroke="cyan" stroke-dasharray="10,10" stroke-dashoffset="10" stroke-width="6" /><path d="M 489.348514,644.969730 A 106.881785,57.434450 -146.309932 0,1 384.497656,583.624414" fill="none" stroke="purple" stroke-dasharray="10,10" stroke-dashoffset="0" stroke-width="6" /><line fill="blue" stroke="blue" stroke-linecap="round" stroke-width="6" x1="394.1990807315225" x2="374.7962307286158" y1="586.0497701828806" y2="581.199057682154" /><path d="M 384.497656,583.624414 A 65.650729,38.535934 -131.185925 0,1 372.358572,565.848567" fill="none" stroke="blue" stroke-dasharray="10,10" stroke-dashoffset="10" stroke-width="6" /><path d="M 384.497656,583.624414 A 65.650729,38.535934 -131.185925 0,1 372.358572,565.848567" fill="none" stroke="purple" stroke-dasharray="10,10" stroke-dashoffset="0" stroke-width="6" /><line fill="purple" stroke="purple" stroke-linecap="round" stroke-width="6" x1="374.00256208053077" x2="370.71458233442365" y1="555.9846275168151" y2="575.712505993458" /><path d="M 372.358572,565.848567 A 126.478354,73.292388 -104.036243 0,1 348.229734,483.691124" fill="none" stroke="blue" stroke-dasharray="10,10" stroke-dashoffset="10" stroke-width="6" /><path d="M 372.358572,565.848567 A 126.478354,73.292388 -104.036243 0,1 348.229734,483.691124" fill="none" stroke="red" stroke-dasharray="10,10" stroke-dashoffset="0" stroke-width="6" /><line fill="purple" stroke="purple" stroke-linecap="round" stroke-width="6" x1="354.81477968509506" x2="341.64468752772467" y1="491.21689106868007" y2="476.1653571745426" /><path d="M 348.229734,483.691124 A 73.327625,40.950466 -80.537678 0,1 373.519603,400.000000" fill="none" stroke="purple" stroke-dasharray="10,10" stroke-dashoffset="10" stroke-width="6" /><path d="M 348.229734,483.691124 A 73.327625,40.950466 -80.537678 0,1 373.519603,400.000000" fill="none" stroke="red" stroke-dasharray="10,10" stroke-dashoffset="0" stroke-width="6" /><line fill="red" stroke="red" stroke-linecap="round" stroke-width="6" x1="383.51960341870597" x2="363.51960341870597" y1="400.0" y2="400.0" /><path d="M 373.519603,400.000000 A 173.327625,119.760034 -28.610460 0,1 404.545954,372.724275" fill="none" stroke="purple" stroke-dasharray="10,10" stroke-dashoffset="10" stroke-width="6" /><path d="M 373.519603,400.000000 A 173.327625,119.760034 -28.610460 0,1 404.545954,372.724275" fill="none" stroke="orange" stroke-dasharray="10,10" stroke-dashoffset="0" stroke-width="6" /><line fill="red" stroke="red" stroke-linecap="round" stroke-width="6" x1="402.9019642146366" x2="406.18994396074373" y1="382.58821471218016" y2="362.86033623553726" /><path d="M 408.518270,348.890377 A 125.000000,75.000000 0.000000 0,1 458.505689,329.252845" fill="none" stroke="red" stroke-dasharray="10,10" stroke-dashoffset="10" stroke-width="6" /><path d="M 408.518270,348.890377 A 125.000000,75.000000 0.000000 0,1 458.505689,329.252845" fill="none" stroke="orange" stroke-dasharray="10,10" stroke-dashoffset="0" stroke-width="6" /><line fill="orange" stroke="orange" stroke-linecap="round" stroke-width="6" x1="467.4499612645151" x2="449.5614174445168" y1="333.72498063225754" y2="324.78070872225834" /><path d="M 458.505689,329.252845 A 180.901699,97.981758 9.462322 0,1 710.676275,400.000000" fill="none" stroke="red" stroke-dasharray="10,10" stroke-dashoffset="10" stroke-width="6" /><path d="M 458.505689,329.252845 A 180.901699,97.981758 9.462322 0,1 710.676275,400.000000" fill="none" stroke="yellow" stroke-dasharray="10,10" stroke-dashoffset="0" stroke-width="6" /><line fill="orange" stroke="orange" stroke-linecap="round" stroke-width="6" x1="700.6762745781211" x2="720.6762745781211" y1="400.00000000000006" y2="400.00000000000006" /><path d="M 710.676275,400.000000 A 80.901699,58.481493 26.565051 0,1 722.181187,418.946338" fill="none" stroke="orange" stroke-dasharray="10,10" stroke-dashoffset="10" stroke-width="6" /><path d="M 710.676275,400.000000 A 80.901699,58.481493 26.565051 0,1 722.181187,418.946338" fill="none" stroke="yellow" stroke-dasharray="10,10" stroke-dashoffset="0" stroke-width="6" /><line fill="yellow" stroke="yellow" stroke-linecap="round" stroke-width="6" x1="716.3688049688689" x2="727.9935688432507" y1="427.08367304358364" y2="410.80900361944896" /><path d="M 722.181187,418.946338 A 123.913326,105.496504 67.380135 0,1 731.655127,451.954061" fill="none" stroke="orange" stroke-dasharray="10,10" stroke-dashoffset="10" stroke-width="6" /><path d="M 722.181187,418.946338 A 123.913326,105.496504 67.380135 0,1 731.655127,451.954061" fill="none" stroke="green" stroke-dasharray="10,10" stroke-dashoffset="0" stroke-width="6" /><line fill="green" stroke="green" stroke-linecap="round" stroke-width="6" x1="723.9729140540119" x2="739.3373396459594" y1="458.3559049549901" y2="445.5522169617005" /><path d="M 731.655127,451.954061 A 202.015823,165.787191 107.650124 0,1 733.514614,466.757307" fill="none" stroke="orange" stroke-dasharray="10,10" stroke-dashoffset="10" stroke-width="6" /><path d="M 731.655127,451.954061 A 202.015823,165.787191 107.650124 0,1 733.514614,466.757307" fill="none" stroke="cyan" stroke-dasharray="10,10" stroke-dashoffset="0" stroke-width="6" /><line fill="yellow" stroke="yellow" stroke-linecap="round" stroke-width="6" x1="724.5703416055858" x2="742.4588854255842" y1="462.2851708027929" y2="471.2294427127921" /><path d="M 733.514614,466.757307 A 146.114123,83.062248 135.000000 0,1 609.429637,639.857409" fill="none" stroke="yellow" stroke-dasharray="10,10" stroke-dashoffset="10" stroke-width="6" /><path d="M 733.514614,466.757307 A 146.114123,83.062248 135.000000 0,1 609.429637,639.857409" fill="none" stroke="cyan" stroke-dasharray="10,10" stroke-dashoffset="0" stroke-width="6" /><line fill="cyan" stroke="cyan" stroke-linecap="round" stroke-width="6" x1="599.7282120517423" x2="619.131062054649" y1="637.4320530129356" y2="642.2827655136622" /><path d="M 609.429637,639.857409 A 187.345179,117.678444 149.036243 0,1 549.999013,660.001382" fill="none" stroke="yellow" stroke-dasharray="10,10" stroke-dashoffset="10" stroke-width="6" /><path d="M 609.429637,639.857409 A 187.345179,117.678444 149.036243 0,1 549.999013,660.001382" fill="none" stroke="blue" stroke-dasharray="10,10" stroke-dashoffset="0" stroke-width="6" /><line fill="green" stroke="green" stroke-linecap="round" stroke-width="6" x1="555.811394876104" x2="544.1866310017222" y1="651.8640471734543" y2="668.1387165975891" /><path d="M 549.999013,660.001382 A 144.333553,96.084205 158.198591 0,1 505.987149,663.985313" fill="none" stroke="green" stroke-dasharray="10,10" stroke-dashoffset="10" stroke-width="6" /><path d="M 549.999013,660.001382 A 144.333553,96.084205 158.198591 0,1 505.987149,663.985313" fill="none" stroke="blue" stroke-dasharray="10,10" stroke-dashoffset="0" stroke-width="6" /><line fill="blue" stroke="blue" stroke-linecap="round" stroke-width="6" x1="499.4021024224395" x2="512.5721945798099" y1="656.4595456256452" y2="671.5110795197827" /><path d="M 505.987149,663.985313 A 197.484282,144.135498 180.000000 0,1 479.806136,661.828220" fill="none" stroke="green" stroke-dasharray="10,10" stroke-dashoffset="10" stroke-width="6" /><path d="M 505.987149,663.985313 A 197.484282,144.135498 180.000000 0,1 479.806136,661.828220" fill="none" stroke="purple" stroke-dasharray="10,10" stroke-dashoffset="0" stroke-width="6" /><line fill="cyan" stroke="cyan" stroke-linecap="round" stroke-width="6" x1="487.4883485261173" x2="472.12392293416974" y1="655.4263762282357" y2="668.2300642215251" /><path d="M 479.806136,661.828220 A 119.381785,78.275224 -146.309932 0,1 367.774612,593.352329" fill="none" stroke="cyan" stroke-dasharray="10,10" stroke-dashoffset="10" stroke-width="6" /><path d="M 479.806136,661.828220 A 119.381785,78.275224 -146.309932 0,1 367.774612,593.352329" fill="none" stroke="purple" stroke-dasharray="10,10" stroke-dashoffset="0" stroke-width="6" /><line fill="purple" stroke="purple" stroke-linecap="round" stroke-width="6" x1="369.4186016358281" x2="366.130621889721" y1="583.4883901850311" y2="603.216268661674" /><path d="M 367.774612,593.352329 A 180.209411,127.084349 -120.579227 0,1 356.815439,576.703860" fill="none" stroke="cyan" stroke-dasharray="10,10" stroke-dashoffset="10" stroke-width="6" /><path d="M 367.774612,593.352329 A 180.209411,127.084349 -120.579227 0,1 356.815439,576.703860" fill="none" stroke="red" stroke-dasharray="10,10" stroke-dashoffset="0" stroke-width="6" /><line fill="blue" stroke="blue" stroke-linecap="round" stroke-width="6" x1="366.51686371580763" x2="347.11401371290094" y1="579.1292159289519" y2="574.2785034282253" /><path d="M 356.815439,576.703860 A 138.978354,93.220078 -104.036243 0,1 328.911816,461.613504" fill="none" stroke="blue" stroke-dasharray="10,10" stroke-dashoffset="10" stroke-width="6" /><path d="M 356.815439,576.703860 A 138.978354,93.220078 -104.036243 0,1 328.911816,461.613504" fill="none" stroke="red" stroke-dasharray="10,10" stroke-dashoffset="0" stroke-width="6" /><line fill="purple" stroke="purple" stroke-linecap="round" stroke-width="6" x1="335.4968621416766" x2="322.3267699843062" y1="469.139271019059" y2="454.0877371249214" /><path d="M 328.911816,461.613504 A 85.827625,60.550650 -80.537678 0,1 351.648476,400.000000" fill="none" stroke="purple" stroke-dasharray="10,10" stroke-dashoffset="10" stroke-width="6" /><path d="M 328.911816,461.613504 A 85.827625,60.550650 -80.537678 0,1 351.648476,400.000000" fill="none" stroke="red" stroke-dasharray="10,10" stroke-dashoffset="0" stroke-width="6" /><line fill="red" stroke="red" stroke-linecap="round" stroke-width="6" x1="361.64847573032307" x2="341.64847573032307" y1="400.0" y2="400.0" /><path d="M 351.648476,400.000000 A 185.827625,137.229393 -28.610460 0,1 408.518270,348.890377" fill="none" stroke="purple" stroke-dasharray="10,10" stroke-dashoffset="10" stroke-width="6" /><path d="M 351.648476,400.000000 A 185.827625,137.229393 -28.610460 0,1 408.518270,348.890377" fill="none" stroke="orange" stroke-dasharray="10,10" stroke-dashoffset="0" stroke-width="6" /><line fill="red" stroke="red" stroke-linecap="round" stroke-width="6" x1="406.8742805852363" x2="410.1622603313434" y1="358.7543164885821" y2="339.0264380119392" /><path d="M 415.386237,307.682579 A 205.901699,138.818262 9.462322 0,1 741.066907,392.506330" fill="none" stroke="red" stroke-dasharray="10,10" stroke-dashoffset="10" stroke-width="6" /><path d="M 415.386237,307.682579 A 205.901699,138.818262 9.462322 0,1 741.066907,392.506330" fill="none" stroke="yellow" stroke-dasharray="10,10" stroke-dashoffset="0" stroke-width="6" /><line fill="yellow" stroke="yellow" stroke-linecap="round" stroke-width="6" x1="735.2545253454686" x2="746.8792892198504" y1="400.643664516344" y2="384.36899509220933" /><path d="M 741.066907,392.506330 A 248.913326,206.719239 25.641006 0,1 744.860760,400.000000" fill="none" stroke="red" stroke-dasharray="10,10" stroke-dashoffset="10" stroke-width="6" /><path d="M 741.066907,392.506330 A 248.913326,206.719239 25.641006 0,1 744.860760,400.000000" fill="none" stroke="green" stroke-dasharray="10,10" stroke-dashoffset="0" stroke-width="6" /><line fill="orange" stroke="orange" stroke-linecap="round" stroke-width="6" x1="734.8607603803189" x2="754.8607603803189" y1="399.9999999999999" y2="399.9999999999999" /><path d="M 744.860760,400.000000 A 148.913326,133.978277 67.380135 0,1 756.313651,431.405291" fill="none" stroke="orange" stroke-dasharray="10,10" stroke-dashoffset="10" stroke-width="6" /><path d="M 744.860760,400.000000 A 148.913326,133.978277 67.380135 0,1 756.313651,431.405291" fill="none" stroke="green" stroke-dasharray="10,10" stroke-dashoffset="0" stroke-width="6" /><line fill="green" stroke="green" stroke-linecap="round" stroke-width="6" x1="748.6314385684988" x2="763.9958641604463" y1="437.807134526251" y2="425.0034465329614" /><path d="M 756.313651,431.405291 A 227.015823,195.476811 107.650124 0,1 763.427373,481.713686" fill="none" stroke="orange" stroke-dasharray="10,10" stroke-dashoffset="10" stroke-width="6" /><path d="M 756.313651,431.405291 A 227.015823,195.476811 107.650124 0,1 763.427373,481.713686" fill="none" stroke="cyan" stroke-dasharray="10,10" stroke-dashoffset="0" stroke-width="6" /><line fill="yellow" stroke="yellow" stroke-linecap="round" stroke-width="6" x1="754.4831006165158" x2="772.3716444365142" y1="477.2415503082579" y2="486.1858222182571" /><path d="M 763.427373,481.713686 A 171.114123,121.778664 135.000000 0,1 661.669984,652.917496" fill="none" stroke="yellow" stroke-dasharray="10,10" stroke-dashoffset="10" stroke-width="6" /><path d="M 763.427373,481.713686 A 171.114123,121.778664 135.000000 0,1 661.669984,652.917496" fill="none" stroke="cyan" stroke-dasharray="10,10" stroke-dashoffset="0" stroke-width="6" /><line fill="cyan" stroke="cyan" stroke-linecap="round" stroke-width="6" x1="651.9685593489503" x2="671.371409351857" y1="650.4921398372377" y2="655.3428523379642" /><path d="M 661.669984,652.917496 A 212.345179,154.403611 149.036243 0,1 534.188405,696.215320" fill="none" stroke="yellow" stroke-dasharray="10,10" stroke-dashoffset="10" stroke-width="6" /><path d="M 661.669984,652.917496 A 212.345179,154.403611 149.036243 0,1 534.188405,696.215320" fill="none" stroke="blue" stroke-dasharray="10,10" stroke-dashoffset="0" stroke-width="6" /><line fill="blue" stroke="blue" stroke-linecap="round" stroke-width="6" x1="527.6033590274662" x2="540.7734511848366" y1="688.6895531742472" y2="703.7410870683847" /><path d="M 534.188405,696.215320 A 265.495908,208.957119 167.660913 0,1 523.780345,696.707517" fill="none" stroke="yellow" stroke-dasharray="10,10" stroke-dashoffset="10" stroke-width="6" /><path d="M 534.188405,696.215320 A 265.495908,208.957119 167.660913 0,1 523.780345,696.707517" fill="none" stroke="purple" stroke-dasharray="10,10" stroke-dashoffset="0" stroke-width="6" /><line fill="green" stroke="green" stroke-linecap="round" stroke-width="6" x1="529.5927270319818" x2="517.9679631575999" y1="688.5701821552256" y2="704.8448515793604" /><path d="M 523.780345,696.707517 A 222.484282,176.845288 180.000000 0,1 447.721168,688.565693" fill="none" stroke="green" stroke-dasharray="10,10" stroke-dashoffset="10" stroke-width="6" /><path d="M 523.780345,696.707517 A 222.484282,176.845288 180.000000 0,1 447.721168,688.565693" fill="none" stroke="purple" stroke-dasharray="10,10" stroke-dashoffset="0" stroke-width="6" /><line fill="cyan" stroke="cyan" stroke-linecap="round" stroke-width="6" x1="455.40338082688265" x2="440.0389552349351" y1="682.1638493109311" y2="694.9675373042206" /><path d="M 447.721168,688.565693 A 144.381785,112.787854 -146.309932 0,1 360.526150,636.843099" fill="none" stroke="cyan" stroke-dasharray="10,10" stroke-dashoffset="10" stroke-width="6" /><path d="M 447.721168,688.565693 A 144.381785,112.787854 -146.309932 0,1 360.526150,636.843099" fill="none" stroke="purple" stroke-dasharray="10,10" stroke-dashoffset="0" stroke-width="6" /><line fill="purple" stroke="purple" stroke-linecap="round" stroke-width="6" x1="362.1701399618405" x2="358.8821602157334" y1="626.9791602289567" y2="646.7070387055996" /><path d="M 360.526150,636.843099 A 205.209411,160.579894 -120.579227 0,1 313.357294,565.839323" fill="none" stroke="cyan" stroke-dasharray="10,10" stroke-dashoffset="10" stroke-width="6" /><path d="M 360.526150,636.843099 A 205.209411,160.579894 -120.579227 0,1 313.357294,565.839323" fill="none" stroke="red" stroke-dasharray="10,10" stroke-dashoffset="0" stroke-width="6" /><line fill="blue" stroke="blue" stroke-linecap="round" stroke-width="6" x1="323.0587186275722" x2="303.6558686246655" y1="568.264679656893" y2="563.4139671561664" /><path d="M 313.357294,565.839323 A 163.978354,127.529999 -104.036243 0,1 301.783287,430.609471" fill="none" stroke="blue" stroke-dasharray="10,10" stroke-dashoffset="10" stroke-width="6" /><path d="M 313.357294,565.839323 A 163.978354,127.529999 -104.036243 0,1 301.783287,430.609471" fill="none" stroke="red" stroke-dasharray="10,10" stroke-dashoffset="0" stroke-width="6" /><line fill="purple" stroke="purple" stroke-linecap="round" stroke-width="6" x1="308.36833342685344" x2="295.19824126948305" y1="438.1352382021182" y2="423.0837043079806" /><path d="M 301.783287,430.609471 A 110.827625,92.643200 -80.537678 0,1 314.876875,400.000000" fill="none" stroke="purple" stroke-dasharray="10,10" stroke-dashoffset="10" stroke-width="6" /><path d="M 301.783287,430.609471 A 110.827625,92.643200 -80.537678 0,1 314.876875,400.000000" fill="none" stroke="red" stroke-dasharray="10,10" stroke-dashoffset="0" stroke-width="6" /><line fill="red" stroke="red" stroke-linecap="round" stroke-width="6" x1="324.8768752164159" x2="304.8768752164159" y1="400.0" y2="400.0" /><path d="M 314.876875,400.000000 A 210.827625,169.553200 -28.610460 0,1 415.375794,307.687897" fill="none" stroke="purple" stroke-dasharray="10,10" stroke-dashoffset="10" stroke-width="6" /><path d="M 314.876875,400.000000 A 210.827625,169.553200 -28.610460 0,1 415.375794,307.687897" fill="none" stroke="orange" stroke-dasharray="10,10" stroke-dashoffset="0" stroke-width="6" /><line fill="orange" stroke="orange" stroke-linecap="round" stroke-width="6" x1="424.3200659918049" x2="406.4315221718066" y1="312.1600329959025" y2="303.2157610859033" /><path d="M 415.375794,307.687897 A 266.729325,210.522048 -12.339087 0,1 415.386237,307.682579" fill="none" stroke="purple" stroke-dasharray="10,10" stroke-dashoffset="10" stroke-width="6" /><path d="M 415.375794,307.687897 A 266.729325,210.522048 -12.339087 0,1 415.386237,307.682579" fill="none" stroke="yellow" stroke-dasharray="10,10" stroke-dashoffset="0" stroke-width="6" /><line fill="red" stroke="red" stroke-linecap="round" stroke-width="6" x1="413.74224690775014" x2="417.03022665385726" y1="317.5465185534993" y2="297.8186400768564" /><path d="M 427.213781,236.717313 A 255.901699,205.817103 9.462322 0,1 776.288445,343.196177" fill="none" stroke="red" stroke-dasharray="10,10" stroke-dashoffset="10" stroke-width="6" /><path d="M 427.213781,236.717313 A 255.901699,205.817103 9.462322 0,1 776.288445,343.196177" fill="none" stroke="yellow" stroke-dasharray="10,10" stroke-dashoffset="0" stroke-width="6" /><line fill="yellow" stroke="yellow" stroke-linecap="round" stroke-width="6" x1="770.4760633950957" x2="782.1008272694776" y1="351.33351124686607" y2="335.0588418227314" /><path d="M 776.288445,343.196177 A 298.913326,264.809698 25.641006 0,1 801.097793,394.085172" fill="none" stroke="red" stroke-dasharray="10,10" stroke-dashoffset="10" stroke-width="6" /><path d="M 776.288445,343.196177 A 298.913326,264.809698 25.641006 0,1 801.097793,394.085172" fill="none" stroke="green" stroke-dasharray="10,10" stroke-dashoffset="0" stroke-width="6" /><line fill="green" stroke="green" stroke-linecap="round" stroke-width="6" x1="793.4155806330617" x2="808.7800062250093" y1="400.4870161391152" y2="387.6833281458256" /><path d="M 801.097793,394.085172 A 377.015823,354.705414 59.420773 0,1 803.235738,400.000000" fill="none" stroke="red" stroke-dasharray="10,10" stroke-dashoffset="10" stroke-width="6" /><path d="M 801.097793,394.085172 A 377.015823,354.705414 59.420773 0,1 803.235738,400.000000" fill="none" stroke="cyan" stroke-dasharray="10,10" stroke-dashoffset="0" stroke-width="6" /><line fill="orange" stroke="orange" stroke-linecap="round" stroke-width="6" x1="793.2357379135727" x2="813.2357379135727" y1="400.0" y2="400.0" /><path d="M 803.235738,400.000000 A 277.015823,251.818915 107.650124 0,1 818.881248,509.440624" fill="none" stroke="orange" stroke-dasharray="10,10" stroke-dashoffset="10" stroke-width="6" /><path d="M 803.235738,400.000000 A 277.015823,251.818915 107.650124 0,1 818.881248,509.440624" fill="none" stroke="cyan" stroke-dasharray="10,10" stroke-dashoffset="0" stroke-width="6" /><line fill="yellow" stroke="yellow" stroke-linecap="round" stroke-width="6" x1="809.9369759034947" x2="827.8255197234931" y1="504.9684879517474" y2="513.9127598617466" /><path d="M 818.881248,509.440624 A 221.114123,185.584093 135.000000 0,1 739.792403,672.448101" fill="none" stroke="yellow" stroke-dasharray="10,10" stroke-dashoffset="10" stroke-width="6" /><path d="M 818.881248,509.440624 A 221.114123,185.584093 135.000000 0,1 739.792403,672.448101" fill="none" stroke="cyan" stroke-dasharray="10,10" stroke-dashoffset="0" stroke-width="6" /><line fill="cyan" stroke="cyan" stroke-linecap="round" stroke-width="6" x1="730.0909780948289" x2="749.4938280977356" y1="670.0227445237073" y2="674.8734570244338" /><path d="M 739.792403,672.448101 A 262.345179,218.116925 149.036243 0,1 582.480411,751.406184" fill="none" stroke="yellow" stroke-dasharray="10,10" stroke-dashoffset="10" stroke-width="6" /><path d="M 739.792403,672.448101 A 262.345179,218.116925 149.036243 0,1 582.480411,751.406184" fill="none" stroke="blue" stroke-dasharray="10,10" stroke-dashoffset="0" stroke-width="6" /><line fill="blue" stroke="blue" stroke-linecap="round" stroke-width="6" x1="575.8953645422278" x2="589.0654566995981" y1="743.8804166196888" y2="758.9319505138263" /><path d="M 582.480411,751.406184 A 315.495908,269.652866 167.660913 0,1 482.166756,754.966542" fill="none" stroke="yellow" stroke-dasharray="10,10" stroke-dashoffset="10" stroke-width="6" /><path d="M 582.480411,751.406184 A 315.495908,269.652866 167.660913 0,1 482.166756,754.966542" fill="none" stroke="purple" stroke-dasharray="10,10" stroke-dashoffset="0" stroke-width="6" /><line fill="green" stroke="green" stroke-linecap="round" stroke-width="6" x1="487.9791378959087" x2="476.35437402152684" y1="746.8292069457278" y2="763.1038763698626" /><path d="M 482.166756,754.966542 A 272.484282,236.691115 180.000000 0,1 394.997964,732.501697" fill="none" stroke="green" stroke-dasharray="10,10" stroke-dashoffset="10" stroke-width="6" /><path d="M 482.166756,754.966542 A 272.484282,236.691115 180.000000 0,1 394.997964,732.501697" fill="none" stroke="purple" stroke-dasharray="10,10" stroke-dashoffset="0" stroke-width="6" /><line fill="cyan" stroke="cyan" stroke-linecap="round" stroke-width="6" x1="402.68017697987864" x2="387.3157513879311" y1="726.0998525167679" y2="738.9035405100574" /><path d="M 394.997964,732.501697 A 194.381785,172.218694 -146.309932 0,1 349.020313,705.878123" fill="none" stroke="cyan" stroke-dasharray="10,10" stroke-dashoffset="10" stroke-width="6" /><path d="M 394.997964,732.501697 A 194.381785,172.218694 -146.309932 0,1 349.020313,705.878123" fill="none" stroke="purple" stroke-dasharray="10,10" stroke-dashoffset="0" stroke-width="6" /><line fill="purple" stroke="purple" stroke-linecap="round" stroke-width="6" x1="350.66430262390435" x2="347.37632287779724" y1="696.0141842565737" y2="715.7420627332166" /><path d="M 349.020313,705.878123 A 255.209411,220.922709 -120.579227 0,1 243.849996,548.462499" fill="none" stroke="cyan" stroke-dasharray="10,10" stroke-dashoffset="10" stroke-width="6" /><path d="M 349.020313,705.878123 A 255.209411,220.922709 -120.579227 0,1 243.849996,548.462499" fill="none" stroke="red" stroke-dasharray="10,10" stroke-dashoffset="0" stroke-width="6" /><line fill="blue" stroke="blue" stroke-linecap="round" stroke-width="6" x1="253.55142093180436" x2="234.14857092889773" y1="550.8878552329511" y2="546.0371427322245" /><path d="M 243.849996,548.462499 A 213.978354,187.514629 -104.036243 0,1 252.866440,400.000000" fill="none" stroke="blue" stroke-dasharray="10,10" stroke-dashoffset="10" stroke-width="6" /><path d="M 243.849996,548.462499 A 213.978354,187.514629 -104.036243 0,1 252.866440,400.000000" fill="none" stroke="red" stroke-dasharray="10,10" stroke-dashoffset="0" stroke-width="6" /><line fill="red" stroke="red" stroke-linecap="round" stroke-width="6" x1="262.86643959597006" x2="242.8664395959701" y1="400.0" y2="400.0" /><path d="M 252.866440,400.000000 A 313.978354,288.023275 -53.130102 0,1 260.391471,383.304538" fill="none" stroke="blue" stroke-dasharray="10,10" stroke-dashoffset="10" stroke-width="6" /><path d="M 252.866440,400.000000 A 313.978354,288.023275 -53.130102 0,1 260.391471,383.304538" fill="none" stroke="orange" stroke-dasharray="10,10" stroke-dashoffset="0" stroke-width="6" /><line fill="purple" stroke="purple" stroke-linecap="round" stroke-width="6" x1="266.97651667741616" x2="253.8064245200458" y1="390.83030477418987" y2="375.77877088005226" /><path d="M 260.391471,383.304538 A 260.827625,228.759809 -28.610460 0,1 352.705336,276.352668" fill="none" stroke="purple" stroke-dasharray="10,10" stroke-dashoffset="10" stroke-width="6" /><path d="M 260.391471,383.304538 A 260.827625,228.759809 -28.610460 0,1 352.705336,276.352668" fill="none" stroke="orange" stroke-dasharray="10,10" stroke-dashoffset="0" stroke-width="6" /><line fill="orange" stroke="orange" stroke-linecap="round" stroke-width="6" x1="361.64960825648984" x2="343.76106443649155" y1="280.824804128245" y2="271.8805322182458" /><path d="M 352.705336,276.352668 A 316.729325,271.094938 -12.339087 0,1 427.213781,236.717313" fill="none" stroke="purple" stroke-dasharray="10,10" stroke-dashoffset="10" stroke-width="6" /><path d="M 352.705336,276.352668 A 316.729325,271.094938 -12.339087 0,1 427.213781,236.717313" fill="none" stroke="yellow" stroke-dasharray="10,10" stroke-dashoffset="0" stroke-width="6" /><line fill="red" stroke="red" stroke-linecap="round" stroke-width="6" x1="425.5697913245082" x2="428.8577710706153" y1="246.58125205295119" y2="226.8533735763083" /><path d="M 447.827922,113.032467 A 355.901699,321.777904 9.462322 0,1 842.360346,250.695515" fill="none" stroke="red" stroke-dasharray="10,10" stroke-dashoffset="10" stroke-width="6" /><path d="M 447.827922,113.032467 A 355.901699,321.777904 9.462322 0,1 842.360346,250.695515" fill="none" stroke="yellow" stroke-dasharray="10,10" stroke-dashoffset="0" stroke-width="6" /><line fill="yellow" stroke="yellow" stroke-linecap="round" stroke-width="6" x1="836.5479642483416" x2="848.1727281227235" y1="258.8328500523217" y2="242.558180628187" /><path d="M 842.360346,250.695515 A 398.913326,374.041230 25.641006 0,1 885.426875,323.810938" fill="none" stroke="red" stroke-dasharray="10,10" stroke-dashoffset="10" stroke-width="6" /><path d="M 842.360346,250.695515 A 398.913326,374.041230 25.641006 0,1 885.426875,323.810938" fill="none" stroke="green" stroke-dasharray="10,10" stroke-dashoffset="0" stroke-width="6" /><line fill="green" stroke="green" stroke-linecap="round" stroke-width="6" x1="877.7446621287263" x2="893.1090877206739" y1="330.2127815593947" y2="317.4090935661051" /><path d="M 885.426875,323.810938 A 477.015823,459.585786 59.420773 0,1 912.648018,400.000000" fill="none" stroke="red" stroke-dasharray="10,10" stroke-dashoffset="10" stroke-width="6" /><path d="M 885.426875,323.810938 A 477.015823,459.585786 59.420773 0,1 912.648018,400.000000" fill="none" stroke="cyan" stroke-dasharray="10,10" stroke-dashoffset="0" stroke-width="6" /><line fill="orange" stroke="orange" stroke-linecap="round" stroke-width="6" x1="902.6480183400631" x2="922.6480183400631" y1="399.99999999999994" y2="399.99999999999994" /><path d="M 912.648018,400.000000 A 377.015823,358.909362 107.650124 0,1 920.823501,560.411750" fill="none" stroke="orange" stroke-dasharray="10,10" stroke-dashoffset="10" stroke-width="6" /><path d="M 912.648018,400.000000 A 377.015823,358.909362 107.650124 0,1 920.823501,560.411750" fill="none" stroke="cyan" stroke-dasharray="10,10" stroke-dashoffset="0" stroke-width="6" /><line fill="yellow" stroke="yellow" stroke-linecap="round" stroke-width="6" x1="911.8792289729342" x2="929.7677727929326" y1="555.9396144864672" y2="564.8838863964663" /><path d="M 920.823501,560.411750 A 321.114123,297.765478 135.000000 0,1 861.769209,702.942302" fill="none" stroke="yellow" stroke-dasharray="10,10" stroke-dashoffset="10" stroke-width="6" /><path d="M 920.823501,560.411750 A 321.114123,297.765478 135.000000 0,1 861.769209,702.942302" fill="none" stroke="cyan" stroke-dasharray="10,10" stroke-dashoffset="0" stroke-width="6" /><line fill="cyan" stroke="cyan" stroke-linecap="round" stroke-width="6" x1="852.0677843251761" x2="871.4706343280828" y1="700.5169460812941" y2="705.3676585820207" /><path d="M 861.769209,702.942302 A 362.345179,331.728849 149.036243 0,1 665.363470,846.129680" fill="none" stroke="yellow" stroke-dasharray="10,10" stroke-dashoffset="10" stroke-width="6" /><path d="M 861.769209,702.942302 A 362.345179,331.728849 149.036243 0,1 665.363470,846.129680" fill="none" stroke="blue" stroke-dasharray="10,10" stroke-dashoffset="0" stroke-width="6" /><line fill="blue" stroke="blue" stroke-linecap="round" stroke-width="6" x1="658.7784240415489" x2="671.9485161989193" y1="838.6039131903416" y2="853.6554470844791" /><path d="M 665.363470,846.129680 A 415.495908,381.853178 167.660913 0,1 411.746668,853.554665" fill="none" stroke="yellow" stroke-dasharray="10,10" stroke-dashoffset="10" stroke-width="6" /><path d="M 665.363470,846.129680 A 415.495908,381.853178 167.660913 0,1 411.746668,853.554665" fill="none" stroke="purple" stroke-dasharray="10,10" stroke-dashoffset="0" stroke-width="6" /><line fill="green" stroke="green" stroke-linecap="round" stroke-width="6" x1="417.5590497657581" x2="405.93428589137625" y1="845.4173303279387" y2="861.6919997520735" /><path d="M 411.746668,853.554665 A 372.484282,347.159244 180.000000 0,1 329.798866,821.206803" fill="none" stroke="green" stroke-dasharray="10,10" stroke-dashoffset="10" stroke-width="6" /><path d="M 411.746668,853.554665 A 372.484282,347.159244 180.000000 0,1 329.798866,821.206803" fill="none" stroke="purple" stroke-dasharray="10,10" stroke-dashoffset="0" stroke-width="6" /><line fill="purple" stroke="purple" stroke-linecap="round" stroke-width="6" x1="331.44285605234575" x2="328.15487630623863" y1="811.3428636859253" y2="831.0707421625682" /><path d="M 329.798866,821.206803 A 433.311907,410.529182 -154.358994 0,1 305.381471,807.182108" fill="none" stroke="green" stroke-dasharray="10,10" stroke-dashoffset="10" stroke-width="6" /><path d="M 329.798866,821.206803 A 433.311907,410.529182 -154.358994 0,1 305.381471,807.182108" fill="none" stroke="red" stroke-dasharray="10,10" stroke-dashoffset="0" stroke-width="6" /><line fill="cyan" stroke="cyan" stroke-linecap="round" stroke-width="6" x1="313.0636833074902" x2="297.6992577155426" y1="800.7802639104249" y2="813.5839519037144" /><path d="M 305.381471,807.182108 A 355.209411,331.434346 -120.579227 0,1 128.566981,519.641745" fill="none" stroke="cyan" stroke-dasharray="10,10" stroke-dashoffset="10" stroke-width="6" /><path d="M 305.381471,807.182108 A 355.209411,331.434346 -120.579227 0,1 128.566981,519.641745" fill="none" stroke="red" stroke-dasharray="10,10" stroke-dashoffset="0" stroke-width="6" /><line fill="blue" stroke="blue" stroke-linecap="round" stroke-width="6" x1="138.26840587668832" x2="118.86555587378169" y1="522.0671014691721" y2="517.2163889684456" /><path d="M 128.566981,519.641745 A 313.978354,296.576140 -104.036243 0,1 140.522054,400.000000" fill="none" stroke="blue" stroke-dasharray="10,10" stroke-dashoffset="10" stroke-width="6" /><path d="M 128.566981,519.641745 A 313.978354,296.576140 -104.036243 0,1 140.522054,400.000000" fill="none" stroke="red" stroke-dasharray="10,10" stroke-dashoffset="0" stroke-width="6" /><line fill="red" stroke="red" stroke-linecap="round" stroke-width="6" x1="150.522054350249" x2="130.522054350249" y1="400.0" y2="400.0" /><path d="M 140.522054,400.000000 A 413.978354,394.655645 -53.130102 0,1 185.733406,297.981035" fill="none" stroke="blue" stroke-dasharray="10,10" stroke-dashoffset="10" stroke-width="6" /><path d="M 140.522054,400.000000 A 413.978354,394.655645 -53.130102 0,1 185.733406,297.981035" fill="none" stroke="orange" stroke-dasharray="10,10" stroke-dashoffset="0" stroke-width="6" /><line fill="purple" stroke="purple" stroke-linecap="round" stroke-width="6" x1="192.31845202073387" x2="179.14835986336354" y1="305.50680230941015" y2="290.45526841527254" /><path d="M 185.733406,297.981035 A 360.827625,338.373426 -28.610460 0,1 245.979090,222.989545" fill="none" stroke="purple" stroke-dasharray="10,10" stroke-dashoffset="10" stroke-width="6" /><path d="M 185.733406,297.981035 A 360.827625,338.373426 -28.610460 0,1 245.979090,222.989545" fill="none" stroke="orange" stroke-dasharray="10,10" stroke-dashoffset="0" stroke-width="6" /><line fill="orange" stroke="orange" stroke-linecap="round" stroke-width="6" x1="254.92336155400233" x2="237.03481773400404" y1="227.46168077700116" y2="218.51740886700202" /><path d="M 245.979090,222.989545 A 416.729325,383.194898 -12.339087 0,1 447.827922,113.032467" fill="none" stroke="purple" stroke-dasharray="10,10" stroke-dashoffset="10" stroke-width="6" /><path d="M 245.979090,222.989545 A 416.729325,383.194898 -12.339087 0,1 447.827922,113.032467" fill="none" stroke="yellow" stroke-dasharray="10,10" stroke-dashoffset="0" stroke-width="6" /><line fill="red" stroke="red" stroke-linecap="round" stroke-width="6" x1="446.18393228630123" x2="449.47191203240834" y1="122.8964062821929" y2="103.16852780555003" /></svg>