<?xml version="1.0" encoding="utf-8" ?>
<svg baseProfile="full" height="1000" version="1.1" width="1000" xmlns="http://www.w3.org/2000/svg" xmlns:ev="http://www.w3.org/2001/xml-events" xmlns:xlink="http://www.w3.org/1999/xlink"><defs /><circle cx="400" cy="400" fill="red" r="5" stroke="red" stroke-width="2" /><circle cx="600" cy="400" fill="orange" r="5" stroke="orange" stroke-width="2" /><circle cx="700" cy="450" fill="yellow" r="5" stroke="yellow" stroke-width="2" /><circle cx="650" cy="520" fill="green" r="5" stroke="green" stroke-width="2" /><circle cx="530" cy="620" fill="cyan" r="5" stroke="cyan" stroke-width="2" /><circle cx="450" cy="600" fill="blue" r="5" stroke="blue" stroke-width="2" /><circle cx="380" cy="520" fill="purple" r="5" stroke="purple" stroke-width="2" /><g fill="none"><path d="M 400.196062,398.823628 A 100.500000,10.012492 0.000000 0,1 591.890744,395.945372" stroke="red" stroke-dasharray="10,10" stroke-dashoffset="10" stroke-width="6" /><path d="M 400.196062,398.823628 A 100.500000,10.012492 0.000000 0,1 591.890744,395.945372" stroke="orange" stroke-dasharray="10,10" stroke-dashoffset="0" stroke-width="6" /><circle cx="591.8907436006556" cy="395.9453718003278" fill="orange" r="8" stroke="orange" /><path d="M 591.890744,395.945372 A 156.401699,36.558058 9.462322 0,1 608.771374,400.000000" stroke="red" stroke-dasharray="10,10" stroke-dashoffset="10" stroke-width="6" /><path d="M 591.890744,395.945372 A 156.401699,36.558058 9.462322 0,1 608.771374,400.000000" stroke="yellow" stroke-dasharray="10,10" stroke-dashoffset="0" stroke-width="6" /><circle cx="608.7713739118424" cy="400.00000000000006" fill="orange" r="8" stroke="orange" /><path d="M 608.771374,400.000000 A 56.401699,7.493444 26.565051 0,1 700.501188,449.298337" stroke="orange" stroke-dasharray="10,10" stroke-dashoffset="10" stroke-width="6" /><path d="M 608.771374,400.000000 A 56.401699,7.493444 26.565051 0,1 700.501188,449.298337" stroke="yellow" stroke-dasharray="10,10" stroke-dashoffset="0" stroke-width="6" /><circle cx="700.5011882042394" cy="449.2983365140649" fill="yellow" r="8" stroke="yellow" /><path d="M 700.501188,449.298337 A 99.413326,75.219740 67.380135 0,1 700.770500,450.385250" stroke="orange" stroke-dasharray="10,10" stroke-dashoffset="10" stroke-width="6" /><path d="M 700.501188,449.298337 A 99.413326,75.219740 67.380135 0,1 700.770500,450.385250" stroke="green" stroke-dasharray="10,10" stroke-dashoffset="0" stroke-width="6" /><circle cx="700.7704999143729" cy="450.38524995718643" fill="yellow" r="8" stroke="yellow" /><path d="M 700.770500,450.385250 A 43.511626,6.577357 125.537678 0,1 667.495155,505.420704" stroke="yellow" stroke-dasharray="10,10" stroke-dashoffset="10" stroke-width="6" /><path d="M 700.770500,450.385250 A 43.511626,6.577357 125.537678 0,1 667.495155,505.420704" stroke="green" stroke-dasharray="10,10" stroke-dashoffset="0" stroke-width="6" /><circle cx="667.4951547106544" cy="505.420704407788" fill="green" r="8" stroke="green" /><path d="M 667.495155,505.420704 A 121.614123,18.438952 135.000000 0,1 635.026799,540.962481" stroke="yellow" stroke-dasharray="10,10" stroke-dashoffset="10" stroke-width="6" /><path d="M 667.495155,505.420704 A 121.614123,18.438952 135.000000 0,1 635.026799,540.962481" stroke="cyan" stroke-dasharray="10,10" stroke-dashoffset="0" stroke-width="6" /><circle cx="635.0267989800907" cy="540.9624814278731" fill="green" r="8" stroke="green" /><path d="M 635.026799,540.962481 A 78.602497,8.851695 140.194429 0,1 532.337373,620.584343" stroke="green" stroke-dasharray="10,10" stroke-dashoffset="10" stroke-width="6" /><path d="M 635.026799,540.962481 A 78.602497,8.851695 140.194429 0,1 532.337373,620.584343" stroke="cyan" stroke-dasharray="10,10" stroke-dashoffset="0" stroke-width="6" /><circle cx="532.3373734774146" cy="620.5843433693536" fill="cyan" r="8" stroke="cyan" /><path d="M 532.337373,620.584343 A 119.833553,52.536468 158.198591 0,1 528.169011,621.525825" stroke="green" stroke-dasharray="10,10" stroke-dashoffset="10" stroke-width="6" /><path d="M 532.337373,620.584343 A 119.833553,52.536468 158.198591 0,1 528.169011,621.525825" stroke="blue" stroke-dasharray="10,10" stroke-dashoffset="0" stroke-width="6" /><circle cx="528.1690105566834" cy="621.5258245360973" fill="cyan" r="8" stroke="cyan" /><path d="M 528.169011,621.525825 A 41.731056,6.440579 -165.963757 0,1 453.472995,603.969137" stroke="cyan" stroke-dasharray="10,10" stroke-dashoffset="10" stroke-width="6" /><path d="M 528.169011,621.525825 A 41.731056,6.440579 -165.963757 0,1 453.472995,603.969137" stroke="blue" stroke-dasharray="10,10" stroke-dashoffset="0" stroke-width="6" /><circle cx="453.47299453770916" cy="603.9691366145247" fill="blue" r="8" stroke="blue" /><path d="M 453.472995,603.969137 A 94.881785,29.623524 -146.309932 0,1 444.816422,598.704106" stroke="cyan" stroke-dasharray="10,10" stroke-dashoffset="10" stroke-width="6" /><path d="M 453.472995,603.969137 A 94.881785,29.623524 -146.309932 0,1 444.816422,598.704106" stroke="purple" stroke-dasharray="10,10" stroke-dashoffset="0" stroke-width="6" /><circle cx="444.81642226286715" cy="598.7041055657168" fill="blue" r="8" stroke="blue" /><path d="M 444.816422,598.704106 A 53.650729,7.307580 -131.185925 0,1 379.559925,522.640449" stroke="blue" stroke-dasharray="10,10" stroke-dashoffset="10" stroke-width="6" /><path d="M 444.816422,598.704106 A 53.650729,7.307580 -131.185925 0,1 379.559925,522.640449" stroke="purple" stroke-dasharray="10,10" stroke-dashoffset="0" stroke-width="6" /><circle cx="379.5599251265174" cy="522.6404492408957" fill="purple" r="8" stroke="purple" /><path d="M 379.559925,522.640449 A 114.478354,49.802546 -104.036243 0,1 378.232719,517.980251" stroke="blue" stroke-dasharray="10,10" stroke-dashoffset="10" stroke-width="6" /><path d="M 379.559925,522.640449 A 114.478354,49.802546 -104.036243 0,1 378.232719,517.980251" stroke="red" stroke-dasharray="10,10" stroke-dashoffset="0" stroke-width="6" /><circle cx="378.23271928457984" cy="517.9802506109484" fill="purple" r="8" stroke="purple" /><path d="M 378.232719,517.980251 A 61.327625,7.815218 -80.537678 0,1 398.810044,400.000000" stroke="purple" stroke-dasharray="10,10" stroke-dashoffset="10" stroke-width="6" /><path d="M 378.232719,517.980251 A 61.327625,7.815218 -80.537678 0,1 398.810044,400.000000" stroke="red" stroke-dasharray="10,10" stroke-dashoffset="0" stroke-width="6" /><circle cx="398.8100438128114" cy="400.0" fill="red" r="8" stroke="red" /><path d="M 398.810044,400.000000 A 161.327625,101.619893 -28.610460 0,1 400.196062,398.823628" stroke="purple" stroke-dasharray="10,10" stroke-dashoffset="10" stroke-width="6" /><path d="M 398.810044,400.000000 A 161.327625,101.619893 -28.610460 0,1 400.196062,398.823628" stroke="orange" stroke-dasharray="10,10" stroke-dashoffset="0" stroke-width="6" /><circle cx="400.1960620821111" cy="398.8236275073333" fill="red" r="8" stroke="red" /><path d="M 403.690012,377.859929 A 110.000000,45.825757 0.000000 0,1 508.631053,354.315527" stroke="red" stroke-dasharray="10,10" stroke-dashoffset="10" stroke-width="6" /><path d="M 403.690012,377.859929 A 110.000000,45.825757 0.000000 0,1 508.631053,354.315527" stroke="orange" stroke-dasharray="10,10" stroke-dashoffset="0" stroke-width="6" /><circle cx="508.6310533851267" cy="354.31552669256337" fill="orange" r="8" stroke="orange" /><path d="M 508.631053,354.315527 A 165.901699,66.320237 9.462322 0,1 676.597724,400.000000" stroke="red" stroke-dasharray="10,10" stroke-dashoffset="10" stroke-width="6" /><path d="M 508.631053,354.315527 A 165.901699,66.320237 9.462322 0,1 676.597724,400.000000" stroke="yellow" stroke-dasharray="10,10" stroke-dashoffset="0" stroke-width="6" /><circle cx="676.5977242581936" cy="400.00000000000006" fill="orange" r="8" stroke="orange" /><path d="M 676.597724,400.000000 A 65.901699,34.900344 26.565051 0,1 709.487608,436.717349" stroke="orange" stroke-dasharray="10,10" stroke-dashoffset="10" stroke-width="6" /><path d="M 676.597724,400.000000 A 65.901699,34.900344 26.565051 0,1 709.487608,436.717349" stroke="yellow" stroke-dasharray="10,10" stroke-dashoffset="0" stroke-width="6" /><circle cx="709.4876077676658" cy="436.7173491252678" fill="yellow" r="8" stroke="yellow" /><path d="M 709.487608,436.717349 A 108.913326,87.390575 67.380135 0,1 714.381456,457.190728" stroke="orange" stroke-dasharray="10,10" stroke-dashoffset="10" stroke-width="6" /><path d="M 709.487608,436.717349 A 108.913326,87.390575 67.380135 0,1 714.381456,457.190728" stroke="green" stroke-dasharray="10,10" stroke-dashoffset="0" stroke-width="6" /><circle cx="714.3814555017445" cy="457.19072775087227" fill="yellow" r="8" stroke="yellow" /><path d="M 714.381456,457.190728 A 53.011626,30.987619 125.537678 0,1 714.710029,466.074976" stroke="yellow" stroke-dasharray="10,10" stroke-dashoffset="10" stroke-width="6" /><path d="M 714.381456,457.190728 A 53.011626,30.987619 125.537678 0,1 714.710029,466.074976" stroke="green" stroke-dasharray="10,10" stroke-dashoffset="0" stroke-width="6" /><circle cx="714.7100292002967" cy="466.07497566641945" fill="green" r="8" stroke="green" /><path d="M 714.710029,466.074976 A 131.114123,52.353732 135.000000 0,1 572.972175,627.838955" stroke="yellow" stroke-dasharray="10,10" stroke-dashoffset="10" stroke-width="6" /><path d="M 714.710029,466.074976 A 131.114123,52.353732 135.000000 0,1 572.972175,627.838955" stroke="cyan" stroke-dasharray="10,10" stroke-dashoffset="0" stroke-width="6" /><circle cx="572.972174779957" cy="627.8389553080603" fill="green" r="8" stroke="green" /><path d="M 572.972175,627.838955 A 88.102497,40.768247 140.194429 0,1 568.372141,629.593035" stroke="green" stroke-dasharray="10,10" stroke-dashoffset="10" stroke-width="6" /><path d="M 572.972175,627.838955 A 88.102497,40.768247 140.194429 0,1 568.372141,629.593035" stroke="cyan" stroke-dasharray="10,10" stroke-dashoffset="0" stroke-width="6" /><circle cx="568.37214051599" cy="629.5930351289975" fill="cyan" r="8" stroke="cyan" /><path d="M 568.372141,629.593035 A 129.333553,71.604245 158.198591 0,1 503.598263,642.001447" stroke="green" stroke-dasharray="10,10" stroke-dashoffset="10" stroke-width="6" /><path d="M 568.372141,629.593035 A 129.333553,71.604245 158.198591 0,1 503.598263,642.001447" stroke="blue" stroke-dasharray="10,10" stroke-dashoffset="0" stroke-width="6" /><circle cx="503.5982631437599" cy="642.0014473802001" fill="cyan" r="8" stroke="cyan" /><path d="M 503.598263,642.001447 A 51.231056,30.407583 -165.963757 0,1 485.062689,640.071644" stroke="cyan" stroke-dasharray="10,10" stroke-dashoffset="10" stroke-width="6" /><path d="M 503.598263,642.001447 A 51.231056,30.407583 -165.963757 0,1 485.062689,640.071644" stroke="blue" stroke-dasharray="10,10" stroke-dashoffset="0" stroke-width="6" /><circle cx="485.0626887441179" cy="640.0716442789918" fill="blue" r="8" stroke="blue" /><path d="M 485.062689,640.071644 A 104.381785,52.636082 -146.309932 0,1 392.122112,585.530528" stroke="cyan" stroke-dasharray="10,10" stroke-dashoffset="10" stroke-width="6" /><path d="M 485.062689,640.071644 A 104.381785,52.636082 -146.309932 0,1 392.122112,585.530528" stroke="purple" stroke-dasharray="10,10" stroke-dashoffset="0" stroke-width="6" /><circle cx="392.12211183319187" cy="585.530527958298" fill="blue" r="8" stroke="blue" /><path d="M 392.122112,585.530528 A 63.150729,34.103000 -131.185925 0,1 373.507459,558.955244" stroke="blue" stroke-dasharray="10,10" stroke-dashoffset="10" stroke-width="6" /><path d="M 392.122112,585.530528 A 63.150729,34.103000 -131.185925 0,1 373.507459,558.955244" stroke="purple" stroke-dasharray="10,10" stroke-dashoffset="0" stroke-width="6" /><circle cx="373.50745931675755" cy="558.9552440994547" fill="purple" r="8" stroke="purple" /><path d="M 373.507459,558.955244 A 123.978354,68.888550 -104.036243 0,1 353.124372,489.284996" stroke="blue" stroke-dasharray="10,10" stroke-dashoffset="10" stroke-width="6" /><path d="M 373.507459,558.955244 A 123.978354,68.888550 -104.036243 0,1 353.124372,489.284996" stroke="red" stroke-dasharray="10,10" stroke-dashoffset="0" stroke-width="6" /><circle cx="353.12437167431773" cy="489.28499619922025" fill="purple" r="8" stroke="purple" /><path d="M 353.124372,489.284996 A 70.827625,36.284329 -80.537678 0,1 378.356010,400.000000" stroke="purple" stroke-dasharray="10,10" stroke-dashoffset="10" stroke-width="6" /><path d="M 353.124372,489.284996 A 70.827625,36.284329 -80.537678 0,1 378.356010,400.000000" stroke="red" stroke-dasharray="10,10" stroke-dashoffset="0" stroke-width="6" /><circle cx="378.3560101269464" cy="400.0" fill="red" r="8" stroke="red" /><path d="M 378.356010,400.000000 A 170.827625,116.112349 -28.610460 0,1 403.690012,377.859929" stroke="purple" stroke-dasharray="10,10" stroke-dashoffset="10" stroke-width="6" /><path d="M 378.356010,400.000000 A 170.827625,116.112349 -28.610460 0,1 403.690012,377.859929" stroke="orange" stroke-dasharray="10,10" stroke-dashoffset="0" stroke-width="6" /><circle cx="403.6900117534816" cy="377.8599294791104" fill="red" r="8" stroke="red" /><path d="M 408.518270,348.890377 A 125.000000,75.000000 0.000000 0,1 458.505689,329.252845" stroke="red" stroke-dasharray="10,10" stroke-dashoffset="10" stroke-width="6" /><path d="M 408.518270,348.890377 A 125.000000,75.000000 0.000000 0,1 458.505689,329.252845" stroke="orange" stroke-dasharray="10,10" stroke-dashoffset="0" stroke-width="6" /><circle cx="458.50568935451594" cy="329.25284467725794" fill="orange" r="8" stroke="orange" /><path d="M 458.505689,329.252845 A 180.901699,97.981758 9.462322 0,1 710.676275,400.000000" stroke="red" stroke-dasharray="10,10" stroke-dashoffset="10" stroke-width="6" /><path d="M 458.505689,329.252845 A 180.901699,97.981758 9.462322 0,1 710.676275,400.000000" stroke="yellow" stroke-dasharray="10,10" stroke-dashoffset="0" stroke-width="6" /><circle cx="710.6762745781211" cy="400.00000000000006" fill="orange" r="8" stroke="orange" /><path d="M 710.676275,400.000000 A 80.901699,58.481493 26.565051 0,1 722.181187,418.946338" stroke="orange" stroke-dasharray="10,10" stroke-dashoffset="10" stroke-width="6" /><path d="M 710.676275,400.000000 A 80.901699,58.481493 26.565051 0,1 722.181187,418.946338" stroke="yellow" stroke-dasharray="10,10" stroke-dashoffset="0" stroke-width="6" /><circle cx="722.1811869060598" cy="418.9463383315163" fill="yellow" r="8" stroke="yellow" /><path d="M 722.181187,418.946338 A 123.913326,105.496504 67.380135 0,1 731.655127,451.954061" stroke="orange" stroke-dasharray="10,10" stroke-dashoffset="10" stroke-width="6" /><path d="M 722.181187,418.946338 A 123.913326,105.496504 67.380135 0,1 731.655127,451.954061" stroke="green" stroke-dasharray="10,10" stroke-dashoffset="0" stroke-width="6" /><circle cx="731.6551268499857" cy="451.9540609583453" fill="green" r="8" stroke="green" /><path d="M 731.655127,451.954061 A 202.015823,165.787191 107.650124 0,1 733.514614,466.757307" stroke="orange" stroke-dasharray="10,10" stroke-dashoffset="10" stroke-width="6" /><path d="M 731.655127,451.954061 A 202.015823,165.787191 107.650124 0,1 733.514614,466.757307" stroke="cyan" stroke-dasharray="10,10" stroke-dashoffset="0" stroke-width="6" /><circle cx="733.514613515585" cy="466.7573067577925" fill="yellow" r="8" stroke="yellow" /><path d="M 733.514614,466.757307 A 146.114123,83.062248 135.000000 0,1 609.429637,639.857409" stroke="yellow" stroke-dasharray="10,10" stroke-dashoffset="10" stroke-width="6" /><path d="M 733.514614,466.757307 A 146.114123,83.062248 135.000000 0,1 609.429637,639.857409" stroke="cyan" stroke-dasharray="10,10" stroke-dashoffset="0" stroke-width="6" /><circle cx="609.4296370531956" cy="639.8574092632989" fill="cyan" r="8" stroke="cyan" /><path d="M 609.429637,639.857409 A 187.345179,117.678444 149.036243 0,1 549.999013,660.001382" stroke="yellow" stroke-dasharray="10,10" stroke-dashoffset="10" stroke-width="6" /><path d="M 609.429637,639.857409 A 187.345179,117.678444 149.036243 0,1 549.999013,660.001382" stroke="blue" stroke-dasharray="10,10" stroke-dashoffset="0" stroke-width="6" /><circle cx="549.9990129389131" cy="660.0013818855217" fill="green" r="8" stroke="green" /><path d="M 549.999013,660.001382 A 144.333553,96.084205 158.198591 0,1 505.987149,663.985313" stroke="green" stroke-dasharray="10,10" stroke-dashoffset="10" stroke-width="6" /><path d="M 549.999013,660.001382 A 144.333553,96.084205 158.198591 0,1 505.987149,663.985313" stroke="blue" stroke-dasharray="10,10" stroke-dashoffset="0" stroke-width="6" /><circle cx="505.9871485011247" cy="663.985312572714" fill="blue" r="8" stroke="blue" /><path d="M 505.987149,663.985313 A 197.484282,144.135498 180.000000 0,1 479.806136,661.828220" stroke="green" stroke-dasharray="10,10" stroke-dashoffset="10" stroke-width="6" /><path d="M 505.987149,663.985313 A 197.484282,144.135498 180.000000 0,1 479.806136,661.828220" stroke="purple" stroke-dasharray="10,10" stroke-dashoffset="0" stroke-width="6" /><circle cx="479.8061357301435" cy="661.8282202248804" fill="cyan" r="8" stroke="cyan" /><path d="M 479.806136,661.828220 A 119.381785,78.275224 -146.309932 0,1 367.774612,593.352329" stroke="cyan" stroke-dasharray="10,10" stroke-dashoffset="10" stroke-width="6" /><path d="M 479.806136,661.828220 A 119.381785,78.275224 -146.309932 0,1 367.774612,593.352329" stroke="purple" stroke-dasharray="10,10" stroke-dashoffset="0" stroke-width="6" /><circle cx="367.77461176277455" cy="593.3523294233526" fill="purple" r="8" stroke="purple" /><path d="M 367.774612,593.352329 A 180.209411,127.084349 -120.579227 0,1 356.815439,576.703860" stroke="cyan" stroke-dasharray="10,10" stroke-dashoffset="10" stroke-width="6" /><path d="M 367.774612,593.352329 A 180.209411,127.084349 -120.579227 0,1 356.815439,576.703860" stroke="red" stroke-dasharray="10,10" stroke-dashoffset="0" stroke-width="6" /><circle cx="356.8154387143543" cy="576.7038596785886" fill="blue" r="8" stroke="blue" /><path d="M 356.815439,576.703860 A 138.978354,93.220078 -104.036243 0,1 328.911816,461.613504" stroke="blue" stroke-dasharray="10,10" stroke-dashoffset="10" stroke-width="6" /><path d="M 356.815439,576.703860 A 138.978354,93.220078 -104.036243 0,1 328.911816,461.613504" stroke="red" stroke-dasharray="10,10" stroke-dashoffset="0" stroke-width="6" /><circle cx="328.9118160629914" cy="461.6135040719902" fill="purple" r="8" stroke="purple" /><path d="M 328.911816,461.613504 A 85.827625,60.550650 -80.537678 0,1 351.648476,400.000000" stroke="purple" stroke-dasharray="10,10" stroke-dashoffset="10" stroke-width="6" /><path d="M 328.911816,461.613504 A 85.827625,60.550650 -80.537678 0,1 351.648476,400.000000" stroke="red" stroke-dasharray="10,10" stroke-dashoffset="0" stroke-width="6" /><circle cx="351.64847573032307" cy="400.0" fill="red" r="8" stroke="red" /><path d="M 351.648476,400.000000 A 185.827625,137.229393 -28.610460 0,1 408.518270,348.890377" stroke="purple" stroke-dasharray="10,10" stroke-dashoffset="10" stroke-width="6" /><path d="M 351.648476,400.000000 A 185.827625,137.229393 -28.610460 0,1 408.518270,348.890377" stroke="orange" stroke-dasharray="10,10" stroke-dashoffset="0" stroke-width="6" /><circle cx="408.51827045828986" cy="348.89037725026066" fill="red" r="8" stroke="red" /><path d="M 415.386237,307.682579 A 205.901699,138.818262 9.462322 0,1 741.066907,392.506330" stroke="red" stroke-dasharray="10,10" stroke-dashoffset="10" stroke-width="6" /><path d="M 415.386237,307.682579 A 205.901699,138.818262 9.462322 0,1 741.066907,392.506330" stroke="yellow" stroke-dasharray="10,10" stroke-dashoffset="0" stroke-width="6" /><circle cx="741.0669072826595" cy="392.5063298042767" fill="yellow" r="8" stroke="yellow" /><path d="M 741.066907,392.506330 A 248.913326,206.719239 25.641006 0,1 744.860760,400.000000" stroke="red" stroke-dasharray="10,10" stroke-dashoffset="10" stroke-width="6" /><path d="M 741.066907,392.506330 A 248.913326,206.719239 25.641006 0,1 744.860760,400.000000" stroke="green" stroke-dasharray="10,10" stroke-dashoffset="0" stroke-width="6" /><circle cx="744.8607603803189" cy="399.9999999999999" fill="orange" r="8" stroke="orange" /><path d="M 744.860760,400.000000 A 148.913326,133.978277 67.380135 0,1 756.313651,431.405291" stroke="orange" stroke-dasharray="10,10" stroke-dashoffset="10" stroke-width="6" /><path d="M 744.860760,400.000000 A 148.913326,133.978277 67.380135 0,1 756.313651,431.405291" stroke="green" stroke-dasharray="10,10" stroke-dashoffset="0" stroke-width="6" /><circle cx="756.3136513644725" cy="431.4052905296062" fill="green" r="8" stroke="green" /><path d="M 756.313651,431.405291 A 227.015823,195.476811 107.650124 0,1 763.427373,481.713686" stroke="orange" stroke-dasharray="10,10" stroke-dashoffset="10" stroke-width="6" /><path d="M 756.313651,431.405291 A 227.015823,195.476811 107.650124 0,1 763.427373,481.713686" stroke="cyan" stroke-dasharray="10,10" stroke-dashoffset="0" stroke-width="6" /><circle cx="763.427372526515" cy="481.7136862632575" fill="yellow" r="8" stroke="yellow" /><path d="M 763.427373,481.713686 A 171.114123,121.778664 135.000000 0,1 661.669984,652.917496" stroke="yellow" stroke-dasharray="10,10" stroke-dashoffset="10" stroke-width="6" /><path d="M 763.427373,481.713686 A 171.114123,121.778664 135.000000 0,1 661.669984,652.917496" stroke="cyan" stroke-dasharray="10,10" stroke-dashoffset="0" stroke-width="6" /><circle cx="661.6699843504036" cy="652.917496087601" fill="cyan" r="8" stroke="cyan" /><path d="M 661.669984,652.917496 A 212.345179,154.403611 149.036243 0,1 534.188405,696.215320" stroke="yellow" stroke-dasharray="10,10" stroke-dashoffset="10" stroke-width="6" /><path d="M 661.669984,652.917496 A 212.345179,154.403611 149.036243 0,1 534.188405,696.215320" stroke="blue" stroke-dasharray="10,10" stroke-dashoffset="0" stroke-width="6" /><circle cx="534.1884051061514" cy="696.2153201213159" fill="blue" r="8" stroke="blue" /><path d="M 534.188405,696.215320 A 265.495908,208.957119 167.660913 0,1 523.780345,696.707517" stroke="yellow" stroke-dasharray="10,10" stroke-dashoffset="10" stroke-width="6" /><path d="M 534.188405,696.215320 A 265.495908,208.957119 167.660913 0,1 523.780345,696.707517" stroke="purple" stroke-dasharray="10,10" stroke-dashoffset="0" stroke-width="6" /><circle cx="523.7803450947908" cy="696.707516867293" fill="green" r="8" stroke="green" /><path d="M 523.780345,696.707517 A 222.484282,176.845288 180.000000 0,1 447.721168,688.565693" stroke="green" stroke-dasharray="10,10" stroke-dashoffset="10" stroke-width="6" /><path d="M 523.780345,696.707517 A 222.484282,176.845288 180.000000 0,1 447.721168,688.565693" stroke="purple" stroke-dasharray="10,10" stroke-dashoffset="0" stroke-width="6" /><circle cx="447.72116803090887" cy="688.5656933075759" fill="cyan" r="8" stroke="cyan" /><path d="M 447.721168,688.565693 A 144.381785,112.787854 -146.309932 0,1 360.526150,636.843099" stroke="cyan" stroke-dasharray="10,10" stroke-dashoffset="10" stroke-width="6" /><path d="M 447.721168,688.565693 A 144.381785,112.787854 -146.309932 0,1 360.526150,636.843099" stroke="purple" stroke-dasharray="10,10" stroke-dashoffset="0" stroke-width="6" /><circle cx="360.52615008878695" cy="636.8430994672782" fill="purple" r="8" stroke="purple" /><path d="M 360.526150,636.843099 A 205.209411,160.579894 -120.579227 0,1 313.357294,565.839323" stroke="cyan" stroke-dasharray="10,10" stroke-dashoffset="10" stroke-width="6" /><path d="M 360.526150,636.843099 A 205.209411,160.579894 -120.579227 0,1 313.357294,565.839323" stroke="red" stroke-dasharray="10,10" stroke-dashoffset="0" stroke-width="6" /><circle cx="313.35729362611886" cy="565.8393234065297" fill="blue" r="8" stroke="blue" /><path d="M 313.357294,565.839323 A 163.978354,127.529999 -104.036243 0,1 301.783287,430.609471" stroke="blue" stroke-dasharray="10,10" stroke-dashoffset="10" stroke-width="6" /><path d="M 313.357294,565.839323 A 163.978354,127.529999 -104.036243 0,1 301.783287,430.609471" stroke="red" stroke-dasharray="10,10" stroke-dashoffset="0" stroke-width="6" /><circle cx="301.78328734816824" cy="430.6094712550494" fill="purple" r="8" stroke="purple" /><path d="M 301.783287,430.609471 A 110.827625,92.643200 -80.537678 0,1 314.876875,400.000000" stroke="purple" stroke-dasharray="10,10" stroke-dashoffset="10" stroke-width="6" /><path d="M 301.783287,430.609471 A 110.827625,92.643200 -80.537678 0,1 314.876875,400.000000" stroke="red" stroke-dasharray="10,10" stroke-dashoffset="0" stroke-width="6" /><circle cx="314.8768752164159" cy="400.0" fill="red" r="8" stroke="red" /><path d="M 314.876875,400.000000 A 210.827625,169.553200 -28.610460 0,1 415.375794,307.687897" stroke="purple" stroke-dasharray="10,10" stroke-dashoffset="10" stroke-width="6" /><path d="M 314.876875,400.000000 A 210.827625,169.553200 -28.610460 0,1 415.375794,307.687897" stroke="orange" stroke-dasharray="10,10" stroke-dashoffset="0" stroke-width="6" /><circle cx="415.37579408180574" cy="307.6878970409029" fill="orange" r="8" stroke="orange" /><path d="M 415.375794,307.687897 A 266.729325,210.522048 -12.339087 0,1 415.386237,307.682579" stroke="purple" stroke-dasharray="10,10" stroke-dashoffset="10" stroke-width="6" /><path d="M 415.375794,307.687897 A 266.729325,210.522048 -12.339087 0,1 415.386237,307.682579" stroke="yellow" stroke-dasharray="10,10" stroke-dashoffset="0" stroke-width="6" /><circle cx="415.3862367808037" cy="307.68257931517786" fill="red" r="8" stroke="red" /><path d="M 427.213781,236.717313 A 255.901699,205.817103 9.462322 0,1 776.288445,343.196177" stroke="red" stroke-dasharray="10,10" stroke-dashoffset="10" stroke-width="6" /><path d="M 427.213781,236.717313 A 255.901699,205.817103 9.462322 0,1 776.288445,343.196177" stroke="yellow" stroke-dasharray="10,10" stroke-dashoffset="0" stroke-width="6" /><circle cx="776.2884453322866" cy="343.1961765347987" fill="yellow" r="8" stroke="yellow" /><path d="M 776.288445,343.196177 A 298.913326,264.809698 25.641006 0,1 801.097793,394.085172" stroke="red" stroke-dasharray="10,10" stroke-dashoffset="10" stroke-width="6" /><path d="M 776.288445,343.196177 A 298.913326,264.809698 25.641006 0,1 801.097793,394.085172" stroke="green" stroke-dasharray="10,10" stroke-dashoffset="0" stroke-width="6" /><circle cx="801.0977934290355" cy="394.0851721424704" fill="green" r="8" stroke="green" /><path d="M 801.097793,394.085172 A 377.015823,354.705414 59.420773 0,1 803.235738,400.000000" stroke="red" stroke-dasharray="10,10" stroke-dashoffset="10" stroke-width="6" /><path d="M 801.097793,394.085172 A 377.015823,354.705414 59.420773 0,1 803.235738,400.000000" stroke="cyan" stroke-dasharray="10,10" stroke-dashoffset="0" stroke-width="6" /><circle cx="803.2357379135727" cy="400.0" fill="orange" r="8" stroke="orange" /><path d="M 803.235738,400.000000 A 277.015823,251.818915 107.650124 0,1 818.881248,509.440624" stroke="orange" stroke-dasharray="10,10" stroke-dashoffset="10" stroke-width="6" /><path d="M 803.235738,400.000000 A 277.015823,251.818915 107.650124 0,1 818.881248,509.440624" stroke="cyan" stroke-dasharray="10,10" stroke-dashoffset="0" stroke-width="6" /><circle cx="818.8812478134939" cy="509.440623906747" fill="yellow" r="8" stroke="yellow" /><path d="M 818.881248,509.440624 A 221.114123,185.584093 135.000000 0,1 739.792403,672.448101" stroke="yellow" stroke-dasharray="10,10" stroke-dashoffset="10" stroke-width="6" /><path d="M 818.881248,509.440624 A 221.114123,185.584093 135.000000 0,1 739.792403,672.448101" stroke="cyan" stroke-dasharray="10,10" stroke-dashoffset="0" stroke-width="6" /><circle cx="739.7924030962822" cy="672.4481007740706" fill="cyan" r="8" stroke="cyan" /><path d="M 739.792403,672.448101 A 262.345179,218.116925 149.036243 0,1 582.480411,751.406184" stroke="yellow" stroke-dasharray="10,10" stroke-dashoffset="10" stroke-width="6" /><path d="M 739.792403,672.448101 A 262.345179,218.116925 149.036243 0,1 582.480411,751.406184" stroke="blue" stroke-dasharray="10,10" stroke-dashoffset="0" stroke-width="6" /><circle cx="582.480410620913" cy="751.4061835667576" fill="blue" r="8" stroke="blue" /><path d="M 582.480411,751.406184 A 315.495908,269.652866 167.660913 0,1 482.166756,754.966542" stroke="yellow" stroke-dasharray="10,10" stroke-dashoffset="10" stroke-width="6" /><path d="M 582.480411,751.406184 A 315.495908,269.652866 167.660913 0,1 482.166756,754.966542" stroke="purple" stroke-dasharray="10,10" stroke-dashoffset="0" stroke-width="6" /><circle cx="482.1667559587178" cy="754.9665416577952" fill="green" r="8" stroke="green" /><path d="M 482.166756,754.966542 A 272.484282,236.691115 180.000000 0,1 394.997964,732.501697" stroke="green" stroke-dasharray="10,10" stroke-dashoffset="10" stroke-width="6" /><path d="M 482.166756,754.966542 A 272.484282,236.691115 180.000000 0,1 394.997964,732.501697" stroke="purple" stroke-dasharray="10,10" stroke-dashoffset="0" stroke-width="6" /><circle cx="394.99796418390486" cy="732.5016965134126" fill="cyan" r="8" stroke="cyan" /><path d="M 394.997964,732.501697 A 194.381785,172.218694 -146.309932 0,1 349.020313,705.878123" stroke="cyan" stroke-dasharray="10,10" stroke-dashoffset="10" stroke-width="6" /><path d="M 394.997964,732.501697 A 194.381785,172.218694 -146.309932 0,1 349.020313,705.878123" stroke="purple" stroke-dasharray="10,10" stroke-dashoffset="0" stroke-width="6" /><circle cx="349.0203127508508" cy="705.8781234948951" fill="purple" r="8" stroke="purple" /><path d="M 349.020313,705.878123 A 255.209411,220.922709 -120.579227 0,1 243.849996,548.462499" stroke="cyan" stroke-dasharray="10,10" stroke-dashoffset="10" stroke-width="6" /><path d="M 349.020313,705.878123 A 255.209411,220.922709 -120.579227 0,1 243.849996,548.462499" stroke="red" stroke-dasharray="10,10" stroke-dashoffset="0" stroke-width="6" /><circle cx="243.84999593035104" cy="548.4624989825878" fill="blue" r="8" stroke="blue" /><path d="M 243.849996,548.462499 A 213.978354,187.514629 -104.036243 0,1 252.866440,400.000000" stroke="blue" stroke-dasharray="10,10" stroke-dashoffset="10" stroke-width="6" /><path d="M 243.849996,548.462499 A 213.978354,187.514629 -104.036243 0,1 252.866440,400.000000" stroke="red" stroke-dasharray="10,10" stroke-dashoffset="0" stroke-width="6" /><circle cx="252.8664395959701" cy="400.0" fill="red" r="8" stroke="red" /><path d="M 252.866440,400.000000 A 313.978354,288.023275 -53.130102 0,1 260.391471,383.304538" stroke="blue" stroke-dasharray="10,10" stroke-dashoffset="10" stroke-width="6" /><path d="M 252.866440,400.000000 A 313.978354,288.023275 -53.130102 0,1 260.391471,383.304538" stroke="orange" stroke-dasharray="10,10" stroke-dashoffset="0" stroke-width="6" /><circle cx="260.39147059873096" cy="383.30453782712107" fill="purple" r="8" stroke="purple" /><path d="M 260.391471,383.304538 A 260.827625,228.759809 -28.610460 0,1 352.705336,276.352668" stroke="purple" stroke-dasharray="10,10" stroke-dashoffset="10" stroke-width="6" /><path d="M 260.391471,383.304538 A 260.827625,228.759809 -28.610460 0,1 352.705336,276.352668" stroke="orange" stroke-dasharray="10,10" stroke-dashoffset="0" stroke-width="6" /><circle cx="352.7053363464907" cy="276.3526681732454" fill="orange" r="8" stroke="orange" /><path d="M 352.705336,276.352668 A 316.729325,271.094938 -12.339087 0,1 427.213781,236.717313" stroke="purple" stroke-dasharray="10,10" stroke-dashoffset="10" stroke-width="6" /><path d="M 352.705336,276.352668 A 316.729325,271.094938 -12.339087 0,1 427.213781,236.717313" stroke="yellow" stroke-dasharray="10,10" stroke-dashoffset="0" stroke-width="6" /><circle cx="427.21378119756173" cy="236.71731281462974" fill="red" r="8" stroke="red" /><path d="M 447.827922,113.032467 A 355.901699,321.777904 9.462322 0,1 842.360346,250.695515" stroke="red" stroke-dasharray="10,10" stroke-dashoffset="10" stroke-width="6" /><path d="M 447.827922,113.032467 A 355.901699,321.777904 9.462322 0,1 842.360346,250.695515" stroke="yellow" stroke-dasharray="10,10" stroke-dashoffset="0" stroke-width="6" /><circle cx="842.3603461855325" cy="250.69551534025433" fill="yellow" r="8" stroke="yellow" /><path d="M 842.360346,250.695515 A 398.913326,374.041230 25.641006 0,1 885.426875,323.810938" stroke="red" stroke-dasharray="10,10" stroke-dashoffset="10" stroke-width="6" /><path d="M 842.360346,250.695515 A 398.913326,374.041230 25.641006 0,1 885.426875,323.810938" stroke="green" stroke-dasharray="10,10" stroke-dashoffset="0" stroke-width="6" /><circle cx="885.4268749247001" cy="323.8109375627499" fill="green" r="8" stroke="green" /><path d="M 885.426875,323.810938 A 477.015823,459.585786 59.420773 0,1 912.648018,400.000000" stroke="red" stroke-dasharray="10,10" stroke-dashoffset="10" stroke-width="6" /><path d="M 885.426875,323.810938 A 477.015823,459.585786 59.420773 0,1 912.648018,400.000000" stroke="cyan" stroke-dasharray="10,10" stroke-dashoffset="0" stroke-width="6" /><circle cx="912.6480183400631" cy="399.99999999999994" fill="orange" r="8" stroke="orange" /><path d="M 912.648018,400.000000 A 377.015823,358.909362 107.650124 0,1 920.823501,560.411750" stroke="orange" stroke-dasharray="10,10" stroke-dashoffset="10" stroke-width="6" /><path d="M 912.648018,400.000000 A 377.015823,358.909362 107.650124 0,1 920.823501,560.411750" stroke="cyan" stroke-dasharray="10,10" stroke-dashoffset="0" stroke-width="6" /><circle cx="920.8235008829334" cy="560.4117504414668" fill="yellow" r="8" stroke="yellow" /><path d="M 920.823501,560.411750 A 321.114123,297.765478 135.000000 0,1 861.769209,702.942302" stroke="yellow" stroke-dasharray="10,10" stroke-dashoffset="10" stroke-width="6" /><path d="M 920.823501,560.411750 A 321.114123,297.765478 135.000000 0,1 861.769209,702.942302" stroke="cyan" stroke-dasharray="10,10" stroke-dashoffset="0" stroke-width="6" /><circle cx="861.7692093266295" cy="702.9423023316574" fill="cyan" r="8" stroke="cyan" /><path d="M 861.769209,702.942302 A 362.345179,331.728849 149.036243 0,1 665.363470,846.129680" stroke="yellow" stroke-dasharray="10,10" stroke-dashoffset="10" stroke-width="6" /><path d="M 861.769209,702.942302 A 362.345179,331.728849 149.036243 0,1 665.363470,846.129680" stroke="blue" stroke-dasharray="10,10" stroke-dashoffset="0" stroke-width="6" /><circle cx="665.3634701202341" cy="846.1296801374103" fill="blue" r="8" stroke="blue" /><path d="M 665.363470,846.129680 A 415.495908,381.853178 167.660913 0,1 411.746668,853.554665" stroke="yellow" stroke-dasharray="10,10" stroke-dashoffset="10" stroke-width="6" /><path d="M 665.363470,846.129680 A 415.495908,381.853178 167.660913 0,1 411.746668,853.554665" stroke="purple" stroke-dasharray="10,10" stroke-dashoffset="0" stroke-width="6" /><circle cx="411.7466678285672" cy="853.5546650400061" fill="green" r="8" stroke="green" /><path d="M 411.746668,853.554665 A 372.484282,347.159244 180.000000 0,1 329.798866,821.206803" stroke="green" stroke-dasharray="10,10" stroke-dashoffset="10" stroke-width="6" /><path d="M 411.746668,853.554665 A 372.484282,347.159244 180.000000 0,1 329.798866,821.206803" stroke="purple" stroke-dasharray="10,10" stroke-dashoffset="0" stroke-width="6" /><circle cx="329.7988661792922" cy="821.2068029242467" fill="purple" r="8" stroke="purple" /><path d="M 329.798866,821.206803 A 433.311907,410.529182 -154.358994 0,1 305.381471,807.182108" stroke="green" stroke-dasharray="10,10" stroke-dashoffset="10" stroke-width="6" /><path d="M 329.798866,821.206803 A 433.311907,410.529182 -154.358994 0,1 305.381471,807.182108" stroke="red" stroke-dasharray="10,10" stroke-dashoffset="0" stroke-width="6" /><circle cx="305.3814705115164" cy="807.1821079070696" fill="cyan" r="8" stroke="cyan" /><path d="M 305.381471,807.182108 A 355.209411,331.434346 -120.579227 0,1 128.566981,519.641745" stroke="cyan" stroke-dasharray="10,10" stroke-dashoffset="10" stroke-width="6" /><path d="M 305.381471,807.182108 A 355.209411,331.434346 -120.579227 0,1 128.566981,519.641745" stroke="red" stroke-dasharray="10,10" stroke-dashoffset="0" stroke-width="6" /><circle cx="128.566980875235" cy="519.6417452188089" fill="blue" r="8" stroke="blue" /><path d="M 128.566981,519.641745 A 313.978354,296.576140 -104.036243 0,1 140.522054,400.000000" stroke="blue" stroke-dasharray="10,10" stroke-dashoffset="10" stroke-width="6" /><path d="M 128.566981,519.641745 A 313.978354,296.576140 -104.036243 0,1 140.522054,400.000000" stroke="red" stroke-dasharray="10,10" stroke-dashoffset="0" stroke-width="6" /><circle cx="140.522054350249" cy="400.0" fill="red" r="8" stroke="red" /><path d="M 140.522054,400.000000 A 413.978354,394.655645 -53.130102 0,1 185.733406,297.981035" stroke="blue" stroke-dasharray="10,10" stroke-dashoffset="10" stroke-width="6" /><path d="M 140.522054,400.000000 A 413.978354,394.655645 -53.130102 0,1 185.733406,297.981035" stroke="orange" stroke-dasharray="10,10" stroke-dashoffset="0" stroke-width="6" /><circle cx="185.7334059420487" cy="297.98103536234134" fill="purple" r="8" stroke="purple" /><path d="M 185.733406,297.981035 A 360.827625,338.373426 -28.610460 0,1 245.979090,222.989545" stroke="purple" stroke-dasharray="10,10" stroke-dashoffset="10" stroke-width="6" /><path d="M 185.733406,297.981035 A 360.827625,338.373426 -28.610460 0,1 245.979090,222.989545" stroke="orange" stroke-dasharray="10,10" stroke-dashoffset="0" stroke-width="6" /><circle cx="245.97908964400318" cy="222.9895448220016" fill="orange" r="8" stroke="orange" /><path d="M 245.979090,222.989545 A 416.729325,383.194898 -12.339087 0,1 447.827922,113.032467" stroke="purple" stroke-dasharray="10,10" stroke-dashoffset="10" stroke-width="6" /><path d="M 245.979090,222.989545 A 416.729325,383.194898 -12.339087 0,1 447.827922,113.032467" stroke="yellow" stroke-dasharray="10,10" stroke-dashoffset="0" stroke-width="6" /><circle cx="447.8279221593548" cy="113.03246704387146" fill="red" r="8" stroke="red" /></g></svg>