<?xml version="1.0" encoding="utf-8" ?>
<svg baseProfile="full" height="1000" version="1.1" width="1000" xmlns="http://www.w3.org/2000/svg" xmlns:ev="http://www.w3.org/2001/xml-events" xmlns:xlink="http://www.w3.org/1999/xlink"><defs /><circle cx="400" cy="400" fill="red" r="5" stroke="red" stroke-width="2" /><circle cx="600" cy="400" fill="orange" r="5" stroke="orange" stroke-width="2" /><circle cx="700" cy="450" fill="yellow" r="5" stroke="yellow" stroke-width="2" /><circle cx="650" cy="520" fill="green" r="5" stroke="green" stroke-width="2" /><circle cx="530" cy="620" fill="cyan" r="5" stroke="cyan" stroke-width="2" /><circle cx="450" cy="600" fill="blue" r="5" stroke="blue" stroke-width="2" /><circle cx="380" cy="520" fill="purple" r="5" stroke="purple" stroke-width="2" /><g fill="none"><path d="M 404.545954,372.724275 A 112.500000,51.538820 0.000000 0,1 496.960000,348.480000" stroke="red" stroke-dasharray="10,10" stroke-dashoffset="10" stroke-width="6" /><path d="M 404.545954,372.724275 A 112.500000,51.538820 0.000000 0,1 496.960000,348.480000" stroke="orange" stroke-dasharray="10,10" stroke-dashoffset="0" stroke-width="6" /><circle cx="496.9599999064651" cy="348.47999995323255" fill="orange" r="8" stroke="orange" /><path d="M 496.960000,348.480000 A 168.401699,72.347304 9.462322 0,1 684.437445,400.000000" stroke="red" stroke-dasharray="10,10" stroke-dashoffset="10" stroke-width="6" /><path d="M 496.960000,348.480000 A 168.401699,72.347304 9.462322 0,1 684.437445,400.000000" stroke="yellow" stroke-dasharray="10,10" stroke-dashoffset="0" stroke-width="6" /><circle cx="684.4374450965876" cy="400.00000000000006" fill="orange" r="8" stroke="orange" /><path d="M 684.437445,400.000000 A 68.401699,39.418175 26.565051 0,1 711.710585,433.605180" stroke="orange" stroke-dasharray="10,10" stroke-dashoffset="10" stroke-width="6" /><path d="M 684.437445,400.000000 A 68.401699,39.418175 26.565051 0,1 711.710585,433.605180" stroke="yellow" stroke-dasharray="10,10" stroke-dashoffset="0" stroke-width="6" /><circle cx="711.7105854336265" cy="433.6051803929228" fill="yellow" r="8" stroke="yellow" /><path d="M 711.710585,433.605180 A 111.413326,90.487177 67.380135 0,1 717.703736,458.851868" stroke="orange" stroke-dasharray="10,10" stroke-dashoffset="10" stroke-width="6" /><path d="M 711.710585,433.605180 A 111.413326,90.487177 67.380135 0,1 717.703736,458.851868" stroke="green" stroke-dasharray="10,10" stroke-dashoffset="0" stroke-width="6" /><circle cx="717.7037360426377" cy="458.85186802131886" fill="yellow" r="8" stroke="yellow" /><path d="M 717.703736,458.851868 A 55.511626,35.093314 125.537678 0,1 718.066203,463.278164" stroke="yellow" stroke-dasharray="10,10" stroke-dashoffset="10" stroke-width="6" /><path d="M 717.703736,458.851868 A 55.511626,35.093314 125.537678 0,1 718.066203,463.278164" stroke="green" stroke-dasharray="10,10" stroke-dashoffset="0" stroke-width="6" /><circle cx="718.0662028769092" cy="463.2781642692423" fill="green" r="8" stroke="green" /><path d="M 718.066203,463.278164 A 133.614123,58.332957 135.000000 0,1 575.997631,631.499408" stroke="yellow" stroke-dasharray="10,10" stroke-dashoffset="10" stroke-width="6" /><path d="M 718.066203,463.278164 A 133.614123,58.332957 135.000000 0,1 575.997631,631.499408" stroke="cyan" stroke-dasharray="10,10" stroke-dashoffset="0" stroke-width="6" /><circle cx="575.9976310035969" cy="631.4994077508992" fill="cyan" r="8" stroke="cyan" /><path d="M 575.997631,631.499408 A 174.845179,96.544481 149.036243 0,1 568.377688,634.271236" stroke="yellow" stroke-dasharray="10,10" stroke-dashoffset="10" stroke-width="6" /><path d="M 575.997631,631.499408 A 174.845179,96.544481 149.036243 0,1 568.377688,634.271236" stroke="blue" stroke-dasharray="10,10" stroke-dashoffset="0" stroke-width="6" /><circle cx="568.3776883361058" cy="634.2712363294518" fill="green" r="8" stroke="green" /><path d="M 568.377688,634.271236 A 131.833553,76.026875 158.198591 0,1 498.987300,645.843916" stroke="green" stroke-dasharray="10,10" stroke-dashoffset="10" stroke-width="6" /><path d="M 568.377688,634.271236 A 131.833553,76.026875 158.198591 0,1 498.987300,645.843916" stroke="blue" stroke-dasharray="10,10" stroke-dashoffset="0" stroke-width="6" /><circle cx="498.98730026241344" cy="645.8439164479888" fill="cyan" r="8" stroke="cyan" /><path d="M 498.987300,645.843916 A 53.731056,34.453250 -165.963757 0,1 489.348514,644.969730" stroke="cyan" stroke-dasharray="10,10" stroke-dashoffset="10" stroke-width="6" /><path d="M 498.987300,645.843916 A 53.731056,34.453250 -165.963757 0,1 489.348514,644.969730" stroke="blue" stroke-dasharray="10,10" stroke-dashoffset="0" stroke-width="6" /><circle cx="489.34851381357225" cy="644.969730072654" fill="blue" r="8" stroke="blue" /><path d="M 489.348514,644.969730 A 106.881785,57.434450 -146.309932 0,1 384.497656,583.624414" stroke="cyan" stroke-dasharray="10,10" stroke-dashoffset="10" stroke-width="6" /><path d="M 489.348514,644.969730 A 106.881785,57.434450 -146.309932 0,1 384.497656,583.624414" stroke="purple" stroke-dasharray="10,10" stroke-dashoffset="0" stroke-width="6" /><circle cx="384.49765573006914" cy="583.6244139325173" fill="blue" r="8" stroke="blue" /><path d="M 384.497656,583.624414 A 65.650729,38.535934 -131.185925 0,1 372.358572,565.848567" stroke="blue" stroke-dasharray="10,10" stroke-dashoffset="10" stroke-width="6" /><path d="M 384.497656,583.624414 A 65.650729,38.535934 -131.185925 0,1 372.358572,565.848567" stroke="purple" stroke-dasharray="10,10" stroke-dashoffset="0" stroke-width="6" /><circle cx="372.3585722074772" cy="565.8485667551365" fill="purple" r="8" stroke="purple" /><path d="M 372.358572,565.848567 A 126.478354,73.292388 -104.036243 0,1 348.229734,483.691124" stroke="blue" stroke-dasharray="10,10" stroke-dashoffset="10" stroke-width="6" /><path d="M 372.358572,565.848567 A 126.478354,73.292388 -104.036243 0,1 348.229734,483.691124" stroke="red" stroke-dasharray="10,10" stroke-dashoffset="0" stroke-width="6" /><circle cx="348.22973360640987" cy="483.6911241216113" fill="purple" r="8" stroke="purple" /><path d="M 348.229734,483.691124 A 73.327625,40.950466 -80.537678 0,1 373.519603,400.000000" stroke="purple" stroke-dasharray="10,10" stroke-dashoffset="10" stroke-width="6" /><path d="M 348.229734,483.691124 A 73.327625,40.950466 -80.537678 0,1 373.519603,400.000000" stroke="red" stroke-dasharray="10,10" stroke-dashoffset="0" stroke-width="6" /><circle cx="373.51960341870597" cy="400.0" fill="red" r="8" stroke="red" /><path d="M 373.519603,400.000000 A 173.327625,119.760034 -28.610460 0,1 404.545954,372.724275" stroke="purple" stroke-dasharray="10,10" stroke-dashoffset="10" stroke-width="6" /><path d="M 373.519603,400.000000 A 173.327625,119.760034 -28.610460 0,1 404.545954,372.724275" stroke="orange" stroke-dasharray="10,10" stroke-dashoffset="0" stroke-width="6" /><circle cx="404.5459540876902" cy="372.7242754738587" fill="red" r="8" stroke="red" /><path d="M 408.518270,348.890377 A 125.000000,75.000000 0.000000 0,1 458.505689,329.252845" stroke="red" stroke-dasharray="10,10" stroke-dashoffset="10" stroke-width="6" /><path d="M 408.518270,348.890377 A 125.000000,75.000000 0.000000 0,1 458.505689,329.252845" stroke="orange" stroke-dasharray="10,10" stroke-dashoffset="0" stroke-width="6" /><circle cx="458.50568935451594" cy="329.25284467725794" fill="orange" r="8" stroke="orange" /><path d="M 458.505689,329.252845 A 180.901699,97.981758 9.462322 0,1 710.676275,400.000000" stroke="red" stroke-dasharray="10,10" stroke-dashoffset="10" stroke-width="6" /><path d="M 458.505689,329.252845 A 180.901699,97.981758 9.462322 0,1 710.676275,400.000000" stroke="yellow" stroke-dasharray="10,10" stroke-dashoffset="0" stroke-width="6" /><circle cx="710.6762745781211" cy="400.00000000000006" fill="orange" r="8" stroke="orange" /><path d="M 710.676275,400.000000 A 80.901699,58.481493 26.565051 0,1 722.181187,418.946338" stroke="orange" stroke-dasharray="10,10" stroke-dashoffset="10" stroke-width="6" /><path d="M 710.676275,400.000000 A 80.901699,58.481493 26.565051 0,1 722.181187,418.946338" stroke="yellow" stroke-dasharray="10,10" stroke-dashoffset="0" stroke-width="6" /><circle cx="722.1811869060598" cy="418.9463383315163" fill="yellow" r="8" stroke="yellow" /><path d="M 722.181187,418.946338 A 123.913326,105.496504 67.380135 0,1 731.655127,451.954061" stroke="orange" stroke-dasharray="10,10" stroke-dashoffset="10" stroke-width="6" /><path d="M 722.181187,418.946338 A 123.913326,105.496504 67.380135 0,1 731.655127,451.954061" stroke="green" stroke-dasharray="10,10" stroke-dashoffset="0" stroke-width="6" /><circle cx="731.6551268499857" cy="451.9540609583453" fill="green" r="8" stroke="green" /><path d="M 731.655127,451.954061 A 202.015823,165.787191 107.650124 0,1 733.514614,466.757307" stroke="orange" stroke-dasharray="10,10" stroke-dashoffset="10" stroke-width="6" /><path d="M 731.655127,451.954061 A 202.015823,165.787191 107.650124 0,1 733.514614,466.757307" stroke="cyan" stroke-dasharray="10,10" stroke-dashoffset="0" stroke-width="6" /><circle cx="733.514613515585" cy="466.7573067577925" fill="yellow" r="8" stroke="yellow" /><path d="M 733.514614,466.757307 A 146.114123,83.062248 135.000000 0,1 609.429637,639.857409" stroke="yellow" stroke-dasharray="10,10" stroke-dashoffset="10" stroke-width="6" /><path d="M 733.514614,466.757307 A 146.114123,83.062248 135.000000 0,1 609.429637,639.857409" stroke="cyan" stroke-dasharray="10,10" stroke-dashoffset="0" stroke-width="6" /><circle cx="609.4296370531956" cy="639.8574092632989" fill="cyan" r="8" stroke="cyan" /><path d="M 609.429637,639.857409 A 187.345179,117.678444 149.036243 0,1 549.999013,660.001382" stroke="yellow" stroke-dasharray="10,10" stroke-dashoffset="10" stroke-width="6" /><path d="M 609.429637,639.857409 A 187.345179,117.678444 149.036243 0,1 549.999013,660.001382" stroke="blue" stroke-dasharray="10,10" stroke-dashoffset="0" stroke-width="6" /><circle cx="549.9990129389131" cy="660.0013818855217" fill="green" r="8" stroke="green" /><path d="M 549.999013,660.001382 A 144.333553,96.084205 158.198591 0,1 505.987149,663.985313" stroke="green" stroke-dasharray="10,10" stroke-dashoffset="10" stroke-width="6" /><path d="M 549.999013,660.001382 A 144.333553,96.084205 158.198591 0,1 505.987149,663.985313" stroke="blue" stroke-dasharray="10,10" stroke-dashoffset="0" stroke-width="6" /><circle cx="505.9871485011247" cy="663.985312572714" fill="blue" r="8" stroke="blue" /><path d="M 505.987149,663.985313 A 197.484282,144.135498 180.000000 0,1 479.806136,661.828220" stroke="green" stroke-dasharray="10,10" stroke-dashoffset="10" stroke-width="6" /><path d="M 505.987149,663.985313 A 197.484282,144.135498 180.000000 0,1 479.806136,661.828220" stroke="purple" stroke-dasharray="10,10" stroke-dashoffset="0" stroke-width="6" /><circle cx="479.8061357301435" cy="661.8282202248804" fill="cyan" r="8" stroke="cyan" /><path d="M 479.806136,661.828220 A 119.381785,78.275224 -146.309932 0,1 367.774612,593.352329" stroke="cyan" stroke-dasharray="10,10" stroke-dashoffset="10" stroke-width="6" /><path d="M 479.806136,661.828220 A 119.381785,78.275224 -146.309932 0,1 367.774612,593.352329" stroke="purple" stroke-dasharray="10,10" stroke-dashoffset="0" stroke-width="6" /><circle cx="367.77461176277455" cy="593.3523294233526" fill="purple" r="8" stroke="purple" /><path d="M 367.774612,593.352329 A 180.209411,127.084349 -120.579227 0,1 356.815439,576.703860" stroke="cyan" stroke-dasharray="10,10" stroke-dashoffset="10" stroke-width="6" /><path d="M 367.774612,593.352329 A 180.209411,127.084349 -120.579227 0,1 356.815439,576.703860" stroke="red" stroke-dasharray="10,10" stroke-dashoffset="0" stroke-width="6" /><circle cx="356.8154387143543" cy="576.7038596785886" fill="blue" r="8" stroke="blue" /><path d="M 356.815439,576.703860 A 138.978354,93.220078 -104.036243 0,1 328.911816,461.613504" stroke="blue" stroke-dasharray="10,10" stroke-dashoffset="10" stroke-width="6" /><path d="M 356.815439,576.703860 A 138.978354,93.220078 -104.036243 0,1 328.911816,461.613504" stroke="red" stroke-dasharray="10,10" stroke-dashoffset="0" stroke-width="6" /><circle cx="328.9118160629914" cy="461.6135040719902" fill="purple" r="8" stroke="purple" /><path d="M 328.911816,461.613504 A 85.827625,60.550650 -80.537678 0,1 351.648476,400.000000" stroke="purple" stroke-dasharray="10,10" stroke-dashoffset="10" stroke-width="6" /><path d="M 328.911816,461.613504 A 85.827625,60.550650 -80.537678 0,1 351.648476,400.000000" stroke="red" stroke-dasharray="10,10" stroke-dashoffset="0" stroke-width="6" /><circle cx="351.64847573032307" cy="400.0" fill="red" r="8" stroke="red" /><path d="M 351.648476,400.000000 A 185.827625,137.229393 -28.610460 0,1 408.518270,348.890377" stroke="purple" stroke-dasharray="10,10" stroke-dashoffset="10" stroke-width="6" /><path d="M 351.648476,400.000000 A 185.827625,137.229393 -28.610460 0,1 408.518270,348.890377" stroke="orange" stroke-dasharray="10,10" stroke-dashoffset="0" stroke-width="6" /><circle cx="408.51827045828986" cy="348.89037725026066" fill="red" r="8" stroke="red" /><path d="M 415.386237,307.682579 A 205.901699,138.818262 9.462322 0,1 741.066907,392.506330" stroke="red" stroke-dasharray="10,10" stroke-dashoffset="10" stroke-width="6" /><path d="M 415.386237,307.682579 A 205.901699,138.818262 9.462322 0,1 741.066907,392.506330" stroke="yellow" stroke-dasharray="10,10" stroke-dashoffset="0" stroke-width="6" /><circle cx="741.0669072826595" cy="392.5063298042767" fill="yellow" r="8" stroke="yellow" /><path d="M 741.066907,392.506330 A 248.913326,206.719239 25.641006 0,1 744.860760,400.000000" stroke="red" stroke-dasharray="10,10" stroke-dashoffset="10" stroke-width="6" /><path d="M 741.066907,392.506330 A 248.913326,206.719239 25.641006 0,1 744.860760,400.000000" stroke="green" stroke-dasharray="10,10" stroke-dashoffset="0" stroke-width="6" /><circle cx="744.8607603803189" cy="399.9999999999999" fill="orange" r="8" stroke="orange" /><path d="M 744.860760,400.000000 A 148.913326,133.978277 67.380135 0,1 756.313651,431.405291" stroke="orange" stroke-dasharray="10,10" stroke-dashoffset="10" stroke-width="6" /><path d="M 744.860760,400.000000 A 148.913326,133.978277 67.380135 0,1 756.313651,431.405291" stroke="green" stroke-dasharray="10,10" stroke-dashoffset="0" stroke-width="6" /><circle cx="756.3136513644725" cy="431.4052905296062" fill="green" r="8" stroke="green" /><path d="M 756.313651,431.405291 A 227.015823,195.476811 107.650124 0,1 763.427373,481.713686" stroke="orange" stroke-dasharray="10,10" stroke-dashoffset="10" stroke-width="6" /><path d="M 756.313651,431.405291 A 227.015823,195.476811 107.650124 0,1 763.427373,481.713686" stroke="cyan" stroke-dasharray="10,10" stroke-dashoffset="0" stroke-width="6" /><circle cx="763.427372526515" cy="481.7136862632575" fill="yellow" r="8" stroke="yellow" /><path d="M 763.427373,481.713686 A 171.114123,121.778664 135.000000 0,1 661.669984,652.917496" stroke="yellow" stroke-dasharray="10,10" stroke-dashoffset="10" stroke-width="6" /><path d="M 763.427373,481.713686 A 171.114123,121.778664 135.000000 0,1 661.669984,652.917496" stroke="cyan" stroke-dasharray="10,10" stroke-dashoffset="0" stroke-width="6" /><circle cx="661.6699843504036" cy="652.917496087601" fill="cyan" r="8" stroke="cyan" /><path d="M 661.669984,652.917496 A 212.345179,154.403611 149.036243 0,1 534.188405,696.215320" stroke="yellow" stroke-dasharray="10,10" stroke-dashoffset="10" stroke-width="6" /><path d="M 661.669984,652.917496 A 212.345179,154.403611 149.036243 0,1 534.188405,696.215320" stroke="blue" stroke-dasharray="10,10" stroke-dashoffset="0" stroke-width="6" /><circle cx="534.1884051061514" cy="696.2153201213159" fill="blue" r="8" stroke="blue" /><path d="M 534.188405,696.215320 A 265.495908,208.957119 167.660913 0,1 523.780345,696.707517" stroke="yellow" stroke-dasharray="10,10" stroke-dashoffset="10" stroke-width="6" /><path d="M 534.188405,696.215320 A 265.495908,208.957119 167.660913 0,1 523.780345,696.707517" stroke="purple" stroke-dasharray="10,10" stroke-dashoffset="0" stroke-width="6" /><circle cx="523.7803450947908" cy="696.707516867293" fill="green" r="8" stroke="green" /><path d="M 523.780345,696.707517 A 222.484282,176.845288 180.000000 0,1 447.721168,688.565693" stroke="green" stroke-dasharray="10,10" stroke-dashoffset="10" stroke-width="6" /><path d="M 523.780345,696.707517 A 222.484282,176.845288 180.000000 0,1 447.721168,688.565693" stroke="purple" stroke-dasharray="10,10" stroke-dashoffset="0" stroke-width="6" /><circle cx="447.72116803090887" cy="688.5656933075759" fill="cyan" r="8" stroke="cyan" /><path d="M 447.721168,688.565693 A 144.381785,112.787854 -146.309932 0,1 360.526150,636.843099" stroke="cyan" stroke-dasharray="10,10" stroke-dashoffset="10" stroke-width="6" /><path d="M 447.721168,688.565693 A 144.381785,112.787854 -146.309932 0,1 360.526150,636.843099" stroke="purple" stroke-dasharray="10,10" stroke-dashoffset="0" stroke-width="6" /><circle cx="360.52615008878695" cy="636.8430994672782" fill="purple" r="8" stroke="purple" /><path d="M 360.526150,636.843099 A 205.209411,160.579894 -120.579227 0,1 313.357294,565.839323" stroke="cyan" stroke-dasharray="10,10" stroke-dashoffset="10" stroke-width="6" /><path d="M 360.526150,636.843099 A 205.209411,160.579894 -120.579227 0,1 313.357294,565.839323" stroke="red" stroke-dasharray="10,10" stroke-dashoffset="0" stroke-width="6" /><circle cx="313.35729362611886" cy="565.8393234065297" fill="blue" r="8" stroke="blue" /><path d="M 313.357294,565.839323 A 163.978354,127.529999 -104.036243 0,1 301.783287,430.609471" stroke="blue" stroke-dasharray="10,10" stroke-dashoffset="10" stroke-width="6" /><path d="M 313.357294,565.839323 A 163.978354,127.529999 -104.036243 0,1 301.783287,430.609471" stroke="red" stroke-dasharray="10,10" stroke-dashoffset="0" stroke-width="6" /><circle cx="301.78328734816824" cy="430.6094712550494" fill="purple" r="8" stroke="purple" /><path d="M 301.783287,430.609471 A 110.827625,92.643200 -80.537678 0,1 314.876875,400.000000" stroke="purple" stroke-dasharray="10,10" stroke-dashoffset="10" stroke-width="6" /><path d="M 301.783287,430.609471 A 110.827625,92.643200 -80.537678 0,1 314.876875,400.000000" stroke="red" stroke-dasharray="10,10" stroke-dashoffset="0" stroke-width="6" /><circle cx="314.8768752164159" cy="400.0" fill="red" r="8" stroke="red" /><path d="M 314.876875,400.000000 A 210.827625,169.553200 -28.610460 0,1 415.375794,307.687897" stroke="purple" stroke-dasharray="10,10" stroke-dashoffset="10" stroke-width="6" /><path d="M 314.876875,400.000000 A 210.827625,169.553200 -28.610460 0,1 415.375794,307.687897" stroke="orange" stroke-dasharray="10,10" stroke-dashoffset="0" stroke-width="6" /><circle cx="415.37579408180574" cy="307.6878970409029" fill="orange" r="8" stroke="orange" /><path d="M 415.375794,307.687897 A 266.729325,210.522048 -12.339087 0,1 415.386237,307.682579" stroke="purple" stroke-dasharray="10,10" stroke-dashoffset="10" stroke-width="6" /><path d="M 415.375794,307.687897 A 266.729325,210.522048 -12.339087 0,1 415.386237,307.682579" stroke="yellow" stroke-dasharray="10,10" stroke-dashoffset="0" stroke-width="6" /><circle cx="415.3862367808037" cy="307.68257931517786" fill="red" r="8" stroke="red" /><path d="M 427.213781,236.717313 A 255.901699,205.817103 9.462322 0,1 776.288445,343.196177" stroke="red" stroke-dasharray="10,10" stroke-dashoffset="10" stroke-width="6" /><path d="M 427.213781,236.717313 A 255.901699,205.817103 9.462322 0,1 776.288445,343.196177" stroke="yellow" stroke-dasharray="10,10" stroke-dashoffset="0" stroke-width="6" /><circle cx="776.2884453322866" cy="343.1961765347987" fill="yellow" r="8" stroke="yellow" /><path d="M 776.288445,343.196177 A 298.913326,264.809698 25.641006 0,1 801.097793,394.085172" stroke="red" stroke-dasharray="10,10" stroke-dashoffset="10" stroke-width="6" /><path d="M 776.288445,343.196177 A 298.913326,264.809698 25.641006 0,1 801.097793,394.085172" stroke="green" stroke-dasharray="10,10" stroke-dashoffset="0" stroke-width="6" /><circle cx="801.0977934290355" cy="394.0851721424704" fill="green" r="8" stroke="green" /><path d="M 801.097793,394.085172 A 377.015823,354.705414 59.420773 0,1 803.235738,400.000000" stroke="red" stroke-dasharray="10,10" stroke-dashoffset="10" stroke-width="6" /><path d="M 801.097793,394.085172 A 377.015823,354.705414 59.420773 0,1 803.235738,400.000000" stroke="cyan" stroke-dasharray="10,10" stroke-dashoffset="0" stroke-width="6" /><circle cx="803.2357379135727" cy="400.0" fill="orange" r="8" stroke="orange" /><path d="M 803.235738,400.000000 A 277.015823,251.818915 107.650124 0,1 818.881248,509.440624" stroke="orange" stroke-dasharray="10,10" stroke-dashoffset="10" stroke-width="6" /><path d="M 803.235738,400.000000 A 277.015823,251.818915 107.650124 0,1 818.881248,509.440624" stroke="cyan" stroke-dasharray="10,10" stroke-dashoffset="0" stroke-width="6" /><circle cx="818.8812478134939" cy="509.440623906747" fill="yellow" r="8" stroke="yellow" /><path d="M 818.881248,509.440624 A 221.114123,185.584093 135.000000 0,1 739.792403,672.448101" stroke="yellow" stroke-dasharray="10,10" stroke-dashoffset="10" stroke-width="6" /><path d="M 818.881248,509.440624 A 221.114123,185.584093 135.000000 0,1 739.792403,672.448101" stroke="cyan" stroke-dasharray="10,10" stroke-dashoffset="0" stroke-width="6" /><circle cx="739.7924030962822" cy="672.4481007740706" fill="cyan" r="8" stroke="cyan" /><path d="M 739.792403,672.448101 A 262.345179,218.116925 149.036243 0,1 582.480411,751.406184" stroke="yellow" stroke-dasharray="10,10" stroke-dashoffset="10" stroke-width="6" /><path d="M 739.792403,672.448101 A 262.345179,218.116925 149.036243 0,1 582.480411,751.406184" stroke="blue" stroke-dasharray="10,10" stroke-dashoffset="0" stroke-width="6" /><circle cx="582.480410620913" cy="751.4061835667576" fill="blue" r="8" stroke="blue" /><path d="M 582.480411,751.406184 A 315.495908,269.652866 167.660913 0,1 482.166756,754.966542" stroke="yellow" stroke-dasharray="10,10" stroke-dashoffset="10" stroke-width="6" /><path d="M 582.480411,751.406184 A 315.495908,269.652866 167.660913 0,1 482.166756,754.966542" stroke="purple" stroke-dasharray="10,10" stroke-dashoffset="0" stroke-width="6" /><circle cx="482.1667559587178" cy="754.9665416577952" fill="green" r="8" stroke="green" /><path d="M 482.166756,754.966542 A 272.484282,236.691115 180.000000 0,1 394.997964,732.501697" stroke="green" stroke-dasharray="10,10" stroke-dashoffset="10" stroke-width="6" /><path d="M 482.166756,754.966542 A 272.484282,236.691115 180.000000 0,1 394.997964,732.501697" stroke="purple" stroke-dasharray="10,10" stroke-dashoffset="0" stroke-width="6" /><circle cx="394.99796418390486" cy="732.5016965134126" fill="cyan" r="8" stroke="cyan" /><path d="M 394.997964,732.501697 A 194.381785,172.218694 -146.309932 0,1 349.020313,705.878123" stroke="cyan" stroke-dasharray="10,10" stroke-dashoffset="10" stroke-width="6" /><path d="M 394.997964,732.501697 A 194.381785,172.218694 -146.309932 0,1 349.020313,705.878123" stroke="purple" stroke-dasharray="10,10" stroke-dashoffset="0" stroke-width="6" /><circle cx="349.0203127508508" cy="705.8781234948951" fill="purple" r="8" stroke="purple" /><path d="M 349.020313,705.878123 A 255.209411,220.922709 -120.579227 0,1 243.849996,548.462499" stroke="cyan" stroke-dasharray="10,10" stroke-dashoffset="10" stroke-width="6" /><path d="M 349.020313,705.878123 A 255.209411,220.922709 -120.579227 0,1 243.849996,548.462499" stroke="red" stroke-dasharray="10,10" stroke-dashoffset="0" stroke-width="6" /><circle cx="243.84999593035104" cy="548.4624989825878" fill="blue" r="8" stroke="blue" /><path d="M 243.849996,548.462499 A 213.978354,187.514629 -104.036243 0,1 252.866440,400.000000" stroke="blue" stroke-dasharray="10,10" stroke-dashoffset="10" stroke-width="6" /><path d="M 243.849996,548.462499 A 213.978354,187.514629 -104.036243 0,1 252.866440,400.000000" stroke="red" stroke-dasharray="10,10" stroke-dashoffset="0" stroke-width="6" /><circle cx="252.8664395959701" cy="400.0" fill="red" r="8" stroke="red" /><path d="M 252.866440,400.000000 A 313.978354,288.023275 -53.130102 0,1 260.391471,383.304538" stroke="blue" stroke-dasharray="10,10" stroke-dashoffset="10" stroke-width="6" /><path d="M 252.866440,400.000000 A 313.978354,288.023275 -53.130102 0,1 260.391471,383.304538" stroke="orange" stroke-dasharray="10,10" stroke-dashoffset="0" stroke-width="6" /><circle cx="260.39147059873096" cy="383.30453782712107" fill="purple" r="8" stroke="purple" /><path d="M 260.391471,383.304538 A 260.827625,228.759809 -28.610460 0,1 352.705336,276.352668" stroke="purple" stroke-dasharray="10,10" stroke-dashoffset="10" stroke-width="6" /><path d="M 260.391471,383.304538 A 260.827625,228.759809 -28.610460 0,1 352.705336,276.352668" stroke="orange" stroke-dasharray="10,10" stroke-dashoffset="0" stroke-width="6" /><circle cx="352.7053363464907" cy="276.3526681732454" fill="orange" r="8" stroke="orange" /><path d="M 352.705336,276.352668 A 316.729325,271.094938 -12.339087 0,1 427.213781,236.717313" stroke="purple" stroke-dasharray="10,10" stroke-dashoffset="10" stroke-width="6" /><path d="M 352.705336,276.352668 A 316.729325,271.094938 -12.339087 0,1 427.213781,236.717313" stroke="yellow" stroke-dasharray="10,10" stroke-dashoffset="0" stroke-width="6" /><circle cx="427.21378119756173" cy="236.71731281462974" fill="red" r="8" stroke="red" /><path d="M 447.827922,113.032467 A 355.901699,321.777904 9.462322 0,1 842.360346,250.695515" stroke="red" stroke-dasharray="10,10" stroke-dashoffset="10" stroke-width="6" /><path d="M 447.827922,113.032467 A 355.901699,321.777904 9.462322 0,1 842.360346,250.695515" stroke="yellow" stroke-dasharray="10,10" stroke-dashoffset="0" stroke-width="6" /><circle cx="842.3603461855325" cy="250.69551534025433" fill="yellow" r="8" stroke="yellow" /><path d="M 842.360346,250.695515 A 398.913326,374.041230 25.641006 0,1 885.426875,323.810938" stroke="red" stroke-dasharray="10,10" stroke-dashoffset="10" stroke-width="6" /><path d="M 842.360346,250.695515 A 398.913326,374.041230 25.641006 0,1 885.426875,323.810938" stroke="green" stroke-dasharray="10,10" stroke-dashoffset="0" stroke-width="6" /><circle cx="885.4268749247001" cy="323.8109375627499" fill="green" r="8" stroke="green" /><path d="M 885.426875,323.810938 A 477.015823,459.585786 59.420773 0,1 912.648018,400.000000" stroke="red" stroke-dasharray="10,10" stroke-dashoffset="10" stroke-width="6" /><path d="M 885.426875,323.810938 A 477.015823,459.585786 59.420773 0,1 912.648018,400.000000" stroke="cyan" stroke-dasharray="10,10" stroke-dashoffset="0" stroke-width="6" /><circle cx="912.6480183400631" cy="399.99999999999994" fill="orange" r="8" stroke="orange" /><path d="M 912.648018,400.000000 A 377.015823,358.909362 107.650124 0,1 920.823501,560.411750" stroke="orange" stroke-dasharray="10,10" stroke-dashoffset="10" stroke-width="6" /><path d="M 912.648018,400.000000 A 377.015823,358.909362 107.650124 0,1 920.823501,560.411750" stroke="cyan" stroke-dasharray="10,10" stroke-dashoffset="0" stroke-width="6" /><circle cx="920.8235008829334" cy="560.4117504414668" fill="yellow" r="8" stroke="yellow" /><path d="M 920.823501,560.411750 A 321.114123,297.765478 135.000000 0,1 861.769209,702.942302" stroke="yellow" stroke-dasharray="10,10" stroke-dashoffset="10" stroke-width="6" /><path d="M 920.823501,560.411750 A 321.114123,297.765478 135.000000 0,1 861.769209,702.942302" stroke="cyan" stroke-dasharray="10,10" stroke-dashoffset="0" stroke-width="6" /><circle cx="861.7692093266295" cy="702.9423023316574" fill="cyan" r="8" stroke="cyan" /><path d="M 861.769209,702.942302 A 362.345179,331.728849 149.036243 0,1 665.363470,846.129680" stroke="yellow" stroke-dasharray="10,10" stroke-dashoffset="10" stroke-width="6" /><path d="M 861.769209,702.942302 A 362.345179,331.728849 149.036243 0,1 665.363470,846.129680" stroke="blue" stroke-dasharray="10,10" stroke-dashoffset="0" stroke-width="6" /><circle cx="665.3634701202341" cy="846.1296801374103" fill="blue" r="8" stroke="blue" /><path d="M 665.363470,846.129680 A 415.495908,381.853178 167.660913 0,1 411.746668,853.554665" stroke="yellow" stroke-dasharray="10,10" stroke-dashoffset="10" stroke-width="6" /><path d="M 665.363470,846.129680 A 415.495908,381.853178 167.660913 0,1 411.746668,853.554665" stroke="purple" stroke-dasharray="10,10" stroke-dashoffset="0" stroke-width="6" /><circle cx="411.7466678285672" cy="853.5546650400061" fill="green" r="8" stroke="green" /><path d="M 411.746668,853.554665 A 372.484282,347.159244 180.000000 0,1 329.798866,821.206803" stroke="green" stroke-dasharray="10,10" stroke-dashoffset="10" stroke-width="6" /><path d="M 411.746668,853.554665 A 372.484282,347.159244 180.000000 0,1 329.798866,821.206803" stroke="purple" stroke-dasharray="10,10" stroke-dashoffset="0" stroke-width="6" /><circle cx="329.7988661792922" cy="821.2068029242467" fill="purple" r="8" stroke="purple" /><path d="M 329.798866,821.206803 A 433.311907,410.529182 -154.358994 0,1 305.381471,807.182108" stroke="green" stroke-dasharray="10,10" stroke-dashoffset="10" stroke-width="6" /><path d="M 329.798866,821.206803 A 433.311907,410.529182 -154.358994 0,1 305.381471,807.182108" stroke="red" stroke-dasharray="10,10" stroke-dashoffset="0" stroke-width="6" /><circle cx="305.3814705115164" cy="807.1821079070696" fill="cyan" r="8" stroke="cyan" /><path d="M 305.381471,807.182108 A 355.209411,331.434346 -120.579227 0,1 128.566981,519.641745" stroke="cyan" stroke-dasharray="10,10" stroke-dashoffset="10" stroke-width="6" /><path d="M 305.381471,807.182108 A 355.209411,331.434346 -120.579227 0,1 128.566981,519.641745" stroke="red" stroke-dasharray="10,10" stroke-dashoffset="0" stroke-width="6" /><circle cx="128.566980875235" cy="519.6417452188089" fill="blue" r="8" stroke="blue" /><path d="M 128.566981,519.641745 A 313.978354,296.576140 -104.036243 0,1 140.522054,400.000000" stroke="blue" stroke-dasharray="10,10" stroke-dashoffset="10" stroke-width="6" /><path d="M 128.566981,519.641745 A 313.978354,296.576140 -104.036243 0,1 140.522054,400.000000" stroke="red" stroke-dasharray="10,10" stroke-dashoffset="0" stroke-width="6" /><circle cx="140.522054350249" cy="400.0" fill="red" r="8" stroke="red" /><path d="M 140.522054,400.000000 A 413.978354,394.655645 -53.130102 0,1 185.733406,297.981035" stroke="blue" stroke-dasharray="10,10" stroke-dashoffset="10" stroke-width="6" /><path d="M 140.522054,400.000000 A 413.978354,394.655645 -53.130102 0,1 185.733406,297.981035" stroke="orange" stroke-dasharray="10,10" stroke-dashoffset="0" stroke-width="6" /><circle cx="185.7334059420487" cy="297.98103536234134" fill="purple" r="8" stroke="purple" /><path d="M 185.733406,297.981035 A 360.827625,338.373426 -28.610460 0,1 245.979090,222.989545" stroke="purple" stroke-dasharray="10,10" stroke-dashoffset="10" stroke-width="6" /><path d="M 185.733406,297.981035 A 360.827625,338.373426 -28.610460 0,1 245.979090,222.989545" stroke="orange" stroke-dasharray="10,10" stroke-dashoffset="0" stroke-width="6" /><circle cx="245.97908964400318" cy="222.9895448220016" fill="orange" r="8" stroke="orange" /><path d="M 245.979090,222.989545 A 416.729325,383.194898 -12.339087 0,1 447.827922,113.032467" stroke="purple" stroke-dasharray="10,10" stroke-dashoffset="10" stroke-width="6" /><path d="M 245.979090,222.989545 A 416.729325,383.194898 -12.339087 0,1 447.827922,113.032467" stroke="yellow" stroke-dasharray="10,10" stroke-dashoffset="0" stroke-width="6" /><circle cx="447.8279221593548" cy="113.03246704387146" fill="red" r="8" stroke="red" /></g></svg>