<?xml version="1.0" encoding="utf-8" ?>
<svg baseProfile="full" height="1000" version="1.1" width="1000" xmlns="http://www.w3.org/2000/svg" xmlns:ev="http://www.w3.org/2001/xml-events" xmlns:xlink="http://www.w3.org/1999/xlink"><defs /><circle cx="400" cy="400" fill="red" r="5" stroke="red" stroke-width="2" /><circle cx="600" cy="400" fill="orange" r="5" stroke="orange" stroke-width="2" /><circle cx="650" cy="450" fill="yellow" r="5" stroke="yellow" stroke-width="2" /><circle cx="650" cy="520" fill="green" r="5" stroke="green" stroke-width="2" /><circle cx="530" cy="620" fill="cyan" r="5" stroke="cyan" stroke-width="2" /><circle cx="450" cy="600" fill="blue" r="5" stroke="blue" stroke-width="2" /><circle cx="380" cy="520" fill="purple" r="5" stroke="purple" stroke-width="2" /><g fill="none"><path d="M 415.386237,307.682579 A 150.000000,111.803399 0.000000 0,1 488.524273,288.524273" stroke="red" stroke-dasharray="10,10" stroke-dashoffset="10" stroke-width="6" /><path d="M 415.386237,307.682579 A 150.000000,111.803399 0.000000 0,1 488.524273,288.524273" stroke="orange" stroke-dasharray="10,10" stroke-dashoffset="0" stroke-width="6" /><circle cx="488.5242734442985" cy="288.5242734442985" fill="orange" r="8" stroke="orange" /><path d="M 488.524273,288.524273 A 185.355339,134.560773 11.309932 0,1 650.000000,337.084510" stroke="red" stroke-dasharray="10,10" stroke-dashoffset="10" stroke-width="6" /><path d="M 488.524273,288.524273 A 185.355339,134.560773 11.309932 0,1 650.000000,337.084510" stroke="yellow" stroke-dasharray="10,10" stroke-dashoffset="0" stroke-width="6" /><circle cx="650.0" cy="337.0845097892298" fill="yellow" r="8" stroke="yellow" /><path d="M 650.000000,337.084510 A 220.355339,171.264344 25.641006 0,1 707.601816,400.000000" stroke="red" stroke-dasharray="10,10" stroke-dashoffset="10" stroke-width="6" /><path d="M 650.000000,337.084510 A 220.355339,171.264344 25.641006 0,1 707.601816,400.000000" stroke="green" stroke-dasharray="10,10" stroke-dashoffset="0" stroke-width="6" /><circle cx="707.6018159161692" cy="399.9999999999999" fill="orange" r="8" stroke="orange" /><path d="M 707.601816,400.000000 A 120.355339,101.293670 67.380135 0,1 727.926629,455.061143" stroke="orange" stroke-dasharray="10,10" stroke-dashoffset="10" stroke-width="6" /><path d="M 707.601816,400.000000 A 120.355339,101.293670 67.380135 0,1 727.926629,455.061143" stroke="green" stroke-dasharray="10,10" stroke-dashoffset="0" stroke-width="6" /><circle cx="727.9266289756711" cy="455.0611425202742" fill="green" r="8" stroke="green" /><path d="M 727.926629,455.061143 A 198.457836,161.432688 107.650124 0,1 726.715400,526.715400" stroke="orange" stroke-dasharray="10,10" stroke-dashoffset="10" stroke-width="6" /><path d="M 727.926629,455.061143 A 198.457836,161.432688 107.650124 0,1 726.715400,526.715400" stroke="cyan" stroke-dasharray="10,10" stroke-dashoffset="0" stroke-width="6" /><circle cx="726.715400183882" cy="526.715400183882" fill="yellow" r="8" stroke="yellow" /><path d="M 726.715400,526.715400 A 163.102497,125.608218 125.217593 0,1 651.953741,650.488435" stroke="yellow" stroke-dasharray="10,10" stroke-dashoffset="10" stroke-width="6" /><path d="M 726.715400,526.715400 A 163.102497,125.608218 125.217593 0,1 651.953741,650.488435" stroke="cyan" stroke-dasharray="10,10" stroke-dashoffset="0" stroke-width="6" /><circle cx="651.9537410675356" cy="650.4884352668839" fill="cyan" r="8" stroke="cyan" /><path d="M 651.953741,650.488435 A 204.333553,161.639107 143.130102 0,1 650.000000,652.014097" stroke="yellow" stroke-dasharray="10,10" stroke-dashoffset="10" stroke-width="6" /><path d="M 651.953741,650.488435 A 204.333553,161.639107 143.130102 0,1 650.000000,652.014097" stroke="blue" stroke-dasharray="10,10" stroke-dashoffset="0" stroke-width="6" /><circle cx="650.0" cy="652.0140967189996" fill="green" r="8" stroke="green" /><path d="M 650.000000,652.014097 A 169.333553,130.666951 158.198591 0,1 534.164485,696.187983" stroke="green" stroke-dasharray="10,10" stroke-dashoffset="10" stroke-width="6" /><path d="M 650.000000,652.014097 A 169.333553,130.666951 158.198591 0,1 534.164485,696.187983" stroke="blue" stroke-dasharray="10,10" stroke-dashoffset="0" stroke-width="6" /><circle cx="534.164484786925" cy="696.1879826136285" fill="blue" r="8" stroke="blue" /><path d="M 534.164485,696.187983 A 222.484282,176.845288 180.000000 0,1 447.721168,688.565693" stroke="green" stroke-dasharray="10,10" stroke-dashoffset="10" stroke-width="6" /><path d="M 534.164485,696.187983 A 222.484282,176.845288 180.000000 0,1 447.721168,688.565693" stroke="purple" stroke-dasharray="10,10" stroke-dashoffset="0" stroke-width="6" /><circle cx="447.721168030909" cy="688.5656933075759" fill="cyan" r="8" stroke="cyan" /><path d="M 447.721168,688.565693 A 144.381785,112.787854 -146.309932 0,1 360.526150,636.843099" stroke="cyan" stroke-dasharray="10,10" stroke-dashoffset="10" stroke-width="6" /><path d="M 447.721168,688.565693 A 144.381785,112.787854 -146.309932 0,1 360.526150,636.843099" stroke="purple" stroke-dasharray="10,10" stroke-dashoffset="0" stroke-width="6" /><circle cx="360.52615008878695" cy="636.8430994672782" fill="purple" r="8" stroke="purple" /><path d="M 360.526150,636.843099 A 205.209411,160.579894 -120.579227 0,1 313.357294,565.839323" stroke="cyan" stroke-dasharray="10,10" stroke-dashoffset="10" stroke-width="6" /><path d="M 360.526150,636.843099 A 205.209411,160.579894 -120.579227 0,1 313.357294,565.839323" stroke="red" stroke-dasharray="10,10" stroke-dashoffset="0" stroke-width="6" /><circle cx="313.35729362611886" cy="565.8393234065297" fill="blue" r="8" stroke="blue" /><path d="M 313.357294,565.839323 A 163.978354,127.529999 -104.036243 0,1 301.783287,430.609471" stroke="blue" stroke-dasharray="10,10" stroke-dashoffset="10" stroke-width="6" /><path d="M 313.357294,565.839323 A 163.978354,127.529999 -104.036243 0,1 301.783287,430.609471" stroke="red" stroke-dasharray="10,10" stroke-dashoffset="0" stroke-width="6" /><circle cx="301.78328734816824" cy="430.6094712550494" fill="purple" r="8" stroke="purple" /><path d="M 301.783287,430.609471 A 110.827625,92.643200 -80.537678 0,1 314.876875,400.000000" stroke="purple" stroke-dasharray="10,10" stroke-dashoffset="10" stroke-width="6" /><path d="M 301.783287,430.609471 A 110.827625,92.643200 -80.537678 0,1 314.876875,400.000000" stroke="red" stroke-dasharray="10,10" stroke-dashoffset="0" stroke-width="6" /><circle cx="314.8768752164159" cy="400.0" fill="red" r="8" stroke="red" /><path d="M 314.876875,400.000000 A 210.827625,169.553200 -28.610460 0,1 415.386237,307.682579" stroke="purple" stroke-dasharray="10,10" stroke-dashoffset="10" stroke-width="6" /><path d="M 314.876875,400.000000 A 210.827625,169.553200 -28.610460 0,1 415.386237,307.682579" stroke="orange" stroke-dasharray="10,10" stroke-dashoffset="0" stroke-width="6" /><circle cx="415.38623677119654" cy="307.6825793728208" fill="red" r="8" stroke="red" /></g></svg>