<?xml version="1.0" encoding="utf-8" ?>
<svg baseProfile="full" height="1000" version="1.1" width="1000" xmlns="http://www.w3.org/2000/svg" xmlns:ev="http://www.w3.org/2001/xml-events" xmlns:xlink="http://www.w3.org/1999/xlink"><defs /><circle cx="400" cy="400" fill="red" r="5" stroke="red" stroke-width="2" /><circle cx="600" cy="400" fill="orange" r="5" stroke="orange" stroke-width="2" /><circle cx="650" cy="450" fill="yellow" r="5" stroke="yellow" stroke-width="2" /><circle cx="650" cy="520" fill="green" r="5" stroke="green" stroke-width="2" /><circle cx="530" cy="620" fill="cyan" r="5" stroke="cyan" stroke-width="2" /><circle cx="450" cy="600" fill="blue" r="5" stroke="blue" stroke-width="2" /><circle cx="380" cy="520" fill="purple" r="5" stroke="purple" stroke-width="2" /><g fill="none"><path d="M 408.518270,348.890377 A 125.000000,75.000000 0.000000 0,1 526.735581,326.735581" stroke="red" stroke-dasharray="10,10" stroke-dashoffset="10" stroke-width="6" /><path d="M 408.518270,348.890377 A 125.000000,75.000000 0.000000 0,1 526.735581,326.735581" stroke="orange" stroke-dasharray="10,10" stroke-dashoffset="0" stroke-width="6" /><circle cx="526.7355806567726" cy="326.73558065677264" fill="orange" r="8" stroke="orange" /><path d="M 526.735581,326.735581 A 160.355339,97.282243 11.309932 0,1 650.000000,380.081555" stroke="red" stroke-dasharray="10,10" stroke-dashoffset="10" stroke-width="6" /><path d="M 526.735581,326.735581 A 160.355339,97.282243 11.309932 0,1 650.000000,380.081555" stroke="yellow" stroke-dasharray="10,10" stroke-dashoffset="0" stroke-width="6" /><circle cx="650.0" cy="380.08155547758804" fill="yellow" r="8" stroke="yellow" /><path d="M 650.000000,380.081555 A 195.355339,137.617980 25.641006 0,1 669.186515,400.000000" stroke="red" stroke-dasharray="10,10" stroke-dashoffset="10" stroke-width="6" /><path d="M 650.000000,380.081555 A 195.355339,137.617980 25.641006 0,1 669.186515,400.000000" stroke="green" stroke-dasharray="10,10" stroke-dashoffset="0" stroke-width="6" /><circle cx="669.1865145161852" cy="399.9999999999999" fill="orange" r="8" stroke="orange" /><path d="M 669.186515,400.000000 A 95.355339,69.768479 67.380135 0,1 699.106167,479.078194" stroke="orange" stroke-dasharray="10,10" stroke-dashoffset="10" stroke-width="6" /><path d="M 669.186515,400.000000 A 95.355339,69.768479 67.380135 0,1 699.106167,479.078194" stroke="green" stroke-dasharray="10,10" stroke-dashoffset="0" stroke-width="6" /><circle cx="699.1061671879405" cy="479.0781940100496" fill="green" r="8" stroke="green" /><path d="M 699.106167,479.078194 A 173.457836,129.470540 107.650124 0,1 698.426239,498.426239" stroke="orange" stroke-dasharray="10,10" stroke-dashoffset="10" stroke-width="6" /><path d="M 699.106167,479.078194 A 173.457836,129.470540 107.650124 0,1 698.426239,498.426239" stroke="cyan" stroke-dasharray="10,10" stroke-dashoffset="0" stroke-width="6" /><circle cx="698.4262391372866" cy="498.42623913728664" fill="yellow" r="8" stroke="yellow" /><path d="M 698.426239,498.426239 A 138.102497,90.814644 125.217593 0,1 650.000000,605.309074" stroke="yellow" stroke-dasharray="10,10" stroke-dashoffset="10" stroke-width="6" /><path d="M 698.426239,498.426239 A 138.102497,90.814644 125.217593 0,1 650.000000,605.309074" stroke="cyan" stroke-dasharray="10,10" stroke-dashoffset="0" stroke-width="6" /><circle cx="650.0" cy="605.3090742325569" fill="green" r="8" stroke="green" /><path d="M 650.000000,605.309074 A 103.102497,67.306202 140.194429 0,1 607.074895,639.268724" stroke="green" stroke-dasharray="10,10" stroke-dashoffset="10" stroke-width="6" /><path d="M 650.000000,605.309074 A 103.102497,67.306202 140.194429 0,1 607.074895,639.268724" stroke="cyan" stroke-dasharray="10,10" stroke-dashoffset="0" stroke-width="6" /><circle cx="607.0748952222386" cy="639.2687238055596" fill="cyan" r="8" stroke="cyan" /><path d="M 607.074895,639.268724 A 144.333553,96.084205 158.198591 0,1 505.987149,663.985313" stroke="green" stroke-dasharray="10,10" stroke-dashoffset="10" stroke-width="6" /><path d="M 607.074895,639.268724 A 144.333553,96.084205 158.198591 0,1 505.987149,663.985313" stroke="blue" stroke-dasharray="10,10" stroke-dashoffset="0" stroke-width="6" /><circle cx="505.98714850112464" cy="663.9853125727138" fill="blue" r="8" stroke="blue" /><path d="M 505.987149,663.985313 A 197.484282,144.135498 180.000000 0,1 479.806136,661.828220" stroke="green" stroke-dasharray="10,10" stroke-dashoffset="10" stroke-width="6" /><path d="M 505.987149,663.985313 A 197.484282,144.135498 180.000000 0,1 479.806136,661.828220" stroke="purple" stroke-dasharray="10,10" stroke-dashoffset="0" stroke-width="6" /><circle cx="479.8061357301436" cy="661.8282202248804" fill="cyan" r="8" stroke="cyan" /><path d="M 479.806136,661.828220 A 119.381785,78.275224 -146.309932 0,1 367.774612,593.352329" stroke="cyan" stroke-dasharray="10,10" stroke-dashoffset="10" stroke-width="6" /><path d="M 479.806136,661.828220 A 119.381785,78.275224 -146.309932 0,1 367.774612,593.352329" stroke="purple" stroke-dasharray="10,10" stroke-dashoffset="0" stroke-width="6" /><circle cx="367.7746117627746" cy="593.3523294233524" fill="purple" r="8" stroke="purple" /><path d="M 367.774612,593.352329 A 180.209411,127.084349 -120.579227 0,1 356.815439,576.703860" stroke="cyan" stroke-dasharray="10,10" stroke-dashoffset="10" stroke-width="6" /><path d="M 367.774612,593.352329 A 180.209411,127.084349 -120.579227 0,1 356.815439,576.703860" stroke="red" stroke-dasharray="10,10" stroke-dashoffset="0" stroke-width="6" /><circle cx="356.8154387143544" cy="576.7038596785886" fill="blue" r="8" stroke="blue" /><path d="M 356.815439,576.703860 A 138.978354,93.220078 -104.036243 0,1 328.911816,461.613504" stroke="blue" stroke-dasharray="10,10" stroke-dashoffset="10" stroke-width="6" /><path d="M 356.815439,576.703860 A 138.978354,93.220078 -104.036243 0,1 328.911816,461.613504" stroke="red" stroke-dasharray="10,10" stroke-dashoffset="0" stroke-width="6" /><circle cx="328.9118160629914" cy="461.61350407199023" fill="purple" r="8" stroke="purple" /><path d="M 328.911816,461.613504 A 85.827625,60.550650 -80.537678 0,1 351.648476,400.000000" stroke="purple" stroke-dasharray="10,10" stroke-dashoffset="10" stroke-width="6" /><path d="M 328.911816,461.613504 A 85.827625,60.550650 -80.537678 0,1 351.648476,400.000000" stroke="red" stroke-dasharray="10,10" stroke-dashoffset="0" stroke-width="6" /><circle cx="351.6484757303231" cy="400.0" fill="red" r="8" stroke="red" /><path d="M 351.648476,400.000000 A 185.827625,137.229393 -28.610460 0,1 408.518270,348.890377" stroke="purple" stroke-dasharray="10,10" stroke-dashoffset="10" stroke-width="6" /><path d="M 351.648476,400.000000 A 185.827625,137.229393 -28.610460 0,1 408.518270,348.890377" stroke="orange" stroke-dasharray="10,10" stroke-dashoffset="0" stroke-width="6" /><circle cx="408.51827045828986" cy="348.8903772502608" fill="red" r="8" stroke="red" /></g></svg>