<?xml version="1.0" encoding="utf-8" ?>
<svg baseProfile="full" height="1000" version="1.1" width="1000" xmlns="http://www.w3.org/2000/svg" xmlns:ev="http://www.w3.org/2001/xml-events" xmlns:xlink="http://www.w3.org/1999/xlink"><defs /><circle cx="400" cy="400" fill="red" r="5" stroke="red" stroke-width="2" /><circle cx="600" cy="400" fill="orange" r="5" stroke="orange" stroke-width="2" /><circle cx="700" cy="450" fill="yellow" r="5" stroke="yellow" stroke-width="2" /><circle cx="650" cy="520" fill="green" r="5" stroke="green" stroke-width="2" /><circle cx="530" cy="620" fill="cyan" r="5" stroke="cyan" stroke-width="2" /><circle cx="450" cy="600" fill="blue" r="5" stroke="blue" stroke-width="2" /><circle cx="380" cy="520" fill="purple" r="5" stroke="purple" stroke-width="2" /><path d="M 404.545954,372.724275 A 112.500000,51.538820 0.000000 0,1 496.960000,348.480000" fill="none" stroke="red" stroke-dasharray="10,10" stroke-dashoffset="10" stroke-width="6" /><path d="M 404.545954,372.724275 A 112.500000,51.538820 0.000000 0,1 496.960000,348.480000" fill="none" stroke="orange" stroke-dasharray="10,10" stroke-dashoffset="0" stroke-width="6" /><line fill="orange" stroke="orange" stroke-linecap="round" stroke-width="6" x1="505.904271816" x2="488.015727996" y1="352.952135908" y2="344.007863998" /><path d="M 496.960000,348.480000 A 168.401699,72.347304 9.462322 0,1 684.437445,400.000000" fill="none" stroke="red" stroke-dasharray="10,10" stroke-dashoffset="10" stroke-width="6" /><path d="M 496.960000,348.480000 A 168.401699,72.347304 9.462322 0,1 684.437445,400.000000" fill="none" stroke="yellow" stroke-dasharray="10,10" stroke-dashoffset="0" stroke-width="6" /><line fill="orange" stroke="orange" stroke-linecap="round" stroke-width="6" x1="674.437445097" x2="694.437445097" y1="400.0" y2="400.0" /><path d="M 684.437445,400.000000 A 68.401699,39.418175 26.565051 0,1 711.710585,433.605180" fill="none" stroke="orange" stroke-dasharray="10,10" stroke-dashoffset="10" stroke-width="6" /><path d="M 684.437445,400.000000 A 68.401699,39.418175 26.565051 0,1 711.710585,433.605180" fill="none" stroke="yellow" stroke-dasharray="10,10" stroke-dashoffset="0" stroke-width="6" /><line fill="yellow" stroke="yellow" stroke-linecap="round" stroke-width="6" x1="705.898203496" x2="717.522967371" y1="441.742515105" y2="425.467845681" /><path d="M 711.710585,433.605180 A 111.413326,90.487177 67.380135 0,1 717.703736,458.851868" fill="none" stroke="orange" stroke-dasharray="10,10" stroke-dashoffset="10" stroke-width="6" /><path d="M 711.710585,433.605180 A 111.413326,90.487177 67.380135 0,1 717.703736,458.851868" fill="none" stroke="green" stroke-dasharray="10,10" stroke-dashoffset="0" stroke-width="6" /><line fill="yellow" stroke="yellow" stroke-linecap="round" stroke-width="6" x1="708.759464133" x2="726.648007953" y1="454.379732066" y2="463.324003976" /><path d="M 717.703736,458.851868 A 55.511626,35.093314 125.537678 0,1 718.066203,463.278164" fill="none" stroke="yellow" stroke-dasharray="10,10" stroke-dashoffset="10" stroke-width="6" /><path d="M 717.703736,458.851868 A 55.511626,35.093314 125.537678 0,1 718.066203,463.278164" fill="none" stroke="green" stroke-dasharray="10,10" stroke-dashoffset="0" stroke-width="6" /><line fill="green" stroke="green" stroke-linecap="round" stroke-width="6" x1="710.383990081" x2="725.748415673" y1="469.680008266" y2="456.876320273" /><path d="M 718.066203,463.278164 A 133.614123,58.332957 135.000000 0,1 575.997631,631.499408" fill="none" stroke="yellow" stroke-dasharray="10,10" stroke-dashoffset="10" stroke-width="6" /><path d="M 718.066203,463.278164 A 133.614123,58.332957 135.000000 0,1 575.997631,631.499408" fill="none" stroke="cyan" stroke-dasharray="10,10" stroke-dashoffset="0" stroke-width="6" /><line fill="cyan" stroke="cyan" stroke-linecap="round" stroke-width="6" x1="566.296206002" x2="585.699056005" y1="629.074051501" y2="633.924764001" /><path d="M 575.997631,631.499408 A 174.845179,96.544481 149.036243 0,1 568.377688,634.271236" fill="none" stroke="yellow" stroke-dasharray="10,10" stroke-dashoffset="10" stroke-width="6" /><path d="M 575.997631,631.499408 A 174.845179,96.544481 149.036243 0,1 568.377688,634.271236" fill="none" stroke="blue" stroke-dasharray="10,10" stroke-dashoffset="0" stroke-width="6" /><line fill="green" stroke="green" stroke-linecap="round" stroke-width="6" x1="574.190070273" x2="562.565306399" y1="626.133901617" y2="642.408571042" /><path d="M 568.377688,634.271236 A 131.833553,76.026875 158.198591 0,1 498.987300,645.843916" fill="none" stroke="green" stroke-dasharray="10,10" stroke-dashoffset="10" stroke-width="6" /><path d="M 568.377688,634.271236 A 131.833553,76.026875 158.198591 0,1 498.987300,645.843916" fill="none" stroke="blue" stroke-dasharray="10,10" stroke-dashoffset="0" stroke-width="6" /><line fill="cyan" stroke="cyan" stroke-linecap="round" stroke-width="6" x1="506.669513058" x2="491.305087466" y1="639.442072451" y2="652.245760445" /><path d="M 498.987300,645.843916 A 53.731056,34.453250 -165.963757 0,1 489.348514,644.969730" fill="none" stroke="cyan" stroke-dasharray="10,10" stroke-dashoffset="10" stroke-width="6" /><path d="M 498.987300,645.843916 A 53.731056,34.453250 -165.963757 0,1 489.348514,644.969730" fill="none" stroke="blue" stroke-dasharray="10,10" stroke-dashoffset="0" stroke-width="6" /><line fill="blue" stroke="blue" stroke-linecap="round" stroke-width="6" x1="482.763467735" x2="495.933559892" y1="637.443963126" y2="652.49549702" /><path d="M 489.348514,644.969730 A 106.881785,57.434450 -146.309932 0,1 384.497656,583.624414" fill="none" stroke="cyan" stroke-dasharray="10,10" stroke-dashoffset="10" stroke-width="6" /><path d="M 489.348514,644.969730 A 106.881785,57.434450 -146.309932 0,1 384.497656,583.624414" fill="none" stroke="purple" stroke-dasharray="10,10" stroke-dashoffset="0" stroke-width="6" /><line fill="blue" stroke="blue" stroke-linecap="round" stroke-width="6" x1="394.199080732" x2="374.796230729" y1="586.049770183" y2="581.199057682" /><path d="M 384.497656,583.624414 A 65.650729,38.535934 -131.185925 0,1 372.358572,565.848567" fill="none" stroke="blue" stroke-dasharray="10,10" stroke-dashoffset="10" stroke-width="6" /><path d="M 384.497656,583.624414 A 65.650729,38.535934 -131.185925 0,1 372.358572,565.848567" fill="none" stroke="purple" stroke-dasharray="10,10" stroke-dashoffset="0" stroke-width="6" /><line fill="purple" stroke="purple" stroke-linecap="round" stroke-width="6" x1="374.002562081" x2="370.714582334" y1="555.984627517" y2="575.712505993" /><path d="M 372.358572,565.848567 A 126.478354,73.292388 -104.036243 0,1 348.229734,483.691124" fill="none" stroke="blue" stroke-dasharray="10,10" stroke-dashoffset="10" stroke-width="6" /><path d="M 372.358572,565.848567 A 126.478354,73.292388 -104.036243 0,1 348.229734,483.691124" fill="none" stroke="red" stroke-dasharray="10,10" stroke-dashoffset="0" stroke-width="6" /><line fill="purple" stroke="purple" stroke-linecap="round" stroke-width="6" x1="354.814779685" x2="341.644687528" y1="491.216891069" y2="476.165357175" /><path d="M 348.229734,483.691124 A 73.327625,40.950466 -80.537678 0,1 373.519603,400.000000" fill="none" stroke="purple" stroke-dasharray="10,10" stroke-dashoffset="10" stroke-width="6" /><path d="M 348.229734,483.691124 A 73.327625,40.950466 -80.537678 0,1 373.519603,400.000000" fill="none" stroke="red" stroke-dasharray="10,10" stroke-dashoffset="0" stroke-width="6" /><line fill="red" stroke="red" stroke-linecap="round" stroke-width="6" x1="383.519603419" x2="363.519603419" y1="400.0" y2="400.0" /><path d="M 373.519603,400.000000 A 173.327625,119.760034 -28.610460 0,1 404.545954,372.724275" fill="none" stroke="purple" stroke-dasharray="10,10" stroke-dashoffset="10" stroke-width="6" /><path d="M 373.519603,400.000000 A 173.327625,119.760034 -28.610460 0,1 404.545954,372.724275" fill="none" stroke="orange" stroke-dasharray="10,10" stroke-dashoffset="0" stroke-width="6" /><line fill="red" stroke="red" stroke-linecap="round" stroke-width="6" x1="402.901964215" x2="406.189943961" y1="382.588214712" y2="362.860336236" /><path d="M 408.518270,348.890377 A 125.000000,75.000000 0.000000 0,1 458.505689,329.252845" fill="none" stroke="red" stroke-dasharray="10,10" stroke-dashoffset="10" stroke-width="6" /><path d="M 408.518270,348.890377 A 125.000000,75.000000 0.000000 0,1 458.505689,329.252845" fill="none" stroke="orange" stroke-dasharray="10,10" stroke-dashoffset="0" stroke-width="6" /><line fill="orange" stroke="orange" stroke-linecap="round" stroke-width="6" x1="467.449961265" x2="449.561417445" y1="333.724980632" y2="324.780708722" /><path d="M 458.505689,329.252845 A 180.901699,97.981758 9.462322 0,1 710.676275,400.000000" fill="none" stroke="red" stroke-dasharray="10,10" stroke-dashoffset="10" stroke-width="6" /><path d="M 458.505689,329.252845 A 180.901699,97.981758 9.462322 0,1 710.676275,400.000000" fill="none" stroke="yellow" stroke-dasharray="10,10" stroke-dashoffset="0" stroke-width="6" /><line fill="orange" stroke="orange" stroke-linecap="round" stroke-width="6" x1="700.676274578" x2="720.676274578" y1="400.0" y2="400.0" /><path d="M 710.676275,400.000000 A 80.901699,58.481493 26.565051 0,1 722.181187,418.946338" fill="none" stroke="orange" stroke-dasharray="10,10" stroke-dashoffset="10" stroke-width="6" /><path d="M 710.676275,400.000000 A 80.901699,58.481493 26.565051 0,1 722.181187,418.946338" fill="none" stroke="yellow" stroke-dasharray="10,10" stroke-dashoffset="0" stroke-width="6" /><line fill="yellow" stroke="yellow" stroke-linecap="round" stroke-width="6" x1="716.368804969" x2="727.993568843" y1="427.083673044" y2="410.809003619" /><path d="M 722.181187,418.946338 A 123.913326,105.496504 67.380135 0,1 731.655127,451.954061" fill="none" stroke="orange" stroke-dasharray="10,10" stroke-dashoffset="10" stroke-width="6" /><path d="M 722.181187,418.946338 A 123.913326,105.496504 67.380135 0,1 731.655127,451.954061" fill="none" stroke="green" stroke-dasharray="10,10" stroke-dashoffset="0" stroke-width="6" /><line fill="green" stroke="green" stroke-linecap="round" stroke-width="6" x1="723.972914054" x2="739.337339646" y1="458.355904955" y2="445.552216962" /><path d="M 731.655127,451.954061 A 202.015823,165.787191 107.650124 0,1 733.514614,466.757307" fill="none" stroke="orange" stroke-dasharray="10,10" stroke-dashoffset="10" stroke-width="6" /><path d="M 731.655127,451.954061 A 202.015823,165.787191 107.650124 0,1 733.514614,466.757307" fill="none" stroke="cyan" stroke-dasharray="10,10" stroke-dashoffset="0" stroke-width="6" /><line fill="yellow" stroke="yellow" stroke-linecap="round" stroke-width="6" x1="724.570341606" x2="742.458885426" y1="462.285170803" y2="471.229442713" /><path d="M 733.514614,466.757307 A 146.114123,83.062248 135.000000 0,1 609.429637,639.857409" fill="none" stroke="yellow" stroke-dasharray="10,10" stroke-dashoffset="10" stroke-width="6" /><path d="M 733.514614,466.757307 A 146.114123,83.062248 135.000000 0,1 609.429637,639.857409" fill="none" stroke="cyan" stroke-dasharray="10,10" stroke-dashoffset="0" stroke-width="6" /><line fill="cyan" stroke="cyan" stroke-linecap="round" stroke-width="6" x1="599.728212052" x2="619.131062055" y1="637.432053013" y2="642.282765514" /><path d="M 609.429637,639.857409 A 187.345179,117.678444 149.036243 0,1 549.999013,660.001382" fill="none" stroke="yellow" stroke-dasharray="10,10" stroke-dashoffset="10" stroke-width="6" /><path d="M 609.429637,639.857409 A 187.345179,117.678444 149.036243 0,1 549.999013,660.001382" fill="none" stroke="blue" stroke-dasharray="10,10" stroke-dashoffset="0" stroke-width="6" /><line fill="green" stroke="green" stroke-linecap="round" stroke-width="6" x1="555.811394876" x2="544.186631002" y1="651.864047173" y2="668.138716598" /><path d="M 549.999013,660.001382 A 144.333553,96.084205 158.198591 0,1 505.987149,663.985313" fill="none" stroke="green" stroke-dasharray="10,10" stroke-dashoffset="10" stroke-width="6" /><path d="M 549.999013,660.001382 A 144.333553,96.084205 158.198591 0,1 505.987149,663.985313" fill="none" stroke="blue" stroke-dasharray="10,10" stroke-dashoffset="0" stroke-width="6" /><line fill="blue" stroke="blue" stroke-linecap="round" stroke-width="6" x1="499.402102422" x2="512.57219458" y1="656.459545626" y2="671.51107952" /><path d="M 505.987149,663.985313 A 197.484282,144.135498 180.000000 0,1 479.806136,661.828220" fill="none" stroke="green" stroke-dasharray="10,10" stroke-dashoffset="10" stroke-width="6" /><path d="M 505.987149,663.985313 A 197.484282,144.135498 180.000000 0,1 479.806136,661.828220" fill="none" stroke="purple" stroke-dasharray="10,10" stroke-dashoffset="0" stroke-width="6" /><line fill="cyan" stroke="cyan" stroke-linecap="round" stroke-width="6" x1="487.488348526" x2="472.123922934" y1="655.426376228" y2="668.230064222" /><path d="M 479.806136,661.828220 A 119.381785,78.275224 -146.309932 0,1 367.774612,593.352329" fill="none" stroke="cyan" stroke-dasharray="10,10" stroke-dashoffset="10" stroke-width="6" /><path d="M 479.806136,661.828220 A 119.381785,78.275224 -146.309932 0,1 367.774612,593.352329" fill="none" stroke="purple" stroke-dasharray="10,10" stroke-dashoffset="0" stroke-width="6" /><line fill="purple" stroke="purple" stroke-linecap="round" stroke-width="6" x1="369.418601636" x2="366.13062189" y1="583.488390185" y2="603.216268662" /><path d="M 367.774612,593.352329 A 180.209411,127.084349 -120.579227 0,1 356.815439,576.703860" fill="none" stroke="cyan" stroke-dasharray="10,10" stroke-dashoffset="10" stroke-width="6" /><path d="M 367.774612,593.352329 A 180.209411,127.084349 -120.579227 0,1 356.815439,576.703860" fill="none" stroke="red" stroke-dasharray="10,10" stroke-dashoffset="0" stroke-width="6" /><line fill="blue" stroke="blue" stroke-linecap="round" stroke-width="6" x1="366.516863716" x2="347.114013713" y1="579.129215929" y2="574.278503428" /><path d="M 356.815439,576.703860 A 138.978354,93.220078 -104.036243 0,1 328.911816,461.613504" fill="none" stroke="blue" stroke-dasharray="10,10" stroke-dashoffset="10" stroke-width="6" /><path d="M 356.815439,576.703860 A 138.978354,93.220078 -104.036243 0,1 328.911816,461.613504" fill="none" stroke="red" stroke-dasharray="10,10" stroke-dashoffset="0" stroke-width="6" /><line fill="purple" stroke="purple" stroke-linecap="round" stroke-width="6" x1="335.496862142" x2="322.326769984" y1="469.139271019" y2="454.087737125" /><path d="M 328.911816,461.613504 A 85.827625,60.550650 -80.537678 0,1 351.648476,400.000000" fill="none" stroke="purple" stroke-dasharray="10,10" stroke-dashoffset="10" stroke-width="6" /><path d="M 328.911816,461.613504 A 85.827625,60.550650 -80.537678 0,1 351.648476,400.000000" fill="none" stroke="red" stroke-dasharray="10,10" stroke-dashoffset="0" stroke-width="6" /><line fill="red" stroke="red" stroke-linecap="round" stroke-width="6" x1="361.64847573" x2="341.64847573" y1="400.0" y2="400.0" /><path d="M 351.648476,400.000000 A 185.827625,137.229393 -28.610460 0,1 408.518270,348.890377" fill="none" stroke="purple" stroke-dasharray="10,10" stroke-dashoffset="10" stroke-width="6" /><path d="M 351.648476,400.000000 A 185.827625,137.229393 -28.610460 0,1 408.518270,348.890377" fill="none" stroke="orange" stroke-dasharray="10,10" stroke-dashoffset="0" stroke-width="6" /><line fill="red" stroke="red" stroke-linecap="round" stroke-width="6" x1="406.874280585" x2="410.162260331" y1="358.754316489" y2="339.026438012" /><path d="M 415.386237,307.682579 A 150.000000,111.803399 0.000000 0,1 415.375794,307.687897" fill="none" stroke="red" stroke-dasharray="10,10" stroke-dashoffset="10" stroke-width="6" /><path d="M 415.386237,307.682579 A 150.000000,111.803399 0.000000 0,1 415.375794,307.687897" fill="none" stroke="orange" stroke-dasharray="10,10" stroke-dashoffset="0" stroke-width="6" /><line fill="orange" stroke="orange" stroke-linecap="round" stroke-width="6" x1="424.320066177" x2="406.431522357" y1="312.160033089" y2="303.215761179" /><path d="M 415.375794,307.687897 A 205.901699,138.818262 9.462322 0,1 741.066907,392.506330" fill="none" stroke="red" stroke-dasharray="10,10" stroke-dashoffset="10" stroke-width="6" /><path d="M 415.375794,307.687897 A 205.901699,138.818262 9.462322 0,1 741.066907,392.506330" fill="none" stroke="yellow" stroke-dasharray="10,10" stroke-dashoffset="0" stroke-width="6" /><line fill="yellow" stroke="yellow" stroke-linecap="round" stroke-width="6" x1="735.254525345" x2="746.87928922" y1="400.643664516" y2="384.368995092" /><path d="M 741.066907,392.506330 A 248.913326,206.719239 25.641006 0,1 744.860760,400.000000" fill="none" stroke="red" stroke-dasharray="10,10" stroke-dashoffset="10" stroke-width="6" /><path d="M 741.066907,392.506330 A 248.913326,206.719239 25.641006 0,1 744.860760,400.000000" fill="none" stroke="green" stroke-dasharray="10,10" stroke-dashoffset="0" stroke-width="6" /><line fill="orange" stroke="orange" stroke-linecap="round" stroke-width="6" x1="734.86076038" x2="754.86076038" y1="400.0" y2="400.0" /><path d="M 744.860760,400.000000 A 148.913326,133.978277 67.380135 0,1 756.313651,431.405291" fill="none" stroke="orange" stroke-dasharray="10,10" stroke-dashoffset="10" stroke-width="6" /><path d="M 744.860760,400.000000 A 148.913326,133.978277 67.380135 0,1 756.313651,431.405291" fill="none" stroke="green" stroke-dasharray="10,10" stroke-dashoffset="0" stroke-width="6" /><line fill="green" stroke="green" stroke-linecap="round" stroke-width="6" x1="748.631438568" x2="763.99586416" y1="437.807134526" y2="425.003446533" /><path d="M 756.313651,431.405291 A 227.015823,195.476811 107.650124 0,1 763.427373,481.713686" fill="none" stroke="orange" stroke-dasharray="10,10" stroke-dashoffset="10" stroke-width="6" /><path d="M 756.313651,431.405291 A 227.015823,195.476811 107.650124 0,1 763.427373,481.713686" fill="none" stroke="cyan" stroke-dasharray="10,10" stroke-dashoffset="0" stroke-width="6" /><line fill="yellow" stroke="yellow" stroke-linecap="round" stroke-width="6" x1="754.483100617" x2="772.371644437" y1="477.241550308" y2="486.185822218" /><path d="M 763.427373,481.713686 A 171.114123,121.778664 135.000000 0,1 661.669984,652.917496" fill="none" stroke="yellow" stroke-dasharray="10,10" stroke-dashoffset="10" stroke-width="6" /><path d="M 763.427373,481.713686 A 171.114123,121.778664 135.000000 0,1 661.669984,652.917496" fill="none" stroke="cyan" stroke-dasharray="10,10" stroke-dashoffset="0" stroke-width="6" /><line fill="cyan" stroke="cyan" stroke-linecap="round" stroke-width="6" x1="651.968559349" x2="671.371409352" y1="650.492139837" y2="655.342852338" /><path d="M 661.669984,652.917496 A 212.345179,154.403611 149.036243 0,1 534.188405,696.215320" fill="none" stroke="yellow" stroke-dasharray="10,10" stroke-dashoffset="10" stroke-width="6" /><path d="M 661.669984,652.917496 A 212.345179,154.403611 149.036243 0,1 534.188405,696.215320" fill="none" stroke="blue" stroke-dasharray="10,10" stroke-dashoffset="0" stroke-width="6" /><line fill="blue" stroke="blue" stroke-linecap="round" stroke-width="6" x1="527.603359027" x2="540.773451185" y1="688.689553174" y2="703.741087068" /><path d="M 534.188405,696.215320 A 265.495908,208.957119 167.660913 0,1 523.780345,696.707517" fill="none" stroke="yellow" stroke-dasharray="10,10" stroke-dashoffset="10" stroke-width="6" /><path d="M 534.188405,696.215320 A 265.495908,208.957119 167.660913 0,1 523.780345,696.707517" fill="none" stroke="purple" stroke-dasharray="10,10" stroke-dashoffset="0" stroke-width="6" /><line fill="green" stroke="green" stroke-linecap="round" stroke-width="6" x1="529.592727032" x2="517.967963158" y1="688.570182155" y2="704.844851579" /><path d="M 523.780345,696.707517 A 222.484282,176.845288 180.000000 0,1 447.721168,688.565693" fill="none" stroke="green" stroke-dasharray="10,10" stroke-dashoffset="10" stroke-width="6" /><path d="M 523.780345,696.707517 A 222.484282,176.845288 180.000000 0,1 447.721168,688.565693" fill="none" stroke="purple" stroke-dasharray="10,10" stroke-dashoffset="0" stroke-width="6" /><line fill="cyan" stroke="cyan" stroke-linecap="round" stroke-width="6" x1="455.403380827" x2="440.038955235" y1="682.163849311" y2="694.967537304" /><path d="M 447.721168,688.565693 A 144.381785,112.787854 -146.309932 0,1 360.526150,636.843099" fill="none" stroke="cyan" stroke-dasharray="10,10" stroke-dashoffset="10" stroke-width="6" /><path d="M 447.721168,688.565693 A 144.381785,112.787854 -146.309932 0,1 360.526150,636.843099" fill="none" stroke="purple" stroke-dasharray="10,10" stroke-dashoffset="0" stroke-width="6" /><line fill="purple" stroke="purple" stroke-linecap="round" stroke-width="6" x1="362.170139962" x2="358.882160216" y1="626.979160229" y2="646.707038706" /><path d="M 360.526150,636.843099 A 205.209411,160.579894 -120.579227 0,1 313.357294,565.839323" fill="none" stroke="cyan" stroke-dasharray="10,10" stroke-dashoffset="10" stroke-width="6" /><path d="M 360.526150,636.843099 A 205.209411,160.579894 -120.579227 0,1 313.357294,565.839323" fill="none" stroke="red" stroke-dasharray="10,10" stroke-dashoffset="0" stroke-width="6" /><line fill="blue" stroke="blue" stroke-linecap="round" stroke-width="6" x1="323.058718628" x2="303.655868625" y1="568.264679657" y2="563.413967156" /><path d="M 313.357294,565.839323 A 163.978354,127.529999 -104.036243 0,1 301.783287,430.609471" fill="none" stroke="blue" stroke-dasharray="10,10" stroke-dashoffset="10" stroke-width="6" /><path d="M 313.357294,565.839323 A 163.978354,127.529999 -104.036243 0,1 301.783287,430.609471" fill="none" stroke="red" stroke-dasharray="10,10" stroke-dashoffset="0" stroke-width="6" /><line fill="purple" stroke="purple" stroke-linecap="round" stroke-width="6" x1="308.368333427" x2="295.198241269" y1="438.135238202" y2="423.083704308" /><path d="M 301.783287,430.609471 A 110.827625,92.643200 -80.537678 0,1 314.876875,400.000000" fill="none" stroke="purple" stroke-dasharray="10,10" stroke-dashoffset="10" stroke-width="6" /><path d="M 301.783287,430.609471 A 110.827625,92.643200 -80.537678 0,1 314.876875,400.000000" fill="none" stroke="red" stroke-dasharray="10,10" stroke-dashoffset="0" stroke-width="6" /><line fill="red" stroke="red" stroke-linecap="round" stroke-width="6" x1="324.876875216" x2="304.876875216" y1="400.0" y2="400.0" /><path d="M 314.876875,400.000000 A 210.827625,169.553200 -28.610460 0,1 415.375794,307.687897" fill="none" stroke="purple" stroke-dasharray="10,10" stroke-dashoffset="10" stroke-width="6" /><path d="M 314.876875,400.000000 A 210.827625,169.553200 -28.610460 0,1 415.375794,307.687897" fill="none" stroke="orange" stroke-dasharray="10,10" stroke-dashoffset="0" stroke-width="6" /><line fill="orange" stroke="orange" stroke-linecap="round" stroke-width="6" x1="424.320065992" x2="406.431522172" y1="312.160032996" y2="303.215761086" /><path d="M 415.375794,307.687897 A 266.729325,210.522048 -12.339087 0,1 415.386237,307.682579" fill="none" stroke="purple" stroke-dasharray="10,10" stroke-dashoffset="10" stroke-width="6" /><path d="M 415.375794,307.687897 A 266.729325,210.522048 -12.339087 0,1 415.386237,307.682579" fill="none" stroke="yellow" stroke-dasharray="10,10" stroke-dashoffset="0" stroke-width="6" /><line fill="red" stroke="red" stroke-linecap="round" stroke-width="6" x1="413.742246908" x2="417.030226654" y1="317.546518553" y2="297.818640077" /><path d="M 426.868418,238.789489 A 200.000000,173.205081 0.000000 0,1 357.294902,278.647451" fill="none" stroke="red" stroke-dasharray="10,10" stroke-dashoffset="10" stroke-width="6" /><path d="M 426.868418,238.789489 A 200.000000,173.205081 0.000000 0,1 357.294902,278.647451" fill="none" stroke="orange" stroke-dasharray="10,10" stroke-dashoffset="0" stroke-width="6" /><line fill="orange" stroke="orange" stroke-linecap="round" stroke-width="6" x1="366.239173598" x2="348.350629778" y1="283.119586799" y2="274.175314889" /><path d="M 357.294902,278.647451 A 255.901699,205.817103 9.462322 0,1 776.288445,343.196177" fill="none" stroke="red" stroke-dasharray="10,10" stroke-dashoffset="10" stroke-width="6" /><path d="M 357.294902,278.647451 A 255.901699,205.817103 9.462322 0,1 776.288445,343.196177" fill="none" stroke="yellow" stroke-dasharray="10,10" stroke-dashoffset="0" stroke-width="6" /><line fill="yellow" stroke="yellow" stroke-linecap="round" stroke-width="6" x1="770.476063395" x2="782.100827269" y1="351.333511247" y2="335.058841823" /><path d="M 776.288445,343.196177 A 298.913326,264.809698 25.641006 0,1 801.097793,394.085172" fill="none" stroke="red" stroke-dasharray="10,10" stroke-dashoffset="10" stroke-width="6" /><path d="M 776.288445,343.196177 A 298.913326,264.809698 25.641006 0,1 801.097793,394.085172" fill="none" stroke="green" stroke-dasharray="10,10" stroke-dashoffset="0" stroke-width="6" /><line fill="green" stroke="green" stroke-linecap="round" stroke-width="6" x1="793.415580633" x2="808.780006225" y1="400.487016139" y2="387.683328146" /><path d="M 801.097793,394.085172 A 377.015823,354.705414 59.420773 0,1 803.235738,400.000000" fill="none" stroke="red" stroke-dasharray="10,10" stroke-dashoffset="10" stroke-width="6" /><path d="M 801.097793,394.085172 A 377.015823,354.705414 59.420773 0,1 803.235738,400.000000" fill="none" stroke="cyan" stroke-dasharray="10,10" stroke-dashoffset="0" stroke-width="6" /><line fill="orange" stroke="orange" stroke-linecap="round" stroke-width="6" x1="793.235737914" x2="813.235737914" y1="400.0" y2="400.0" /><path d="M 803.235738,400.000000 A 277.015823,251.818915 107.650124 0,1 818.881248,509.440624" fill="none" stroke="orange" stroke-dasharray="10,10" stroke-dashoffset="10" stroke-width="6" /><path d="M 803.235738,400.000000 A 277.015823,251.818915 107.650124 0,1 818.881248,509.440624" fill="none" stroke="cyan" stroke-dasharray="10,10" stroke-dashoffset="0" stroke-width="6" /><line fill="yellow" stroke="yellow" stroke-linecap="round" stroke-width="6" x1="809.936975903" x2="827.825519723" y1="504.968487952" y2="513.912759862" /><path d="M 818.881248,509.440624 A 221.114123,185.584093 135.000000 0,1 739.792403,672.448101" fill="none" stroke="yellow" stroke-dasharray="10,10" stroke-dashoffset="10" stroke-width="6" /><path d="M 818.881248,509.440624 A 221.114123,185.584093 135.000000 0,1 739.792403,672.448101" fill="none" stroke="cyan" stroke-dasharray="10,10" stroke-dashoffset="0" stroke-width="6" /><line fill="cyan" stroke="cyan" stroke-linecap="round" stroke-width="6" x1="730.090978095" x2="749.493828098" y1="670.022744524" y2="674.873457024" /><path d="M 739.792403,672.448101 A 262.345179,218.116925 149.036243 0,1 582.480411,751.406184" fill="none" stroke="yellow" stroke-dasharray="10,10" stroke-dashoffset="10" stroke-width="6" /><path d="M 739.792403,672.448101 A 262.345179,218.116925 149.036243 0,1 582.480411,751.406184" fill="none" stroke="blue" stroke-dasharray="10,10" stroke-dashoffset="0" stroke-width="6" /><line fill="blue" stroke="blue" stroke-linecap="round" stroke-width="6" x1="575.895364542" x2="589.0654567" y1="743.88041662" y2="758.931950514" /><path d="M 582.480411,751.406184 A 315.495908,269.652866 167.660913 0,1 482.166756,754.966542" fill="none" stroke="yellow" stroke-dasharray="10,10" stroke-dashoffset="10" stroke-width="6" /><path d="M 582.480411,751.406184 A 315.495908,269.652866 167.660913 0,1 482.166756,754.966542" fill="none" stroke="purple" stroke-dasharray="10,10" stroke-dashoffset="0" stroke-width="6" /><line fill="green" stroke="green" stroke-linecap="round" stroke-width="6" x1="487.979137896" x2="476.354374022" y1="746.829206946" y2="763.10387637" /><path d="M 482.166756,754.966542 A 272.484282,236.691115 180.000000 0,1 394.997964,732.501697" fill="none" stroke="green" stroke-dasharray="10,10" stroke-dashoffset="10" stroke-width="6" /><path d="M 482.166756,754.966542 A 272.484282,236.691115 180.000000 0,1 394.997964,732.501697" fill="none" stroke="purple" stroke-dasharray="10,10" stroke-dashoffset="0" stroke-width="6" /><line fill="cyan" stroke="cyan" stroke-linecap="round" stroke-width="6" x1="402.68017698" x2="387.315751388" y1="726.099852517" y2="738.90354051" /><path d="M 394.997964,732.501697 A 194.381785,172.218694 -146.309932 0,1 349.020313,705.878123" fill="none" stroke="cyan" stroke-dasharray="10,10" stroke-dashoffset="10" stroke-width="6" /><path d="M 394.997964,732.501697 A 194.381785,172.218694 -146.309932 0,1 349.020313,705.878123" fill="none" stroke="purple" stroke-dasharray="10,10" stroke-dashoffset="0" stroke-width="6" /><line fill="purple" stroke="purple" stroke-linecap="round" stroke-width="6" x1="350.664302624" x2="347.376322878" y1="696.014184257" y2="715.742062733" /><path d="M 349.020313,705.878123 A 255.209411,220.922709 -120.579227 0,1 243.849996,548.462499" fill="none" stroke="cyan" stroke-dasharray="10,10" stroke-dashoffset="10" stroke-width="6" /><path d="M 349.020313,705.878123 A 255.209411,220.922709 -120.579227 0,1 243.849996,548.462499" fill="none" stroke="red" stroke-dasharray="10,10" stroke-dashoffset="0" stroke-width="6" /><line fill="blue" stroke="blue" stroke-linecap="round" stroke-width="6" x1="253.551420932" x2="234.148570929" y1="550.887855233" y2="546.037142732" /><path d="M 243.849996,548.462499 A 213.978354,187.514629 -104.036243 0,1 252.866440,400.000000" fill="none" stroke="blue" stroke-dasharray="10,10" stroke-dashoffset="10" stroke-width="6" /><path d="M 243.849996,548.462499 A 213.978354,187.514629 -104.036243 0,1 252.866440,400.000000" fill="none" stroke="red" stroke-dasharray="10,10" stroke-dashoffset="0" stroke-width="6" /><line fill="red" stroke="red" stroke-linecap="round" stroke-width="6" x1="262.866439596" x2="242.866439596" y1="400.0" y2="400.0" /><path d="M 252.866440,400.000000 A 313.978354,288.023275 -53.130102 0,1 260.391471,383.304538" fill="none" stroke="blue" stroke-dasharray="10,10" stroke-dashoffset="10" stroke-width="6" /><path d="M 252.866440,400.000000 A 313.978354,288.023275 -53.130102 0,1 260.391471,383.304538" fill="none" stroke="orange" stroke-dasharray="10,10" stroke-dashoffset="0" stroke-width="6" /><line fill="purple" stroke="purple" stroke-linecap="round" stroke-width="6" x1="266.976516677" x2="253.80642452" y1="390.830304774" y2="375.77877088" /><path d="M 260.391471,383.304538 A 260.827625,228.759809 -28.610460 0,1 352.705336,276.352668" fill="none" stroke="purple" stroke-dasharray="10,10" stroke-dashoffset="10" stroke-width="6" /><path d="M 260.391471,383.304538 A 260.827625,228.759809 -28.610460 0,1 352.705336,276.352668" fill="none" stroke="orange" stroke-dasharray="10,10" stroke-dashoffset="0" stroke-width="6" /><line fill="orange" stroke="orange" stroke-linecap="round" stroke-width="6" x1="361.649608256" x2="343.761064436" y1="280.824804128" y2="271.880532218" /><path d="M 352.705336,276.352668 A 316.729325,271.094938 -12.339087 0,1 427.213781,236.717313" fill="none" stroke="purple" stroke-dasharray="10,10" stroke-dashoffset="10" stroke-width="6" /><path d="M 352.705336,276.352668 A 316.729325,271.094938 -12.339087 0,1 427.213781,236.717313" fill="none" stroke="yellow" stroke-dasharray="10,10" stroke-dashoffset="0" stroke-width="6" /><line fill="red" stroke="red" stroke-linecap="round" stroke-width="6" x1="425.569791325" x2="428.857771071" y1="246.581252053" y2="226.853373576" /><path d="M 446.381416,121.711505 A 300.000000,282.842712 0.000000 0,1 260.167651,230.083826" fill="none" stroke="red" stroke-dasharray="10,10" stroke-dashoffset="10" stroke-width="6" /><path d="M 446.381416,121.711505 A 300.000000,282.842712 0.000000 0,1 260.167651,230.083826" fill="none" stroke="orange" stroke-dasharray="10,10" stroke-dashoffset="0" stroke-width="6" /><line fill="orange" stroke="orange" stroke-linecap="round" stroke-width="6" x1="269.111923325" x2="251.223379505" y1="234.555961662" y2="225.611689752" /><path d="M 260.167651,230.083826 A 355.901699,321.777904 9.462322 0,1 842.360346,250.695515" fill="none" stroke="red" stroke-dasharray="10,10" stroke-dashoffset="10" stroke-width="6" /><path d="M 260.167651,230.083826 A 355.901699,321.777904 9.462322 0,1 842.360346,250.695515" fill="none" stroke="yellow" stroke-dasharray="10,10" stroke-dashoffset="0" stroke-width="6" /><line fill="yellow" stroke="yellow" stroke-linecap="round" stroke-width="6" x1="836.547964248" x2="848.172728123" y1="258.832850052" y2="242.558180628" /><path d="M 842.360346,250.695515 A 398.913326,374.041230 25.641006 0,1 885.426875,323.810938" fill="none" stroke="red" stroke-dasharray="10,10" stroke-dashoffset="10" stroke-width="6" /><path d="M 842.360346,250.695515 A 398.913326,374.041230 25.641006 0,1 885.426875,323.810938" fill="none" stroke="green" stroke-dasharray="10,10" stroke-dashoffset="0" stroke-width="6" /><line fill="green" stroke="green" stroke-linecap="round" stroke-width="6" x1="877.744662129" x2="893.109087721" y1="330.212781559" y2="317.409093566" /><path d="M 885.426875,323.810938 A 477.015823,459.585786 59.420773 0,1 912.648018,400.000000" fill="none" stroke="red" stroke-dasharray="10,10" stroke-dashoffset="10" stroke-width="6" /><path d="M 885.426875,323.810938 A 477.015823,459.585786 59.420773 0,1 912.648018,400.000000" fill="none" stroke="cyan" stroke-dasharray="10,10" stroke-dashoffset="0" stroke-width="6" /><line fill="orange" stroke="orange" stroke-linecap="round" stroke-width="6" x1="902.64801834" x2="922.64801834" y1="400.0" y2="400.0" /><path d="M 912.648018,400.000000 A 377.015823,358.909362 107.650124 0,1 920.823501,560.411750" fill="none" stroke="orange" stroke-dasharray="10,10" stroke-dashoffset="10" stroke-width="6" /><path d="M 912.648018,400.000000 A 377.015823,358.909362 107.650124 0,1 920.823501,560.411750" fill="none" stroke="cyan" stroke-dasharray="10,10" stroke-dashoffset="0" stroke-width="6" /><line fill="yellow" stroke="yellow" stroke-linecap="round" stroke-width="6" x1="911.879228973" x2="929.767772793" y1="555.939614486" y2="564.883886396" /><path d="M 920.823501,560.411750 A 321.114123,297.765478 135.000000 0,1 861.769209,702.942302" fill="none" stroke="yellow" stroke-dasharray="10,10" stroke-dashoffset="10" stroke-width="6" /><path d="M 920.823501,560.411750 A 321.114123,297.765478 135.000000 0,1 861.769209,702.942302" fill="none" stroke="cyan" stroke-dasharray="10,10" stroke-dashoffset="0" stroke-width="6" /><line fill="cyan" stroke="cyan" stroke-linecap="round" stroke-width="6" x1="852.067784325" x2="871.470634328" y1="700.516946081" y2="705.367658582" /><path d="M 861.769209,702.942302 A 362.345179,331.728849 149.036243 0,1 665.363470,846.129680" fill="none" stroke="yellow" stroke-dasharray="10,10" stroke-dashoffset="10" stroke-width="6" /><path d="M 861.769209,702.942302 A 362.345179,331.728849 149.036243 0,1 665.363470,846.129680" fill="none" stroke="blue" stroke-dasharray="10,10" stroke-dashoffset="0" stroke-width="6" /><line fill="blue" stroke="blue" stroke-linecap="round" stroke-width="6" x1="658.778424042" x2="671.948516199" y1="838.60391319" y2="853.655447084" /><path d="M 665.363470,846.129680 A 415.495908,381.853178 167.660913 0,1 411.746668,853.554665" fill="none" stroke="yellow" stroke-dasharray="10,10" stroke-dashoffset="10" stroke-width="6" /><path d="M 665.363470,846.129680 A 415.495908,381.853178 167.660913 0,1 411.746668,853.554665" fill="none" stroke="purple" stroke-dasharray="10,10" stroke-dashoffset="0" stroke-width="6" /><line fill="green" stroke="green" stroke-linecap="round" stroke-width="6" x1="417.559049766" x2="405.934285891" y1="845.417330328" y2="861.691999752" /><path d="M 411.746668,853.554665 A 372.484282,347.159244 180.000000 0,1 329.798866,821.206803" fill="none" stroke="green" stroke-dasharray="10,10" stroke-dashoffset="10" stroke-width="6" /><path d="M 411.746668,853.554665 A 372.484282,347.159244 180.000000 0,1 329.798866,821.206803" fill="none" stroke="purple" stroke-dasharray="10,10" stroke-dashoffset="0" stroke-width="6" /><line fill="purple" stroke="purple" stroke-linecap="round" stroke-width="6" x1="331.442856052" x2="328.154876306" y1="811.342863686" y2="831.070742163" /><path d="M 329.798866,821.206803 A 433.311907,410.529182 -154.358994 0,1 305.381471,807.182108" fill="none" stroke="green" stroke-dasharray="10,10" stroke-dashoffset="10" stroke-width="6" /><path d="M 329.798866,821.206803 A 433.311907,410.529182 -154.358994 0,1 305.381471,807.182108" fill="none" stroke="red" stroke-dasharray="10,10" stroke-dashoffset="0" stroke-width="6" /><line fill="cyan" stroke="cyan" stroke-linecap="round" stroke-width="6" x1="313.063683307" x2="297.699257716" y1="800.78026391" y2="813.583951904" /><path d="M 305.381471,807.182108 A 355.209411,331.434346 -120.579227 0,1 128.566981,519.641745" fill="none" stroke="cyan" stroke-dasharray="10,10" stroke-dashoffset="10" stroke-width="6" /><path d="M 305.381471,807.182108 A 355.209411,331.434346 -120.579227 0,1 128.566981,519.641745" fill="none" stroke="red" stroke-dasharray="10,10" stroke-dashoffset="0" stroke-width="6" /><line fill="blue" stroke="blue" stroke-linecap="round" stroke-width="6" x1="138.268405877" x2="118.865555874" y1="522.067101469" y2="517.216388968" /><path d="M 128.566981,519.641745 A 313.978354,296.576140 -104.036243 0,1 140.522054,400.000000" fill="none" stroke="blue" stroke-dasharray="10,10" stroke-dashoffset="10" stroke-width="6" /><path d="M 128.566981,519.641745 A 313.978354,296.576140 -104.036243 0,1 140.522054,400.000000" fill="none" stroke="red" stroke-dasharray="10,10" stroke-dashoffset="0" stroke-width="6" /><line fill="red" stroke="red" stroke-linecap="round" stroke-width="6" x1="150.52205435" x2="130.52205435" y1="400.0" y2="400.0" /><path d="M 140.522054,400.000000 A 413.978354,394.655645 -53.130102 0,1 185.733406,297.981035" fill="none" stroke="blue" stroke-dasharray="10,10" stroke-dashoffset="10" stroke-width="6" /><path d="M 140.522054,400.000000 A 413.978354,394.655645 -53.130102 0,1 185.733406,297.981035" fill="none" stroke="orange" stroke-dasharray="10,10" stroke-dashoffset="0" stroke-width="6" /><line fill="purple" stroke="purple" stroke-linecap="round" stroke-width="6" x1="192.318452021" x2="179.148359863" y1="305.506802309" y2="290.455268415" /><path d="M 185.733406,297.981035 A 360.827625,338.373426 -28.610460 0,1 245.979090,222.989545" fill="none" stroke="purple" stroke-dasharray="10,10" stroke-dashoffset="10" stroke-width="6" /><path d="M 185.733406,297.981035 A 360.827625,338.373426 -28.610460 0,1 245.979090,222.989545" fill="none" stroke="orange" stroke-dasharray="10,10" stroke-dashoffset="0" stroke-width="6" /><line fill="orange" stroke="orange" stroke-linecap="round" stroke-width="6" x1="254.923361554" x2="237.034817734" y1="227.461680777" y2="218.517408867" /><path d="M 245.979090,222.989545 A 416.729325,383.194898 -12.339087 0,1 447.827922,113.032467" fill="none" stroke="purple" stroke-dasharray="10,10" stroke-dashoffset="10" stroke-width="6" /><path d="M 245.979090,222.989545 A 416.729325,383.194898 -12.339087 0,1 447.827922,113.032467" fill="none" stroke="yellow" stroke-dasharray="10,10" stroke-dashoffset="0" stroke-width="6" /><line fill="red" stroke="red" stroke-linecap="round" stroke-width="6" x1="446.183932286" x2="449.471912032" y1="122.896406282" y2="103.168527806" /></svg>