<?xml version="1.0" encoding="utf-8" ?>
<svg baseProfile="full" height="1000" version="1.1" width="1000" xmlns="http://www.w3.org/2000/svg" xmlns:ev="http://www.w3.org/2001/xml-events" xmlns:xlink="http://www.w3.org/1999/xlink"><defs /><circle cx="400" cy="400" fill="red" r="5" stroke="red" stroke-width="2" /><circle cx="600" cy="400" fill="orange" r="5" stroke="orange" stroke-width="2" /><circle cx="700" cy="450" fill="yellow" r="5" stroke="yellow" stroke-width="2" /><circle cx="650" cy="520" fill="green" r="5" stroke="green" stroke-width="2" /><circle cx="530" cy="620" fill="cyan" r="5" stroke="cyan" stroke-width="2" /><circle cx="450" cy="600" fill="blue" r="5" stroke="blue" stroke-width="2" /><circle cx="380" cy="520" fill="purple" r="5" stroke="purple" stroke-width="2" /><path d="M 404.545954,372.724275 A 112.500000,51.538820 0.000000 0,1 496.960000,348.480000" fill="none" stroke="red" stroke-dasharray="10,10" stroke-dashoffset="10" stroke-width="6" /><path d="M 404.545954,372.724275 A 112.500000,51.538820 0.000000 0,1 496.960000,348.480000" fill="none" stroke="orange" stroke-dasharray="10,10" stroke-dashoffset="0" stroke-width="6" /><line fill="orange" stroke="orange" stroke-linecap="round" stroke-width="6" x1="505" x2="488" y1="352" y2="344" /><path d="M 496.960000,348.480000 A 168.401699,72.347304 9.462322 0,1 684.437445,400.000000" fill="none" stroke="red" stroke-dasharray="10,10" stroke-dashoffset="10" stroke-width="6" /><path d="M 496.960000,348.480000 A 168.401699,72.347304 9.462322 0,1 684.437445,400.000000" fill="none" stroke="yellow" stroke-dasharray="10,10" stroke-dashoffset="0" stroke-width="6" /><line fill="orange" stroke="orange" stroke-linecap="round" stroke-width="6" x1="674" x2="694" y1="400" y2="400" /><path d="M 684.437445,400.000000 A 68.401699,39.418175 26.565051 0,1 711.710585,433.605180" fill="none" stroke="orange" stroke-dasharray="10,10" stroke-dashoffset="10" stroke-width="6" /><path d="M 684.437445,400.000000 A 68.401699,39.418175 26.565051 0,1 711.710585,433.605180" fill="none" stroke="yellow" stroke-dasharray="10,10" stroke-dashoffset="0" stroke-width="6" /><line fill="yellow" stroke="yellow" stroke-linecap="round" stroke-width="6" x1="705" x2="717" y1="441" y2="425" /><path d="M 711.710585,433.605180 A 111.413326,90.487177 67.380135 0,1 717.703736,458.851868" fill="none" stroke="orange" stroke-dasharray="10,10" stroke-dashoffset="10" stroke-width="6" /><path d="M 711.710585,433.605180 A 111.413326,90.487177 67.380135 0,1 717.703736,458.851868" fill="none" stroke="green" stroke-dasharray="10,10" stroke-dashoffset="0" stroke-width="6" /><line fill="yellow" stroke="yellow" stroke-linecap="round" stroke-width="6" x1="708" x2="726" y1="454" y2="463" /><path d="M 717.703736,458.851868 A 55.511626,35.093314 125.537678 0,1 718.066203,463.278164" fill="none" stroke="yellow" stroke-dasharray="10,10" stroke-dashoffset="10" stroke-width="6" /><path d="M 717.703736,458.851868 A 55.511626,35.093314 125.537678 0,1 718.066203,463.278164" fill="none" stroke="green" stroke-dasharray="10,10" stroke-dashoffset="0" stroke-width="6" /><line fill="green" stroke="green" stroke-linecap="round" stroke-width="6" x1="710" x2="725" y1="469" y2="456" /><path d="M 718.066203,463.278164 A 133.614123,58.332957 135.000000 0,1 575.997631,631.499408" fill="none" stroke="yellow" stroke-dasharray="10,10" stroke-dashoffset="10" stroke-width="6" /><path d="M 718.066203,463.278164 A 133.614123,58.332957 135.000000 0,1 575.997631,631.499408" fill="none" stroke="cyan" stroke-dasharray="10,10" stroke-dashoffset="0" stroke-width="6" /><line fill="cyan" stroke="cyan" stroke-linecap="round" stroke-width="6" x1="566" x2="585" y1="629" y2="633" /><path d="M 575.997631,631.499408 A 174.845179,96.544481 149.036243 0,1 568.377688,634.271236" fill="none" stroke="yellow" stroke-dasharray="10,10" stroke-dashoffset="10" stroke-width="6" /><path d="M 575.997631,631.499408 A 174.845179,96.544481 149.036243 0,1 568.377688,634.271236" fill="none" stroke="blue" stroke-dasharray="10,10" stroke-dashoffset="0" stroke-width="6" /><line fill="green" stroke="green" stroke-linecap="round" stroke-width="6" x1="574" x2="562" y1="626" y2="642" /><path d="M 568.377688,634.271236 A 131.833553,76.026875 158.198591 0,1 498.987300,645.843916" fill="none" stroke="green" stroke-dasharray="10,10" stroke-dashoffset="10" stroke-width="6" /><path d="M 568.377688,634.271236 A 131.833553,76.026875 158.198591 0,1 498.987300,645.843916" fill="none" stroke="blue" stroke-dasharray="10,10" stroke-dashoffset="0" stroke-width="6" /><line fill="cyan" stroke="cyan" stroke-linecap="round" stroke-width="6" x1="506" x2="491" y1="639" y2="652" /><path d="M 498.987300,645.843916 A 53.731056,34.453250 -165.963757 0,1 489.348514,644.969730" fill="none" stroke="cyan" stroke-dasharray="10,10" stroke-dashoffset="10" stroke-width="6" /><path d="M 498.987300,645.843916 A 53.731056,34.453250 -165.963757 0,1 489.348514,644.969730" fill="none" stroke="blue" stroke-dasharray="10,10" stroke-dashoffset="0" stroke-width="6" /><line fill="blue" stroke="blue" stroke-linecap="round" stroke-width="6" x1="482" x2="495" y1="637" y2="652" /><path d="M 489.348514,644.969730 A 106.881785,57.434450 -146.309932 0,1 384.497656,583.624414" fill="none" stroke="cyan" stroke-dasharray="10,10" stroke-dashoffset="10" stroke-width="6" /><path d="M 489.348514,644.969730 A 106.881785,57.434450 -146.309932 0,1 384.497656,583.624414" fill="none" stroke="purple" stroke-dasharray="10,10" stroke-dashoffset="0" stroke-width="6" /><line fill="blue" stroke="blue" stroke-linecap="round" stroke-width="6" x1="394" x2="374" y1="586" y2="581" /><path d="M 384.497656,583.624414 A 65.650729,38.535934 -131.185925 0,1 372.358572,565.848567" fill="none" stroke="blue" stroke-dasharray="10,10" stroke-dashoffset="10" stroke-width="6" /><path d="M 384.497656,583.624414 A 65.650729,38.535934 -131.185925 0,1 372.358572,565.848567" fill="none" stroke="purple" stroke-dasharray="10,10" stroke-dashoffset="0" stroke-width="6" /><line fill="purple" stroke="purple" stroke-linecap="round" stroke-width="6" x1="374" x2="370" y1="555" y2="575" /><path d="M 372.358572,565.848567 A 126.478354,73.292388 -104.036243 0,1 348.229734,483.691124" fill="none" stroke="blue" stroke-dasharray="10,10" stroke-dashoffset="10" stroke-width="6" /><path d="M 372.358572,565.848567 A 126.478354,73.292388 -104.036243 0,1 348.229734,483.691124" fill="none" stroke="red" stroke-dasharray="10,10" stroke-dashoffset="0" stroke-width="6" /><line fill="purple" stroke="purple" stroke-linecap="round" stroke-width="6" x1="354" x2="341" y1="491" y2="476" /><path d="M 348.229734,483.691124 A 73.327625,40.950466 -80.537678 0,1 373.519603,400.000000" fill="none" stroke="purple" stroke-dasharray="10,10" stroke-dashoffset="10" stroke-width="6" /><path d="M 348.229734,483.691124 A 73.327625,40.950466 -80.537678 0,1 373.519603,400.000000" fill="none" stroke="red" stroke-dasharray="10,10" stroke-dashoffset="0" stroke-width="6" /><line fill="red" stroke="red" stroke-linecap="round" stroke-width="6" x1="383" x2="363" y1="400" y2="400" /><path d="M 373.519603,400.000000 A 173.327625,119.760034 -28.610460 0,1 404.545954,372.724275" fill="none" stroke="purple" stroke-dasharray="10,10" stroke-dashoffset="10" stroke-width="6" /><path d="M 373.519603,400.000000 A 173.327625,119.760034 -28.610460 0,1 404.545954,372.724275" fill="none" stroke="orange" stroke-dasharray="10,10" stroke-dashoffset="0" stroke-width="6" /><line fill="red" stroke="red" stroke-linecap="round" stroke-width="6" x1="402" x2="406" y1="382" y2="362" /><path d="M 408.518270,348.890377 A 125.000000,75.000000 0.000000 0,1 458.505689,329.252845" fill="none" stroke="red" stroke-dasharray="10,10" stroke-dashoffset="10" stroke-width="6" /><path d="M 408.518270,348.890377 A 125.000000,75.000000 0.000000 0,1 458.505689,329.252845" fill="none" stroke="orange" stroke-dasharray="10,10" stroke-dashoffset="0" stroke-width="6" /><line fill="orange" stroke="orange" stroke-linecap="round" stroke-width="6" x1="467" x2="449" y1="333" y2="324" /><path d="M 458.505689,329.252845 A 180.901699,97.981758 9.462322 0,1 710.676275,400.000000" fill="none" stroke="red" stroke-dasharray="10,10" stroke-dashoffset="10" stroke-width="6" /><path d="M 458.505689,329.252845 A 180.901699,97.981758 9.462322 0,1 710.676275,400.000000" fill="none" stroke="yellow" stroke-dasharray="10,10" stroke-dashoffset="0" stroke-width="6" /><line fill="orange" stroke="orange" stroke-linecap="round" stroke-width="6" x1="700" x2="720" y1="400" y2="400" /><path d="M 710.676275,400.000000 A 80.901699,58.481493 26.565051 0,1 722.181187,418.946338" fill="none" stroke="orange" stroke-dasharray="10,10" stroke-dashoffset="10" stroke-width="6" /><path d="M 710.676275,400.000000 A 80.901699,58.481493 26.565051 0,1 722.181187,418.946338" fill="none" stroke="yellow" stroke-dasharray="10,10" stroke-dashoffset="0" stroke-width="6" /><line fill="yellow" stroke="yellow" stroke-linecap="round" stroke-width="6" x1="716" x2="727" y1="427" y2="410" /><path d="M 722.181187,418.946338 A 123.913326,105.496504 67.380135 0,1 731.655127,451.954061" fill="none" stroke="orange" stroke-dasharray="10,10" stroke-dashoffset="10" stroke-width="6" /><path d="M 722.181187,418.946338 A 123.913326,105.496504 67.380135 0,1 731.655127,451.954061" fill="none" stroke="green" stroke-dasharray="10,10" stroke-dashoffset="0" stroke-width="6" /><line fill="green" stroke="green" stroke-linecap="round" stroke-width="6" x1="723" x2="739" y1="458" y2="445" /><path d="M 731.655127,451.954061 A 202.015823,165.787191 107.650124 0,1 733.514614,466.757307" fill="none" stroke="orange" stroke-dasharray="10,10" stroke-dashoffset="10" stroke-width="6" /><path d="M 731.655127,451.954061 A 202.015823,165.787191 107.650124 0,1 733.514614,466.757307" fill="none" stroke="cyan" stroke-dasharray="10,10" stroke-dashoffset="0" stroke-width="6" /><line fill="yellow" stroke="yellow" stroke-linecap="round" stroke-width="6" x1="724" x2="742" y1="462" y2="471" /><path d="M 733.514614,466.757307 A 146.114123,83.062248 135.000000 0,1 609.429637,639.857409" fill="none" stroke="yellow" stroke-dasharray="10,10" stroke-dashoffset="10" stroke-width="6" /><path d="M 733.514614,466.757307 A 146.114123,83.062248 135.000000 0,1 609.429637,639.857409" fill="none" stroke="cyan" stroke-dasharray="10,10" stroke-dashoffset="0" stroke-width="6" /><line fill="cyan" stroke="cyan" stroke-linecap="round" stroke-width="6" x1="599" x2="619" y1="637" y2="642" /><path d="M 609.429637,639.857409 A 187.345179,117.678444 149.036243 0,1 549.999013,660.001382" fill="none" stroke="yellow" stroke-dasharray="10,10" stroke-dashoffset="10" stroke-width="6" /><path d="M 609.429637,639.857409 A 187.345179,117.678444 149.036243 0,1 549.999013,660.001382" fill="none" stroke="blue" stroke-dasharray="10,10" stroke-dashoffset="0" stroke-width="6" /><line fill="green" stroke="green" stroke-linecap="round" stroke-width="6" x1="555" x2="544" y1="651" y2="668" /><path d="M 549.999013,660.001382 A 144.333553,96.084205 158.198591 0,1 505.987149,663.985313" fill="none" stroke="green" stroke-dasharray="10,10" stroke-dashoffset="10" stroke-width="6" /><path d="M 549.999013,660.001382 A 144.333553,96.084205 158.198591 0,1 505.987149,663.985313" fill="none" stroke="blue" stroke-dasharray="10,10" stroke-dashoffset="0" stroke-width="6" /><line fill="blue" stroke="blue" stroke-linecap="round" stroke-width="6" x1="499" x2="512" y1="656" y2="671" /><path d="M 505.987149,663.985313 A 197.484282,144.135498 180.000000 0,1 479.806136,661.828220" fill="none" stroke="green" stroke-dasharray="10,10" stroke-dashoffset="10" stroke-width="6" /><path d="M 505.987149,663.985313 A 197.484282,144.135498 180.000000 0,1 479.806136,661.828220" fill="none" stroke="purple" stroke-dasharray="10,10" stroke-dashoffset="0" stroke-width="6" /><line fill="cyan" stroke="cyan" stroke-linecap="round" stroke-width="6" x1="487" x2="472" y1="655" y2="668" /><path d="M 479.806136,661.828220 A 119.381785,78.275224 -146.309932 0,1 367.774612,593.352329" fill="none" stroke="cyan" stroke-dasharray="10,10" stroke-dashoffset="10" stroke-width="6" /><path d="M 479.806136,661.828220 A 119.381785,78.275224 -146.309932 0,1 367.774612,593.352329" fill="none" stroke="purple" stroke-dasharray="10,10" stroke-dashoffset="0" stroke-width="6" /><line fill="purple" stroke="purple" stroke-linecap="round" stroke-width="6" x1="369" x2="366" y1="583" y2="603" /><path d="M 367.774612,593.352329 A 180.209411,127.084349 -120.579227 0,1 356.815439,576.703860" fill="none" stroke="cyan" stroke-dasharray="10,10" stroke-dashoffset="10" stroke-width="6" /><path d="M 367.774612,593.352329 A 180.209411,127.084349 -120.579227 0,1 356.815439,576.703860" fill="none" stroke="red" stroke-dasharray="10,10" stroke-dashoffset="0" stroke-width="6" /><line fill="blue" stroke="blue" stroke-linecap="round" stroke-width="6" x1="366" x2="347" y1="579" y2="574" /><path d="M 356.815439,576.703860 A 138.978354,93.220078 -104.036243 0,1 328.911816,461.613504" fill="none" stroke="blue" stroke-dasharray="10,10" stroke-dashoffset="10" stroke-width="6" /><path d="M 356.815439,576.703860 A 138.978354,93.220078 -104.036243 0,1 328.911816,461.613504" fill="none" stroke="red" stroke-dasharray="10,10" stroke-dashoffset="0" stroke-width="6" /><line fill="purple" stroke="purple" stroke-linecap="round" stroke-width="6" x1="335" x2="322" y1="469" y2="454" /><path d="M 328.911816,461.613504 A 85.827625,60.550650 -80.537678 0,1 351.648476,400.000000" fill="none" stroke="purple" stroke-dasharray="10,10" stroke-dashoffset="10" stroke-width="6" /><path d="M 328.911816,461.613504 A 85.827625,60.550650 -80.537678 0,1 351.648476,400.000000" fill="none" stroke="red" stroke-dasharray="10,10" stroke-dashoffset="0" stroke-width="6" /><line fill="red" stroke="red" stroke-linecap="round" stroke-width="6" x1="361" x2="341" y1="400" y2="400" /><path d="M 351.648476,400.000000 A 185.827625,137.229393 -28.610460 0,1 408.518270,348.890377" fill="none" stroke="purple" stroke-dasharray="10,10" stroke-dashoffset="10" stroke-width="6" /><path d="M 351.648476,400.000000 A 185.827625,137.229393 -28.610460 0,1 408.518270,348.890377" fill="none" stroke="orange" stroke-dasharray="10,10" stroke-dashoffset="0" stroke-width="6" /><line fill="red" stroke="red" stroke-linecap="round" stroke-width="6" x1="406" x2="410" y1="358" y2="339" /><path d="M 415.386237,307.682579 A 150.000000,111.803399 0.000000 0,1 415.375794,307.687897" fill="none" stroke="red" stroke-dasharray="10,10" stroke-dashoffset="10" stroke-width="6" /><path d="M 415.386237,307.682579 A 150.000000,111.803399 0.000000 0,1 415.375794,307.687897" fill="none" stroke="orange" stroke-dasharray="10,10" stroke-dashoffset="0" stroke-width="6" /><line fill="orange" stroke="orange" stroke-linecap="round" stroke-width="6" x1="424" x2="406" y1="312" y2="303" /><path d="M 415.375794,307.687897 A 205.901699,138.818262 9.462322 0,1 741.066907,392.506330" fill="none" stroke="red" stroke-dasharray="10,10" stroke-dashoffset="10" stroke-width="6" /><path d="M 415.375794,307.687897 A 205.901699,138.818262 9.462322 0,1 741.066907,392.506330" fill="none" stroke="yellow" stroke-dasharray="10,10" stroke-dashoffset="0" stroke-width="6" /><line fill="yellow" stroke="yellow" stroke-linecap="round" stroke-width="6" x1="735" x2="746" y1="400" y2="384" /><path d="M 741.066907,392.506330 A 248.913326,206.719239 25.641006 0,1 744.860760,400.000000" fill="none" stroke="red" stroke-dasharray="10,10" stroke-dashoffset="10" stroke-width="6" /><path d="M 741.066907,392.506330 A 248.913326,206.719239 25.641006 0,1 744.860760,400.000000" fill="none" stroke="green" stroke-dasharray="10,10" stroke-dashoffset="0" stroke-width="6" /><line fill="orange" stroke="orange" stroke-linecap="round" stroke-width="6" x1="734" x2="754" y1="399" y2="399" /><path d="M 744.860760,400.000000 A 148.913326,133.978277 67.380135 0,1 756.313651,431.405291" fill="none" stroke="orange" stroke-dasharray="10,10" stroke-dashoffset="10" stroke-width="6" /><path d="M 744.860760,400.000000 A 148.913326,133.978277 67.380135 0,1 756.313651,431.405291" fill="none" stroke="green" stroke-dasharray="10,10" stroke-dashoffset="0" stroke-width="6" /><line fill="green" stroke="green" stroke-linecap="round" stroke-width="6" x1="748" x2="763" y1="437" y2="425" /><path d="M 756.313651,431.405291 A 227.015823,195.476811 107.650124 0,1 763.427373,481.713686" fill="none" stroke="orange" stroke-dasharray="10,10" stroke-dashoffset="10" stroke-width="6" /><path d="M 756.313651,431.405291 A 227.015823,195.476811 107.650124 0,1 763.427373,481.713686" fill="none" stroke="cyan" stroke-dasharray="10,10" stroke-dashoffset="0" stroke-width="6" /><line fill="yellow" stroke="yellow" stroke-linecap="round" stroke-width="6" x1="754" x2="772" y1="477" y2="486" /><path d="M 763.427373,481.713686 A 171.114123,121.778664 135.000000 0,1 661.669984,652.917496" fill="none" stroke="yellow" stroke-dasharray="10,10" stroke-dashoffset="10" stroke-width="6" /><path d="M 763.427373,481.713686 A 171.114123,121.778664 135.000000 0,1 661.669984,652.917496" fill="none" stroke="cyan" stroke-dasharray="10,10" stroke-dashoffset="0" stroke-width="6" /><line fill="cyan" stroke="cyan" stroke-linecap="round" stroke-width="6" x1="651" x2="671" y1="650" y2="655" /><path d="M 661.669984,652.917496 A 212.345179,154.403611 149.036243 0,1 534.188405,696.215320" fill="none" stroke="yellow" stroke-dasharray="10,10" stroke-dashoffset="10" stroke-width="6" /><path d="M 661.669984,652.917496 A 212.345179,154.403611 149.036243 0,1 534.188405,696.215320" fill="none" stroke="blue" stroke-dasharray="10,10" stroke-dashoffset="0" stroke-width="6" /><line fill="blue" stroke="blue" stroke-linecap="round" stroke-width="6" x1="527" x2="540" y1="688" y2="703" /><path d="M 534.188405,696.215320 A 265.495908,208.957119 167.660913 0,1 523.780345,696.707517" fill="none" stroke="yellow" stroke-dasharray="10,10" stroke-dashoffset="10" stroke-width="6" /><path d="M 534.188405,696.215320 A 265.495908,208.957119 167.660913 0,1 523.780345,696.707517" fill="none" stroke="purple" stroke-dasharray="10,10" stroke-dashoffset="0" stroke-width="6" /><line fill="green" stroke="green" stroke-linecap="round" stroke-width="6" x1="529" x2="517" y1="688" y2="704" /><path d="M 523.780345,696.707517 A 222.484282,176.845288 180.000000 0,1 447.721168,688.565693" fill="none" stroke="green" stroke-dasharray="10,10" stroke-dashoffset="10" stroke-width="6" /><path d="M 523.780345,696.707517 A 222.484282,176.845288 180.000000 0,1 447.721168,688.565693" fill="none" stroke="purple" stroke-dasharray="10,10" stroke-dashoffset="0" stroke-width="6" /><line fill="cyan" stroke="cyan" stroke-linecap="round" stroke-width="6" x1="455" x2="440" y1="682" y2="694" /><path d="M 447.721168,688.565693 A 144.381785,112.787854 -146.309932 0,1 360.526150,636.843099" fill="none" stroke="cyan" stroke-dasharray="10,10" stroke-dashoffset="10" stroke-width="6" /><path d="M 447.721168,688.565693 A 144.381785,112.787854 -146.309932 0,1 360.526150,636.843099" fill="none" stroke="purple" stroke-dasharray="10,10" stroke-dashoffset="0" stroke-width="6" /><line fill="purple" stroke="purple" stroke-linecap="round" stroke-width="6" x1="362" x2="358" y1="626" y2="646" /><path d="M 360.526150,636.843099 A 205.209411,160.579894 -120.579227 0,1 313.357294,565.839323" fill="none" stroke="cyan" stroke-dasharray="10,10" stroke-dashoffset="10" stroke-width="6" /><path d="M 360.526150,636.843099 A 205.209411,160.579894 -120.579227 0,1 313.357294,565.839323" fill="none" stroke="red" stroke-dasharray="10,10" stroke-dashoffset="0" stroke-width="6" /><line fill="blue" stroke="blue" stroke-linecap="round" stroke-width="6" x1="323" x2="303" y1="568" y2="563" /><path d="M 313.357294,565.839323 A 163.978354,127.529999 -104.036243 0,1 301.783287,430.609471" fill="none" stroke="blue" stroke-dasharray="10,10" stroke-dashoffset="10" stroke-width="6" /><path d="M 313.357294,565.839323 A 163.978354,127.529999 -104.036243 0,1 301.783287,430.609471" fill="none" stroke="red" stroke-dasharray="10,10" stroke-dashoffset="0" stroke-width="6" /><line fill="purple" stroke="purple" stroke-linecap="round" stroke-width="6" x1="308" x2="295" y1="438" y2="423" /><path d="M 301.783287,430.609471 A 110.827625,92.643200 -80.537678 0,1 314.876875,400.000000" fill="none" stroke="purple" stroke-dasharray="10,10" stroke-dashoffset="10" stroke-width="6" /><path d="M 301.783287,430.609471 A 110.827625,92.643200 -80.537678 0,1 314.876875,400.000000" fill="none" stroke="red" stroke-dasharray="10,10" stroke-dashoffset="0" stroke-width="6" /><line fill="red" stroke="red" stroke-linecap="round" stroke-width="6" x1="324" x2="304" y1="400" y2="400" /><path d="M 314.876875,400.000000 A 210.827625,169.553200 -28.610460 0,1 415.375794,307.687897" fill="none" stroke="purple" stroke-dasharray="10,10" stroke-dashoffset="10" stroke-width="6" /><path d="M 314.876875,400.000000 A 210.827625,169.553200 -28.610460 0,1 415.375794,307.687897" fill="none" stroke="orange" stroke-dasharray="10,10" stroke-dashoffset="0" stroke-width="6" /><line fill="orange" stroke="orange" stroke-linecap="round" stroke-width="6" x1="424" x2="406" y1="312" y2="303" /><path d="M 415.375794,307.687897 A 266.729325,210.522048 -12.339087 0,1 415.386237,307.682579" fill="none" stroke="purple" stroke-dasharray="10,10" stroke-dashoffset="10" stroke-width="6" /><path d="M 415.375794,307.687897 A 266.729325,210.522048 -12.339087 0,1 415.386237,307.682579" fill="none" stroke="yellow" stroke-dasharray="10,10" stroke-dashoffset="0" stroke-width="6" /><line fill="red" stroke="red" stroke-linecap="round" stroke-width="6" x1="413" x2="417" y1="317" y2="297" /><path d="M 426.868418,238.789489 A 200.000000,173.205081 0.000000 0,1 357.294902,278.647451" fill="none" stroke="red" stroke-dasharray="10,10" stroke-dashoffset="10" stroke-width="6" /><path d="M 426.868418,238.789489 A 200.000000,173.205081 0.000000 0,1 357.294902,278.647451" fill="none" stroke="orange" stroke-dasharray="10,10" stroke-dashoffset="0" stroke-width="6" /><line fill="orange" stroke="orange" stroke-linecap="round" stroke-width="6" x1="366" x2="348" y1="283" y2="274" /><path d="M 357.294902,278.647451 A 255.901699,205.817103 9.462322 0,1 776.288445,343.196177" fill="none" stroke="red" stroke-dasharray="10,10" stroke-dashoffset="10" stroke-width="6" /><path d="M 357.294902,278.647451 A 255.901699,205.817103 9.462322 0,1 776.288445,343.196177" fill="none" stroke="yellow" stroke-dasharray="10,10" stroke-dashoffset="0" stroke-width="6" /><line fill="yellow" stroke="yellow" stroke-linecap="round" stroke-width="6" x1="770" x2="782" y1="351" y2="335" /><path d="M 776.288445,343.196177 A 298.913326,264.809698 25.641006 0,1 801.097793,394.085172" fill="none" stroke="red" stroke-dasharray="10,10" stroke-dashoffset="10" stroke-width="6" /><path d="M 776.288445,343.196177 A 298.913326,264.809698 25.641006 0,1 801.097793,394.085172" fill="none" stroke="green" stroke-dasharray="10,10" stroke-dashoffset="0" stroke-width="6" /><line fill="green" stroke="green" stroke-linecap="round" stroke-width="6" x1="793" x2="808" y1="400" y2="387" /><path d="M 801.097793,394.085172 A 377.015823,354.705414 59.420773 0,1 803.235738,400.000000" fill="none" stroke="red" stroke-dasharray="10,10" stroke-dashoffset="10" stroke-width="6" /><path d="M 801.097793,394.085172 A 377.015823,354.705414 59.420773 0,1 803.235738,400.000000" fill="none" stroke="cyan" stroke-dasharray="10,10" stroke-dashoffset="0" stroke-width="6" /><line fill="orange" stroke="orange" stroke-linecap="round" stroke-width="6" x1="793" x2="813" y1="400" y2="400" /><path d="M 803.235738,400.000000 A 277.015823,251.818915 107.650124 0,1 818.881248,509.440624" fill="none" stroke="orange" stroke-dasharray="10,10" stroke-dashoffset="10" stroke-width="6" /><path d="M 803.235738,400.000000 A 277.015823,251.818915 107.650124 0,1 818.881248,509.440624" fill="none" stroke="cyan" stroke-dasharray="10,10" stroke-dashoffset="0" stroke-width="6" /><line fill="yellow" stroke="yellow" stroke-linecap="round" stroke-width="6" x1="809" x2="827" y1="504" y2="513" /><path d="M 818.881248,509.440624 A 221.114123,185.584093 135.000000 0,1 739.792403,672.448101" fill="none" stroke="yellow" stroke-dasharray="10,10" stroke-dashoffset="10" stroke-width="6" /><path d="M 818.881248,509.440624 A 221.114123,185.584093 135.000000 0,1 739.792403,672.448101" fill="none" stroke="cyan" stroke-dasharray="10,10" stroke-dashoffset="0" stroke-width="6" /><line fill="cyan" stroke="cyan" stroke-linecap="round" stroke-width="6" x1="730" x2="749" y1="670" y2="674" /><path d="M 739.792403,672.448101 A 262.345179,218.116925 149.036243 0,1 582.480411,751.406184" fill="none" stroke="yellow" stroke-dasharray="10,10" stroke-dashoffset="10" stroke-width="6" /><path d="M 739.792403,672.448101 A 262.345179,218.116925 149.036243 0,1 582.480411,751.406184" fill="none" stroke="blue" stroke-dasharray="10,10" stroke-dashoffset="0" stroke-width="6" /><line fill="blue" stroke="blue" stroke-linecap="round" stroke-width="6" x1="575" x2="589" y1="743" y2="758" /><path d="M 582.480411,751.406184 A 315.495908,269.652866 167.660913 0,1 482.166756,754.966542" fill="none" stroke="yellow" stroke-dasharray="10,10" stroke-dashoffset="10" stroke-width="6" /><path d="M 582.480411,751.406184 A 315.495908,269.652866 167.660913 0,1 482.166756,754.966542" fill="none" stroke="purple" stroke-dasharray="10,10" stroke-dashoffset="0" stroke-width="6" /><line fill="green" stroke="green" stroke-linecap="round" stroke-width="6" x1="487" x2="476" y1="746" y2="763" /><path d="M 482.166756,754.966542 A 272.484282,236.691115 180.000000 0,1 394.997964,732.501697" fill="none" stroke="green" stroke-dasharray="10,10" stroke-dashoffset="10" stroke-width="6" /><path d="M 482.166756,754.966542 A 272.484282,236.691115 180.000000 0,1 394.997964,732.501697" fill="none" stroke="purple" stroke-dasharray="10,10" stroke-dashoffset="0" stroke-width="6" /><line fill="cyan" stroke="cyan" stroke-linecap="round" stroke-width="6" x1="402" x2="387" y1="726" y2="738" /><path d="M 394.997964,732.501697 A 194.381785,172.218694 -146.309932 0,1 349.020313,705.878123" fill="none" stroke="cyan" stroke-dasharray="10,10" stroke-dashoffset="10" stroke-width="6" /><path d="M 394.997964,732.501697 A 194.381785,172.218694 -146.309932 0,1 349.020313,705.878123" fill="none" stroke="purple" stroke-dasharray="10,10" stroke-dashoffset="0" stroke-width="6" /><line fill="purple" stroke="purple" stroke-linecap="round" stroke-width="6" x1="350" x2="347" y1="696" y2="715" /><path d="M 349.020313,705.878123 A 255.209411,220.922709 -120.579227 0,1 243.849996,548.462499" fill="none" stroke="cyan" stroke-dasharray="10,10" stroke-dashoffset="10" stroke-width="6" /><path d="M 349.020313,705.878123 A 255.209411,220.922709 -120.579227 0,1 243.849996,548.462499" fill="none" stroke="red" stroke-dasharray="10,10" stroke-dashoffset="0" stroke-width="6" /><line fill="blue" stroke="blue" stroke-linecap="round" stroke-width="6" x1="253" x2="234" y1="550" y2="546" /><path d="M 243.849996,548.462499 A 213.978354,187.514629 -104.036243 0,1 252.866440,400.000000" fill="none" stroke="blue" stroke-dasharray="10,10" stroke-dashoffset="10" stroke-width="6" /><path d="M 243.849996,548.462499 A 213.978354,187.514629 -104.036243 0,1 252.866440,400.000000" fill="none" stroke="red" stroke-dasharray="10,10" stroke-dashoffset="0" stroke-width="6" /><line fill="red" stroke="red" stroke-linecap="round" stroke-width="6" x1="262" x2="242" y1="400" y2="400" /><path d="M 252.866440,400.000000 A 313.978354,288.023275 -53.130102 0,1 260.391471,383.304538" fill="none" stroke="blue" stroke-dasharray="10,10" stroke-dashoffset="10" stroke-width="6" /><path d="M 252.866440,400.000000 A 313.978354,288.023275 -53.130102 0,1 260.391471,383.304538" fill="none" stroke="orange" stroke-dasharray="10,10" stroke-dashoffset="0" stroke-width="6" /><line fill="purple" stroke="purple" stroke-linecap="round" stroke-width="6" x1="266" x2="253" y1="390" y2="375" /><path d="M 260.391471,383.304538 A 260.827625,228.759809 -28.610460 0,1 352.705336,276.352668" fill="none" stroke="purple" stroke-dasharray="10,10" stroke-dashoffset="10" stroke-width="6" /><path d="M 260.391471,383.304538 A 260.827625,228.759809 -28.610460 0,1 352.705336,276.352668" fill="none" stroke="orange" stroke-dasharray="10,10" stroke-dashoffset="0" stroke-width="6" /><line fill="orange" stroke="orange" stroke-linecap="round" stroke-width="6" x1="361" x2="343" y1="280" y2="271" /><path d="M 352.705336,276.352668 A 316.729325,271.094938 -12.339087 0,1 427.213781,236.717313" fill="none" stroke="purple" stroke-dasharray="10,10" stroke-dashoffset="10" stroke-width="6" /><path d="M 352.705336,276.352668 A 316.729325,271.094938 -12.339087 0,1 427.213781,236.717313" fill="none" stroke="yellow" stroke-dasharray="10,10" stroke-dashoffset="0" stroke-width="6" /><line fill="red" stroke="red" stroke-linecap="round" stroke-width="6" x1="425" x2="428" y1="246" y2="226" /><path d="M 446.381416,121.711505 A 300.000000,282.842712 0.000000 0,1 260.167651,230.083826" fill="none" stroke="red" stroke-dasharray="10,10" stroke-dashoffset="10" stroke-width="6" /><path d="M 446.381416,121.711505 A 300.000000,282.842712 0.000000 0,1 260.167651,230.083826" fill="none" stroke="orange" stroke-dasharray="10,10" stroke-dashoffset="0" stroke-width="6" /><line fill="orange" stroke="orange" stroke-linecap="round" stroke-width="6" x1="269" x2="251" y1="234" y2="225" /><path d="M 260.167651,230.083826 A 355.901699,321.777904 9.462322 0,1 842.360346,250.695515" fill="none" stroke="red" stroke-dasharray="10,10" stroke-dashoffset="10" stroke-width="6" /><path d="M 260.167651,230.083826 A 355.901699,321.777904 9.462322 0,1 842.360346,250.695515" fill="none" stroke="yellow" stroke-dasharray="10,10" stroke-dashoffset="0" stroke-width="6" /><line fill="yellow" stroke="yellow" stroke-linecap="round" stroke-width="6" x1="836" x2="848" y1="258" y2="242" /><path d="M 842.360346,250.695515 A 398.913326,374.041230 25.641006 0,1 885.426875,323.810938" fill="none" stroke="red" stroke-dasharray="10,10" stroke-dashoffset="10" stroke-width="6" /><path d="M 842.360346,250.695515 A 398.913326,374.041230 25.641006 0,1 885.426875,323.810938" fill="none" stroke="green" stroke-dasharray="10,10" stroke-dashoffset="0" stroke-width="6" /><line fill="green" stroke="green" stroke-linecap="round" stroke-width="6" x1="877" x2="893" y1="330" y2="317" /><path d="M 885.426875,323.810938 A 477.015823,459.585786 59.420773 0,1 912.648018,400.000000" fill="none" stroke="red" stroke-dasharray="10,10" stroke-dashoffset="10" stroke-width="6" /><path d="M 885.426875,323.810938 A 477.015823,459.585786 59.420773 0,1 912.648018,400.000000" fill="none" stroke="cyan" stroke-dasharray="10,10" stroke-dashoffset="0" stroke-width="6" /><line fill="orange" stroke="orange" stroke-linecap="round" stroke-width="6" x1="902" x2="922" y1="400" y2="400" /><path d="M 912.648018,400.000000 A 377.015823,358.909362 107.650124 0,1 920.823501,560.411750" fill="none" stroke="orange" stroke-dasharray="10,10" stroke-dashoffset="10" stroke-width="6" /><path d="M 912.648018,400.000000 A 377.015823,358.909362 107.650124 0,1 920.823501,560.411750" fill="none" stroke="cyan" stroke-dasharray="10,10" stroke-dashoffset="0" stroke-width="6" /><line fill="yellow" stroke="yellow" stroke-linecap="round" stroke-width="6" x1="911" x2="929" y1="555" y2="564" /><path d="M 920.823501,560.411750 A 321.114123,297.765478 135.000000 0,1 861.769209,702.942302" fill="none" stroke="yellow" stroke-dasharray="10,10" stroke-dashoffset="10" stroke-width="6" /><path d="M 920.823501,560.411750 A 321.114123,297.765478 135.000000 0,1 861.769209,702.942302" fill="none" stroke="cyan" stroke-dasharray="10,10" stroke-dashoffset="0" stroke-width="6" /><line fill="cyan" stroke="cyan" stroke-linecap="round" stroke-width="6" x1="852" x2="871" y1="700" y2="705" /><path d="M 861.769209,702.942302 A 362.345179,331.728849 149.036243 0,1 665.363470,846.129680" fill="none" stroke="yellow" stroke-dasharray="10,10" stroke-dashoffset="10" stroke-width="6" /><path d="M 861.769209,702.942302 A 362.345179,331.728849 149.036243 0,1 665.363470,846.129680" fill="none" stroke="blue" stroke-dasharray="10,10" stroke-dashoffset="0" stroke-width="6" /><line fill="blue" stroke="blue" stroke-linecap="round" stroke-width="6" x1="658" x2="671" y1="838" y2="853" /><path d="M 665.363470,846.129680 A 415.495908,381.853178 167.660913 0,1 411.746668,853.554665" fill="none" stroke="yellow" stroke-dasharray="10,10" stroke-dashoffset="10" stroke-width="6" /><path d="M 665.363470,846.129680 A 415.495908,381.853178 167.660913 0,1 411.746668,853.554665" fill="none" stroke="purple" stroke-dasharray="10,10" stroke-dashoffset="0" stroke-width="6" /><line fill="green" stroke="green" stroke-linecap="round" stroke-width="6" x1="417" x2="405" y1="845" y2="861" /><path d="M 411.746668,853.554665 A 372.484282,347.159244 180.000000 0,1 329.798866,821.206803" fill="none" stroke="green" stroke-dasharray="10,10" stroke-dashoffset="10" stroke-width="6" /><path d="M 411.746668,853.554665 A 372.484282,347.159244 180.000000 0,1 329.798866,821.206803" fill="none" stroke="purple" stroke-dasharray="10,10" stroke-dashoffset="0" stroke-width="6" /><line fill="purple" stroke="purple" stroke-linecap="round" stroke-width="6" x1="331" x2="328" y1="811" y2="831" /><path d="M 329.798866,821.206803 A 433.311907,410.529182 -154.358994 0,1 305.381471,807.182108" fill="none" stroke="green" stroke-dasharray="10,10" stroke-dashoffset="10" stroke-width="6" /><path d="M 329.798866,821.206803 A 433.311907,410.529182 -154.358994 0,1 305.381471,807.182108" fill="none" stroke="red" stroke-dasharray="10,10" stroke-dashoffset="0" stroke-width="6" /><line fill="cyan" stroke="cyan" stroke-linecap="round" stroke-width="6" x1="313" x2="297" y1="800" y2="813" /><path d="M 305.381471,807.182108 A 355.209411,331.434346 -120.579227 0,1 128.566981,519.641745" fill="none" stroke="cyan" stroke-dasharray="10,10" stroke-dashoffset="10" stroke-width="6" /><path d="M 305.381471,807.182108 A 355.209411,331.434346 -120.579227 0,1 128.566981,519.641745" fill="none" stroke="red" stroke-dasharray="10,10" stroke-dashoffset="0" stroke-width="6" /><line fill="blue" stroke="blue" stroke-linecap="round" stroke-width="6" x1="138" x2="118" y1="522" y2="517" /><path d="M 128.566981,519.641745 A 313.978354,296.576140 -104.036243 0,1 140.522054,400.000000" fill="none" stroke="blue" stroke-dasharray="10,10" stroke-dashoffset="10" stroke-width="6" /><path d="M 128.566981,519.641745 A 313.978354,296.576140 -104.036243 0,1 140.522054,400.000000" fill="none" stroke="red" stroke-dasharray="10,10" stroke-dashoffset="0" stroke-width="6" /><line fill="red" stroke="red" stroke-linecap="round" stroke-width="6" x1="150" x2="130" y1="400" y2="400" /><path d="M 140.522054,400.000000 A 413.978354,394.655645 -53.130102 0,1 185.733406,297.981035" fill="none" stroke="blue" stroke-dasharray="10,10" stroke-dashoffset="10" stroke-width="6" /><path d="M 140.522054,400.000000 A 413.978354,394.655645 -53.130102 0,1 185.733406,297.981035" fill="none" stroke="orange" stroke-dasharray="10,10" stroke-dashoffset="0" stroke-width="6" /><line fill="purple" stroke="purple" stroke-linecap="round" stroke-width="6" x1="192" x2="179" y1="305" y2="290" /><path d="M 185.733406,297.981035 A 360.827625,338.373426 -28.610460 0,1 245.979090,222.989545" fill="none" stroke="purple" stroke-dasharray="10,10" stroke-dashoffset="10" stroke-width="6" /><path d="M 185.733406,297.981035 A 360.827625,338.373426 -28.610460 0,1 245.979090,222.989545" fill="none" stroke="orange" stroke-dasharray="10,10" stroke-dashoffset="0" stroke-width="6" /><line fill="orange" stroke="orange" stroke-linecap="round" stroke-width="6" x1="254" x2="237" y1="227" y2="218" /><path d="M 245.979090,222.989545 A 416.729325,383.194898 -12.339087 0,1 447.827922,113.032467" fill="none" stroke="purple" stroke-dasharray="10,10" stroke-dashoffset="10" stroke-width="6" /><path d="M 245.979090,222.989545 A 416.729325,383.194898 -12.339087 0,1 447.827922,113.032467" fill="none" stroke="yellow" stroke-dasharray="10,10" stroke-dashoffset="0" stroke-width="6" /><line fill="red" stroke="red" stroke-linecap="round" stroke-width="6" x1="446" x2="449" y1="122" y2="103" /></svg>