<?xml version="1.0" encoding="utf-8" ?>
<svg baseProfile="full" height="1000" version="1.1" width="1000" xmlns="http://www.w3.org/2000/svg" xmlns:ev="http://www.w3.org/2001/xml-events" xmlns:xlink="http://www.w3.org/1999/xlink"><defs /><g fill="none" stroke="green" stroke-width="2" transform="rotate(-26.565051,500.000000,450.000000)"><circle cx="388.1966011250105" cy="450.0" r="5" stroke="red" /><circle cx="611.8033988749895" cy="450.0" r="5" stroke="orange" /><path d="M 388.196601,450.000000 A 111.803399,0.000002 0 0,1 611.803399,450.000000" stroke="green" stroke-width="4" /></g><g fill="none" stroke="orange" stroke-width="2" transform="rotate(-116.565051,450.000000,600.000000)"><circle cx="338.1966011250105" cy="600.0" r="5" stroke="green" /><circle cx="561.8033988749895" cy="600.0" r="5" stroke="red" /><path d="M 561.803399,823.606798 A 269.917282,245.673236 0 0,1 561.803399,823.606798" stroke="orange" stroke-width="4" /></g><g fill="none" stroke="red" stroke-width="2" transform="rotate(108.434949,550.000000,550.000000)"><circle cx="391.88611699158105" cy="550.0" r="5" stroke="orange" /><circle cx="708.113883008419" cy="550.0" r="5" stroke="green" /><path d="M 391.886117,550.000000 A 158.113883,0.000000 0 0,1 708.113883,550.000000" stroke="red" stroke-width="4" /></g><g fill="none" stroke="green" stroke-width="2" transform="rotate(-26.565051,500.000000,450.000000)"><circle cx="388.1966011250105" cy="450.0" r="5" stroke="red" /><circle cx="611.8033988749895" cy="450.0" r="5" stroke="orange" /><path d="M 388.196601,673.606798 A 269.917282,245.673236 0 0,1 388.196601,673.606798" stroke="green" stroke-width="4" /></g><g fill="none" stroke="orange" stroke-width="2" transform="rotate(-116.565051,450.000000,600.000000)"><circle cx="338.1966011250105" cy="600.0" r="5" stroke="green" /><circle cx="561.8033988749895" cy="600.0" r="5" stroke="red" /><path d="M 338.196601,600.000000 A 111.803399,0.000000 0 0,1 561.803399,600.000000" stroke="orange" stroke-width="4" /></g><g fill="none" stroke="red" stroke-width="2" transform="rotate(108.434949,550.000000,550.000000)"><circle cx="391.88611699158105" cy="550.0" r="5" stroke="orange" /><circle cx="708.113883008419" cy="550.0" r="5" stroke="green" /><path d="M 550.000000,708.113883 A 223.606798,158.113883 0 0,1 550.000000,708.113883" stroke="red" stroke-width="4" /></g><g fill="none" stroke="green" stroke-width="2" transform="rotate(-26.565051,500.000000,450.000000)"><circle cx="388.1966011250105" cy="450.0" r="5" stroke="red" /><circle cx="611.8033988749895" cy="450.0" r="5" stroke="orange" /><path d="M 388.196601,440.214035 A 116.803399,33.808786 0 0,1 615.930049,445.873350" stroke="green" stroke-width="4" /></g><g fill="none" stroke="orange" stroke-width="2" transform="rotate(-116.565051,450.000000,600.000000)"><circle cx="338.1966011250105" cy="600.0" r="5" stroke="green" /><circle cx="561.8033988749895" cy="600.0" r="5" stroke="red" /><path d="M 565.930049,827.733448 A 274.917282,251.156349 0 0,1 561.803399,829.449060" stroke="orange" stroke-width="4" /></g><g fill="none" stroke="red" stroke-width="2" transform="rotate(108.434949,550.000000,550.000000)"><circle cx="391.88611699158105" cy="550.0" r="5" stroke="orange" /><circle cx="708.113883008419" cy="550.0" r="5" stroke="green" /><path d="M 387.755014,545.868897 A 163.113883,40.076662 0 0,1 712.244986,545.868897" stroke="red" stroke-width="4" /></g><g fill="none" stroke="green" stroke-width="2" transform="rotate(-26.565051,500.000000,450.000000)"><circle cx="388.1966011250105" cy="450.0" r="5" stroke="red" /><circle cx="611.8033988749895" cy="450.0" r="5" stroke="orange" /><path d="M 388.196601,679.449060 A 274.917282,251.156349 0 0,1 384.069951,677.733448" stroke="green" stroke-width="4" /></g><g fill="none" stroke="orange" stroke-width="2" transform="rotate(-116.565051,450.000000,600.000000)"><circle cx="338.1966011250105" cy="600.0" r="5" stroke="green" /><circle cx="561.8033988749895" cy="600.0" r="5" stroke="red" /><path d="M 334.069951,595.873350 A 116.803399,33.808786 0 0,1 561.803399,590.214035" stroke="orange" stroke-width="4" /></g><g fill="none" stroke="red" stroke-width="2" transform="rotate(108.434949,550.000000,550.000000)"><circle cx="391.88611699158105" cy="550.0" r="5" stroke="orange" /><circle cx="708.113883008419" cy="550.0" r="5" stroke="green" /><path d="M 556.919722,715.033605 A 228.606798,165.109261 0 0,1 543.080278,715.033605" stroke="red" stroke-width="4" /></g><g fill="none" stroke="green" stroke-width="2" transform="rotate(-26.565051,500.000000,450.000000)"><circle cx="388.1966011250105" cy="450.0" r="5" stroke="red" /><circle cx="611.8033988749895" cy="450.0" r="5" stroke="orange" /><path d="M 388.196601,404.568600 A 136.803399,78.836349 0 0,1 632.162807,429.640592" stroke="green" stroke-width="4" /></g><g fill="none" stroke="orange" stroke-width="2" transform="rotate(-116.565051,450.000000,600.000000)"><circle cx="338.1966011250105" cy="600.0" r="5" stroke="green" /><circle cx="561.8033988749895" cy="600.0" r="5" stroke="red" /><path d="M 582.162807,843.966206 A 294.917282,272.903285 0 0,1 561.803399,852.532516" stroke="orange" stroke-width="4" /></g><g fill="none" stroke="red" stroke-width="2" transform="rotate(108.434949,550.000000,550.000000)"><circle cx="391.88611699158105" cy="550.0" r="5" stroke="orange" /><circle cx="708.113883008419" cy="550.0" r="5" stroke="green" /><path d="M 371.432546,529.546429 A 183.113883,92.361757 0 0,1 728.567454,529.546429" stroke="red" stroke-width="4" /></g><g fill="none" stroke="green" stroke-width="2" transform="rotate(-26.565051,500.000000,450.000000)"><circle cx="388.1966011250105" cy="450.0" r="5" stroke="red" /><circle cx="611.8033988749895" cy="450.0" r="5" stroke="orange" /><path d="M 388.196601,702.532516 A 294.917282,272.903285 0 0,1 367.837193,693.966206" stroke="green" stroke-width="4" /></g><g fill="none" stroke="orange" stroke-width="2" transform="rotate(-116.565051,450.000000,600.000000)"><circle cx="338.1966011250105" cy="600.0" r="5" stroke="green" /><circle cx="561.8033988749895" cy="600.0" r="5" stroke="red" /><path d="M 317.837193,579.640592 A 136.803399,78.836349 0 0,1 561.803399,554.568600" stroke="orange" stroke-width="4" /></g><g fill="none" stroke="red" stroke-width="2" transform="rotate(108.434949,550.000000,550.000000)"><circle cx="391.88611699158105" cy="550.0" r="5" stroke="orange" /><circle cx="708.113883008419" cy="550.0" r="5" stroke="green" /><path d="M 582.124851,740.238734 A 248.606798,191.847178 0 0,1 517.875149,740.238734" stroke="red" stroke-width="4" /></g><g fill="none" stroke="green" stroke-width="2" transform="rotate(-26.565051,500.000000,450.000000)"><circle cx="388.1966011250105" cy="450.0" r="5" stroke="red" /><circle cx="611.8033988749895" cy="450.0" r="5" stroke="orange" /><path d="M 388.196601,330.111872 A 186.803399,149.651294 0 0,1 671.368571,390.434828" stroke="green" stroke-width="4" /></g><g fill="none" stroke="orange" stroke-width="2" transform="rotate(-116.565051,450.000000,600.000000)"><circle cx="338.1966011250105" cy="600.0" r="5" stroke="green" /><circle cx="561.8033988749895" cy="600.0" r="5" stroke="red" /><path d="M 621.368571,883.171970 A 344.917282,326.294240 0 0,1 561.803399,908.676709" stroke="orange" stroke-width="4" /></g><g fill="none" stroke="red" stroke-width="2" transform="rotate(108.434949,550.000000,550.000000)"><circle cx="391.88611699158105" cy="550.0" r="5" stroke="orange" /><circle cx="708.113883008419" cy="550.0" r="5" stroke="green" /><path d="M 331.732606,489.846489 A 233.113883,171.295308 0 0,1 768.267394,489.846489" stroke="red" stroke-width="4" /></g><g fill="none" stroke="green" stroke-width="2" transform="rotate(-26.565051,500.000000,450.000000)"><circle cx="388.1966011250105" cy="450.0" r="5" stroke="red" /><circle cx="611.8033988749895" cy="450.0" r="5" stroke="orange" /><path d="M 388.196601,758.676709 A 344.917282,326.294240 0 0,1 328.631429,733.171970" stroke="green" stroke-width="4" /></g><g fill="none" stroke="orange" stroke-width="2" transform="rotate(-116.565051,450.000000,600.000000)"><circle cx="338.1966011250105" cy="600.0" r="5" stroke="green" /><circle cx="561.8033988749895" cy="600.0" r="5" stroke="red" /><path d="M 278.631429,540.434828 A 186.803399,149.651294 0 0,1 561.803399,480.111872" stroke="orange" stroke-width="4" /></g><g fill="none" stroke="red" stroke-width="2" transform="rotate(108.434949,550.000000,550.000000)"><circle cx="391.88611699158105" cy="550.0" r="5" stroke="orange" /><circle cx="708.113883008419" cy="550.0" r="5" stroke="green" /><path d="M 634.773708,792.887591 A 298.606798,253.310125 0 0,1 465.226292,792.887591" stroke="red" stroke-width="4" /></g><g fill="none" stroke="green" stroke-width="2" transform="rotate(-26.565051,500.000000,450.000000)"><circle cx="388.1966011250105" cy="450.0" r="5" stroke="red" /><circle cx="611.8033988749895" cy="450.0" r="5" stroke="orange" /><path d="M 388.196601,265.983006 A 236.803399,208.748293 0 0,1 709.355307,352.448092" stroke="green" stroke-width="4" /></g><g fill="none" stroke="orange" stroke-width="2" transform="rotate(-116.565051,450.000000,600.000000)"><circle cx="338.1966011250105" cy="600.0" r="5" stroke="green" /><circle cx="561.8033988749895" cy="600.0" r="5" stroke="red" /><path d="M 659.355307,921.158706 A 394.917282,378.760689 0 0,1 561.803399,963.265084" stroke="orange" stroke-width="4" /></g><g fill="none" stroke="red" stroke-width="2" transform="rotate(108.434949,550.000000,550.000000)"><circle cx="391.88611699158105" cy="550.0" r="5" stroke="orange" /><circle cx="708.113883008419" cy="550.0" r="5" stroke="green" /><path d="M 293.132796,451.246679 A 283.113883,234.847761 0 0,1 806.867204,451.246679" stroke="red" stroke-width="4" /></g><g fill="none" stroke="green" stroke-width="2" transform="rotate(-26.565051,500.000000,450.000000)"><circle cx="388.1966011250105" cy="450.0" r="5" stroke="red" /><circle cx="611.8033988749895" cy="450.0" r="5" stroke="orange" /><path d="M 388.196601,813.265084 A 394.917282,378.760689 0 0,1 290.644693,771.158706" stroke="green" stroke-width="4" /></g><g fill="none" stroke="orange" stroke-width="2" transform="rotate(-116.565051,450.000000,600.000000)"><circle cx="338.1966011250105" cy="600.0" r="5" stroke="green" /><circle cx="561.8033988749895" cy="600.0" r="5" stroke="red" /><path d="M 240.644693,502.448092 A 236.803399,208.748293 0 0,1 561.803399,415.983006" stroke="orange" stroke-width="4" /></g><g fill="none" stroke="red" stroke-width="2" transform="rotate(108.434949,550.000000,550.000000)"><circle cx="391.88611699158105" cy="550.0" r="5" stroke="orange" /><circle cx="708.113883008419" cy="550.0" r="5" stroke="green" /><path d="M 680.119665,838.233548 A 348.606798,310.687463 0 0,1 419.880335,838.233548" stroke="red" stroke-width="4" /></g><g fill="none" stroke="green" stroke-width="2" transform="rotate(-26.565051,500.000000,450.000000)"><circle cx="388.1966011250105" cy="450.0" r="5" stroke="red" /><circle cx="611.8033988749895" cy="450.0" r="5" stroke="orange" /><path d="M 388.196601,122.745751 A 361.803399,344.095480 0 0,1 801.710807,260.092592" stroke="green" stroke-width="4" /></g><g fill="none" stroke="orange" stroke-width="2" transform="rotate(-116.565051,450.000000,600.000000)"><circle cx="338.1966011250105" cy="600.0" r="5" stroke="green" /><circle cx="561.8033988749895" cy="600.0" r="5" stroke="red" /><path d="M 751.710807,1013.514206 A 519.917282,507.753858 0 0,1 561.803399,1095.874996" stroke="orange" stroke-width="4" /></g><g fill="none" stroke="red" stroke-width="2" transform="rotate(108.434949,550.000000,550.000000)"><circle cx="391.88611699158105" cy="550.0" r="5" stroke="orange" /><circle cx="708.113883008419" cy="550.0" r="5" stroke="green" /><path d="M 199.363428,357.477311 A 408.113883,376.240537 0 0,1 900.636572,357.477311" stroke="red" stroke-width="4" /></g><g fill="none" stroke="green" stroke-width="2" transform="rotate(-26.565051,500.000000,450.000000)"><circle cx="388.1966011250105" cy="450.0" r="5" stroke="red" /><circle cx="611.8033988749895" cy="450.0" r="5" stroke="orange" /><path d="M 388.196601,945.874996 A 519.917282,507.753858 0 0,1 198.289193,863.514206" stroke="green" stroke-width="4" /></g><g fill="none" stroke="orange" stroke-width="2" transform="rotate(-116.565051,450.000000,600.000000)"><circle cx="338.1966011250105" cy="600.0" r="5" stroke="green" /><circle cx="561.8033988749895" cy="600.0" r="5" stroke="red" /><path d="M 148.289193,410.092592 A 361.803399,344.095480 0 0,1 561.803399,272.745751" stroke="orange" stroke-width="4" /></g><g fill="none" stroke="red" stroke-width="2" transform="rotate(108.434949,550.000000,550.000000)"><circle cx="391.88611699158105" cy="550.0" r="5" stroke="orange" /><circle cx="708.113883008419" cy="550.0" r="5" stroke="green" /><path d="M 781.403698,939.517581 A 473.606798,446.434092 0 0,1 318.596302,939.517581" stroke="red" stroke-width="4" /></g></svg>