<?xml version="1.0" encoding="utf-8" ?>
<svg baseProfile="full" height="1000" version="1.1" width="1000" xmlns="http://www.w3.org/2000/svg" xmlns:ev="http://www.w3.org/2001/xml-events" xmlns:xlink="http://www.w3.org/1999/xlink"><defs /><g fill="none" stroke="green" stroke-width="2" transform="translate(500.000000,450.000000),rotate(-26.565051,0,0),scale(1,-1)"><circle cx="-111.80339887498948" cy="0" r="5" stroke="red" /><circle cx="111.80339887498948" cy="0" r="5" stroke="orange" /><path d="M -111.803399,0.000000 A 111.803399,0.000002 0 0,0 111.803399,0.000000" stroke="green" stroke-width="4" /></g><g fill="none" stroke="orange" stroke-width="2" transform="translate(450.000000,600.000000),rotate(63.434949,0,0),scale(1,-1)"><circle cx="-111.80339887498948" cy="0" r="5" stroke="red" /><circle cx="111.80339887498948" cy="0" r="5" stroke="green" /><path d="M -111.803399,223.606798 A 269.917282,245.673236 0 0,0 -111.803399,223.606798" stroke="orange" stroke-width="4" /></g><g fill="none" stroke="red" stroke-width="2" transform="translate(550.000000,550.000000),rotate(108.434949,0,0),scale(1,-1)"><circle cx="-158.11388300841898" cy="0" r="5" stroke="orange" /><circle cx="158.11388300841898" cy="0" r="5" stroke="green" /><path d="M -158.113883,0.000000 A 158.113883,0.000000 0 0,0 158.113883,0.000000" stroke="red" stroke-width="4" /></g><g fill="none" stroke="green" stroke-width="2" transform="translate(500.000000,450.000000),rotate(153.434949,0,0),scale(1,-1)"><circle cx="-111.80339887498948" cy="0" r="5" stroke="orange" /><circle cx="111.80339887498948" cy="0" r="5" stroke="red" /><path d="M 111.803399,223.606798 A 269.917282,245.673236 0 0,0 111.803399,223.606798" stroke="green" stroke-width="4" /></g><g fill="none" stroke="orange" stroke-width="2" transform="translate(450.000000,600.000000),rotate(-116.565051,0,0),scale(1,-1)"><circle cx="-111.80339887498948" cy="0" r="5" stroke="green" /><circle cx="111.80339887498948" cy="0" r="5" stroke="red" /><path d="M -111.803399,0.000000 A 111.803399,0.000000 0 0,0 111.803399,0.000000" stroke="orange" stroke-width="4" /></g><g fill="none" stroke="red" stroke-width="2" transform="translate(550.000000,550.000000),rotate(-71.565051,0,0),scale(1,-1)"><circle cx="-158.11388300841898" cy="0" r="5" stroke="green" /><circle cx="158.11388300841898" cy="0" r="5" stroke="orange" /><path d="M -0.000000,158.113883 A 223.606798,158.113883 0 0,0 0.000000,158.113883" stroke="red" stroke-width="4" /></g><g fill="none" stroke="green" stroke-width="2" transform="translate(500.000000,450.000000),rotate(-26.565051,0,0),scale(1,-1)"><circle cx="-111.80339887498948" cy="0" r="5" stroke="red" /><circle cx="111.80339887498948" cy="0" r="5" stroke="orange" /><path d="M -111.803399,9.785965 A 116.803399,33.808786 0 0,0 115.930049,4.126650" stroke="green" stroke-width="4" /></g><g fill="none" stroke="orange" stroke-width="2" transform="translate(450.000000,600.000000),rotate(63.434949,0,0),scale(1,-1)"><circle cx="-111.80339887498948" cy="0" r="5" stroke="red" /><circle cx="111.80339887498948" cy="0" r="5" stroke="green" /><path d="M -115.930049,227.733448 A 274.917282,251.156349 0 0,0 -111.803399,229.449060" stroke="orange" stroke-width="4" /></g><g fill="none" stroke="red" stroke-width="2" transform="translate(550.000000,550.000000),rotate(108.434949,0,0),scale(1,-1)"><circle cx="-158.11388300841898" cy="0" r="5" stroke="orange" /><circle cx="158.11388300841898" cy="0" r="5" stroke="green" /><path d="M -162.244986,4.131103 A 163.113883,40.076662 0 0,0 162.244986,4.131103" stroke="red" stroke-width="4" /></g><g fill="none" stroke="green" stroke-width="2" transform="translate(500.000000,450.000000),rotate(153.434949,0,0),scale(1,-1)"><circle cx="-111.80339887498948" cy="0" r="5" stroke="orange" /><circle cx="111.80339887498948" cy="0" r="5" stroke="red" /><path d="M 111.803399,229.449060 A 274.917282,251.156349 0 0,0 115.930049,227.733448" stroke="green" stroke-width="4" /></g><g fill="none" stroke="orange" stroke-width="2" transform="translate(450.000000,600.000000),rotate(-116.565051,0,0),scale(1,-1)"><circle cx="-111.80339887498948" cy="0" r="5" stroke="green" /><circle cx="111.80339887498948" cy="0" r="5" stroke="red" /><path d="M -115.930049,4.126650 A 116.803399,33.808786 0 0,0 111.803399,9.785965" stroke="orange" stroke-width="4" /></g><g fill="none" stroke="red" stroke-width="2" transform="translate(550.000000,550.000000),rotate(-71.565051,0,0),scale(1,-1)"><circle cx="-158.11388300841898" cy="0" r="5" stroke="green" /><circle cx="158.11388300841898" cy="0" r="5" stroke="orange" /><path d="M -6.919722,165.033605 A 228.606798,165.109261 0 0,0 6.919722,165.033605" stroke="red" stroke-width="4" /></g><g fill="none" stroke="green" stroke-width="2" transform="translate(500.000000,450.000000),rotate(-26.565051,0,0),scale(1,-1)"><circle cx="-111.80339887498948" cy="0" r="5" stroke="red" /><circle cx="111.80339887498948" cy="0" r="5" stroke="orange" /><path d="M -111.803399,45.431400 A 136.803399,78.836349 0 0,0 132.162807,20.359408" stroke="green" stroke-width="4" /></g><g fill="none" stroke="orange" stroke-width="2" transform="translate(450.000000,600.000000),rotate(63.434949,0,0),scale(1,-1)"><circle cx="-111.80339887498948" cy="0" r="5" stroke="red" /><circle cx="111.80339887498948" cy="0" r="5" stroke="green" /><path d="M -132.162807,243.966206 A 294.917282,272.903285 0 0,0 -111.803399,252.532516" stroke="orange" stroke-width="4" /></g><g fill="none" stroke="red" stroke-width="2" transform="translate(550.000000,550.000000),rotate(108.434949,0,0),scale(1,-1)"><circle cx="-158.11388300841898" cy="0" r="5" stroke="orange" /><circle cx="158.11388300841898" cy="0" r="5" stroke="green" /><path d="M -178.567454,20.453571 A 183.113883,92.361757 0 0,0 178.567454,20.453571" stroke="red" stroke-width="4" /></g><g fill="none" stroke="green" stroke-width="2" transform="translate(500.000000,450.000000),rotate(153.434949,0,0),scale(1,-1)"><circle cx="-111.80339887498948" cy="0" r="5" stroke="orange" /><circle cx="111.80339887498948" cy="0" r="5" stroke="red" /><path d="M 111.803399,252.532516 A 294.917282,272.903285 0 0,0 132.162807,243.966206" stroke="green" stroke-width="4" /></g><g fill="none" stroke="orange" stroke-width="2" transform="translate(450.000000,600.000000),rotate(-116.565051,0,0),scale(1,-1)"><circle cx="-111.80339887498948" cy="0" r="5" stroke="green" /><circle cx="111.80339887498948" cy="0" r="5" stroke="red" /><path d="M -132.162807,20.359408 A 136.803399,78.836349 0 0,0 111.803399,45.431400" stroke="orange" stroke-width="4" /></g><g fill="none" stroke="red" stroke-width="2" transform="translate(550.000000,550.000000),rotate(-71.565051,0,0),scale(1,-1)"><circle cx="-158.11388300841898" cy="0" r="5" stroke="green" /><circle cx="158.11388300841898" cy="0" r="5" stroke="orange" /><path d="M -32.124851,190.238734 A 248.606798,191.847178 0 0,0 32.124851,190.238734" stroke="red" stroke-width="4" /></g><g fill="none" stroke="green" stroke-width="2" transform="translate(500.000000,450.000000),rotate(-26.565051,0,0),scale(1,-1)"><circle cx="-111.80339887498948" cy="0" r="5" stroke="red" /><circle cx="111.80339887498948" cy="0" r="5" stroke="orange" /><path d="M -111.803399,119.888128 A 186.803399,149.651294 0 0,0 171.368571,59.565172" stroke="green" stroke-width="4" /></g><g fill="none" stroke="orange" stroke-width="2" transform="translate(450.000000,600.000000),rotate(63.434949,0,0),scale(1,-1)"><circle cx="-111.80339887498948" cy="0" r="5" stroke="red" /><circle cx="111.80339887498948" cy="0" r="5" stroke="green" /><path d="M -171.368571,283.171970 A 344.917282,326.294240 0 0,0 -111.803399,308.676709" stroke="orange" stroke-width="4" /></g><g fill="none" stroke="red" stroke-width="2" transform="translate(550.000000,550.000000),rotate(108.434949,0,0),scale(1,-1)"><circle cx="-158.11388300841898" cy="0" r="5" stroke="orange" /><circle cx="158.11388300841898" cy="0" r="5" stroke="green" /><path d="M -218.267394,60.153511 A 233.113883,171.295308 0 0,0 218.267394,60.153511" stroke="red" stroke-width="4" /></g><g fill="none" stroke="green" stroke-width="2" transform="translate(500.000000,450.000000),rotate(153.434949,0,0),scale(1,-1)"><circle cx="-111.80339887498948" cy="0" r="5" stroke="orange" /><circle cx="111.80339887498948" cy="0" r="5" stroke="red" /><path d="M 111.803399,308.676709 A 344.917282,326.294240 0 0,0 171.368571,283.171970" stroke="green" stroke-width="4" /></g><g fill="none" stroke="orange" stroke-width="2" transform="translate(450.000000,600.000000),rotate(-116.565051,0,0),scale(1,-1)"><circle cx="-111.80339887498948" cy="0" r="5" stroke="green" /><circle cx="111.80339887498948" cy="0" r="5" stroke="red" /><path d="M -171.368571,59.565172 A 186.803399,149.651294 0 0,0 111.803399,119.888128" stroke="orange" stroke-width="4" /></g><g fill="none" stroke="red" stroke-width="2" transform="translate(550.000000,550.000000),rotate(-71.565051,0,0),scale(1,-1)"><circle cx="-158.11388300841898" cy="0" r="5" stroke="green" /><circle cx="158.11388300841898" cy="0" r="5" stroke="orange" /><path d="M -84.773708,242.887591 A 298.606798,253.310125 0 0,0 84.773708,242.887591" stroke="red" stroke-width="4" /></g><g fill="none" stroke="green" stroke-width="2" transform="translate(500.000000,450.000000),rotate(-26.565051,0,0),scale(1,-1)"><circle cx="-111.80339887498948" cy="0" r="5" stroke="red" /><circle cx="111.80339887498948" cy="0" r="5" stroke="orange" /><path d="M -111.803399,184.016994 A 236.803399,208.748293 0 0,0 209.355307,97.551908" stroke="green" stroke-width="4" /></g><g fill="none" stroke="orange" stroke-width="2" transform="translate(450.000000,600.000000),rotate(63.434949,0,0),scale(1,-1)"><circle cx="-111.80339887498948" cy="0" r="5" stroke="red" /><circle cx="111.80339887498948" cy="0" r="5" stroke="green" /><path d="M -209.355307,321.158706 A 394.917282,378.760689 0 0,0 -111.803399,363.265084" stroke="orange" stroke-width="4" /></g><g fill="none" stroke="red" stroke-width="2" transform="translate(550.000000,550.000000),rotate(108.434949,0,0),scale(1,-1)"><circle cx="-158.11388300841898" cy="0" r="5" stroke="orange" /><circle cx="158.11388300841898" cy="0" r="5" stroke="green" /><path d="M -256.867204,98.753321 A 283.113883,234.847761 0 0,0 256.867204,98.753321" stroke="red" stroke-width="4" /></g><g fill="none" stroke="green" stroke-width="2" transform="translate(500.000000,450.000000),rotate(153.434949,0,0),scale(1,-1)"><circle cx="-111.80339887498948" cy="0" r="5" stroke="orange" /><circle cx="111.80339887498948" cy="0" r="5" stroke="red" /><path d="M 111.803399,363.265084 A 394.917282,378.760689 0 0,0 209.355307,321.158706" stroke="green" stroke-width="4" /></g><g fill="none" stroke="orange" stroke-width="2" transform="translate(450.000000,600.000000),rotate(-116.565051,0,0),scale(1,-1)"><circle cx="-111.80339887498948" cy="0" r="5" stroke="green" /><circle cx="111.80339887498948" cy="0" r="5" stroke="red" /><path d="M -209.355307,97.551908 A 236.803399,208.748293 0 0,0 111.803399,184.016994" stroke="orange" stroke-width="4" /></g><g fill="none" stroke="red" stroke-width="2" transform="translate(550.000000,550.000000),rotate(-71.565051,0,0),scale(1,-1)"><circle cx="-158.11388300841898" cy="0" r="5" stroke="green" /><circle cx="158.11388300841898" cy="0" r="5" stroke="orange" /><path d="M -130.119665,288.233548 A 348.606798,310.687463 0 0,0 130.119665,288.233548" stroke="red" stroke-width="4" /></g><g fill="none" stroke="green" stroke-width="2" transform="translate(500.000000,450.000000),rotate(-26.565051,0,0),scale(1,-1)"><circle cx="-111.80339887498948" cy="0" r="5" stroke="red" /><circle cx="111.80339887498948" cy="0" r="5" stroke="orange" /><path d="M -111.803399,327.254249 A 361.803399,344.095480 0 0,0 301.710807,189.907408" stroke="green" stroke-width="4" /></g><g fill="none" stroke="orange" stroke-width="2" transform="translate(450.000000,600.000000),rotate(63.434949,0,0),scale(1,-1)"><circle cx="-111.80339887498948" cy="0" r="5" stroke="red" /><circle cx="111.80339887498948" cy="0" r="5" stroke="green" /><path d="M -301.710807,413.514206 A 519.917282,507.753858 0 0,0 -111.803399,495.874996" stroke="orange" stroke-width="4" /></g><g fill="none" stroke="red" stroke-width="2" transform="translate(550.000000,550.000000),rotate(108.434949,0,0),scale(1,-1)"><circle cx="-158.11388300841898" cy="0" r="5" stroke="orange" /><circle cx="158.11388300841898" cy="0" r="5" stroke="green" /><path d="M -350.636572,192.522689 A 408.113883,376.240537 0 0,0 350.636572,192.522689" stroke="red" stroke-width="4" /></g><g fill="none" stroke="green" stroke-width="2" transform="translate(500.000000,450.000000),rotate(153.434949,0,0),scale(1,-1)"><circle cx="-111.80339887498948" cy="0" r="5" stroke="orange" /><circle cx="111.80339887498948" cy="0" r="5" stroke="red" /><path d="M 111.803399,495.874996 A 519.917282,507.753858 0 0,0 301.710807,413.514206" stroke="green" stroke-width="4" /></g><g fill="none" stroke="orange" stroke-width="2" transform="translate(450.000000,600.000000),rotate(-116.565051,0,0),scale(1,-1)"><circle cx="-111.80339887498948" cy="0" r="5" stroke="green" /><circle cx="111.80339887498948" cy="0" r="5" stroke="red" /><path d="M -301.710807,189.907408 A 361.803399,344.095480 0 0,0 111.803399,327.254249" stroke="orange" stroke-width="4" /></g><g fill="none" stroke="red" stroke-width="2" transform="translate(550.000000,550.000000),rotate(-71.565051,0,0),scale(1,-1)"><circle cx="-158.11388300841898" cy="0" r="5" stroke="green" /><circle cx="158.11388300841898" cy="0" r="5" stroke="orange" /><path d="M -231.403698,389.517581 A 473.606798,446.434092 0 0,0 231.403698,389.517581" stroke="red" stroke-width="4" /></g></svg>