<?xml version="1.0" encoding="utf-8" ?>
<svg baseProfile="full" height="1000" version="1.1" width="1000" xmlns="http://www.w3.org/2000/svg" xmlns:ev="http://www.w3.org/2001/xml-events" xmlns:xlink="http://www.w3.org/1999/xlink"><defs /><circle cx="400" cy="500" fill="red" r="5" stroke="red" stroke-width="2" /><circle cx="600" cy="400" fill="orange" r="5" stroke="orange" stroke-width="2" /><circle cx="500" cy="700" fill="green" r="5" stroke="green" stroke-width="2" /><g fill="none"><path d="M 317.705098,335.410197 A 236.803399,208.748293 -26.565051 0,1 643.626539,269.120382" stroke="red" stroke-dasharray="10,10" stroke-dashoffset="10" stroke-width="6" /><path d="M 317.705098,335.410197 A 236.803399,208.748293 -26.565051 0,1 643.626539,269.120382" stroke="orange" stroke-dasharray="10,10" stroke-width="6" /><circle cx="643.6265394772316" cy="269.1203815683052" fill="red" r="8" stroke="red" /></g><g fill="none"><path d="M 643.626539,269.120382 A 394.917282,378.760689 63.434949 0,1 724.914169,337.542916" stroke="red" stroke-dasharray="10,10" stroke-dashoffset="10" stroke-width="6" /><path d="M 643.626539,269.120382 A 394.917282,378.760689 63.434949 0,1 724.914169,337.542916" stroke="green" stroke-dasharray="10,10" stroke-width="6" /><circle cx="724.9141685657225" cy="337.5429157171387" fill="green" r="8" stroke="green" /></g><g fill="none"><path d="M 724.914169,337.542916 A 283.113883,234.847761 108.434949 0,1 562.457084,824.914169" stroke="orange" stroke-dasharray="10,10" stroke-dashoffset="10" stroke-width="6" /><path d="M 724.914169,337.542916 A 283.113883,234.847761 108.434949 0,1 562.457084,824.914169" stroke="green" stroke-dasharray="10,10" stroke-width="6" /><circle cx="562.4570842828613" cy="824.9141685657225" fill="orange" r="8" stroke="orange" /></g><g fill="none"><path d="M 562.457084,824.914169 A 394.917282,378.760689 153.434949 0,1 456.373461,830.879618" stroke="orange" stroke-dasharray="10,10" stroke-dashoffset="10" stroke-width="6" /><path d="M 562.457084,824.914169 A 394.917282,378.760689 153.434949 0,1 456.373461,830.879618" stroke="red" stroke-dasharray="10,10" stroke-width="6" /><circle cx="456.3734605227684" cy="830.8796184316949" fill="red" r="8" stroke="red" /></g><g fill="none"><path d="M 456.373461,830.879618 A 236.803399,208.748293 -116.565051 0,1 235.410197,582.294902" stroke="green" stroke-dasharray="10,10" stroke-dashoffset="10" stroke-width="6" /><path d="M 456.373461,830.879618 A 236.803399,208.748293 -116.565051 0,1 235.410197,582.294902" stroke="red" stroke-dasharray="10,10" stroke-width="6" /><circle cx="235.41019662496845" cy="582.2949016875158" fill="green" r="8" stroke="green" /></g><g fill="none"><path d="M 235.410197,582.294902 A 348.606798,310.687463 -71.565051 0,1 317.705098,335.410197" stroke="green" stroke-dasharray="10,10" stroke-dashoffset="10" stroke-width="6" /><path d="M 235.410197,582.294902 A 348.606798,310.687463 -71.565051 0,1 317.705098,335.410197" stroke="orange" stroke-dasharray="10,10" stroke-width="6" /><circle cx="317.7050983124842" cy="335.4101966249685" fill="orange" r="8" stroke="orange" /></g></svg>