<?xml version="1.0" encoding="utf-8" ?>
<svg baseProfile="full" height="1000" version="1.1" width="1000" xmlns="http://www.w3.org/2000/svg" xmlns:ev="http://www.w3.org/2001/xml-events" xmlns:xlink="http://www.w3.org/1999/xlink"><defs /><g fill="none" stroke="green" stroke-width="2" transform="rotate(-26.565051,500.000000,450.000000)"><circle cx="388.1966011250105" cy="450.0" r="5" stroke="red" /><circle cx="611.8033988749895" cy="450.0" r="5" stroke="orange" /><path d="M 388.196601,265.983006 A 236.803399,208.748293 0 0,1 709.355307,352.448092" stroke="green" stroke-width="4" /><circle cx="709.3553067691576" cy="352.4480921058319" fill="green" r="8" stroke="orange" /></g><g fill="none" stroke="orange" stroke-width="2" transform="rotate(-116.565051,450.000000,600.000000)"><circle cx="338.1966011250105" cy="600.0" r="5" stroke="green" /><circle cx="561.8033988749895" cy="600.0" r="5" stroke="red" /><path d="M 659.355307,921.158706 A 394.917282,378.760689 0 0,1 561.803399,963.265084" stroke="orange" stroke-width="4" /><circle cx="561.8033988749895" cy="963.2650838828906" fill="orange" r="8" stroke="red" /></g><g fill="none" stroke="red" stroke-width="2" transform="rotate(108.434949,550.000000,550.000000)"><circle cx="391.88611699158105" cy="550.0" r="5" stroke="orange" /><circle cx="708.113883008419" cy="550.0" r="5" stroke="green" /><path d="M 293.132796,451.246679 A 283.113883,234.847761 0 0,1 806.867204,451.246679" stroke="red" stroke-width="4" /><circle cx="806.8672041818919" cy="451.24667882652705" fill="red" r="8" stroke="green" /></g><g fill="none" stroke="green" stroke-width="2" transform="rotate(-26.565051,500.000000,450.000000)"><circle cx="388.1966011250105" cy="450.0" r="5" stroke="red" /><circle cx="611.8033988749895" cy="450.0" r="5" stroke="orange" /><path d="M 388.196601,813.265084 A 394.917282,378.760689 0 0,1 290.644693,771.158706" stroke="green" stroke-width="4" /><circle cx="290.6446932308425" cy="771.1587056441471" fill="green" r="8" stroke="orange" /></g><g fill="none" stroke="orange" stroke-width="2" transform="rotate(-116.565051,450.000000,600.000000)"><circle cx="338.1966011250105" cy="600.0" r="5" stroke="green" /><circle cx="561.8033988749895" cy="600.0" r="5" stroke="red" /><path d="M 240.644693,502.448092 A 236.803399,208.748293 0 0,1 561.803399,415.983006" stroke="orange" stroke-width="4" /><circle cx="561.8033988749895" cy="415.98300562505256" fill="orange" r="8" stroke="red" /></g><g fill="none" stroke="red" stroke-width="2" transform="rotate(108.434949,550.000000,550.000000)"><circle cx="391.88611699158105" cy="550.0" r="5" stroke="orange" /><circle cx="708.113883008419" cy="550.0" r="5" stroke="green" /><path d="M 680.119665,838.233548 A 348.606798,310.687463 0 0,1 419.880335,838.233548" stroke="red" stroke-width="4" /><circle cx="419.8803354239079" cy="838.2335475845111" fill="red" r="8" stroke="green" /></g></svg>