<?xml version="1.0" encoding="utf-8" ?>
<svg baseProfile="full" height="1000" version="1.1" width="1000" xmlns="http://www.w3.org/2000/svg" xmlns:ev="http://www.w3.org/2001/xml-events" xmlns:xlink="http://www.w3.org/1999/xlink"><defs /><circle cx="400" cy="500" fill="red" r="5" stroke="red" stroke-width="2" /><circle cx="600" cy="400" fill="orange" r="5" stroke="orange" stroke-width="2" /><circle cx="500" cy="700" fill="green" r="5" stroke="green" stroke-width="2" /><path d="M 317.705098,335.410197 A 236.803399,208.748293 -26.565051 0,1 643.626539,269.120382" fill="none" stroke="red" stroke-dasharray="10,10" stroke-dashoffset="10" stroke-width="6" /><path d="M 317.705098,335.410197 A 236.803399,208.748293 -26.565051 0,1 643.626539,269.120382" fill="none" stroke="orange" stroke-dasharray="10,10" stroke-dashoffset="0" stroke-width="6" /><line fill="orange" stroke="orange" stroke-linecap="round" stroke-width="6" x1="640.464261817" x2="646.788817137" y1="278.607214549" y2="259.633548588" /><path d="M 643.626539,269.120382 A 394.917282,378.760689 63.434949 0,1 724.914169,337.542916" fill="none" stroke="red" stroke-dasharray="10,10" stroke-dashoffset="10" stroke-width="6" /><path d="M 643.626539,269.120382 A 394.917282,378.760689 63.434949 0,1 724.914169,337.542916" fill="none" stroke="green" stroke-dasharray="10,10" stroke-dashoffset="0" stroke-width="6" /><line fill="orange" stroke="orange" stroke-linecap="round" stroke-width="6" x1="715.969896656" x2="733.858440476" y1="342.015051672" y2="333.070779762" /><path d="M 724.914169,337.542916 A 283.113883,234.847761 108.434949 0,1 562.457084,824.914169" fill="none" stroke="orange" stroke-dasharray="10,10" stroke-dashoffset="10" stroke-width="6" /><path d="M 724.914169,337.542916 A 283.113883,234.847761 108.434949 0,1 562.457084,824.914169" fill="none" stroke="green" stroke-dasharray="10,10" stroke-dashoffset="0" stroke-width="6" /><line fill="green" stroke="green" stroke-linecap="round" stroke-width="6" x1="557.984948328" x2="566.929220238" y1="815.969896656" y2="833.858440476" /><path d="M 562.457084,824.914169 A 394.917282,378.760689 153.434949 0,1 456.373461,830.879618" fill="none" stroke="orange" stroke-dasharray="10,10" stroke-dashoffset="10" stroke-width="6" /><path d="M 562.457084,824.914169 A 394.917282,378.760689 153.434949 0,1 456.373461,830.879618" fill="none" stroke="red" stroke-dasharray="10,10" stroke-dashoffset="0" stroke-width="6" /><line fill="green" stroke="green" stroke-linecap="round" stroke-width="6" x1="459.535738183" x2="453.211182863" y1="821.392785451" y2="840.366451412" /><path d="M 456.373461,830.879618 A 236.803399,208.748293 -116.565051 0,1 235.410197,582.294902" fill="none" stroke="green" stroke-dasharray="10,10" stroke-dashoffset="10" stroke-width="6" /><path d="M 456.373461,830.879618 A 236.803399,208.748293 -116.565051 0,1 235.410197,582.294902" fill="none" stroke="red" stroke-dasharray="10,10" stroke-dashoffset="0" stroke-width="6" /><line fill="red" stroke="red" stroke-linecap="round" stroke-width="6" x1="244.354468535" x2="226.465924715" y1="577.822765733" y2="586.767037643" /><path d="M 235.410197,582.294902 A 348.606798,310.687463 -71.565051 0,1 317.705098,335.410197" fill="none" stroke="green" stroke-dasharray="10,10" stroke-dashoffset="10" stroke-width="6" /><path d="M 235.410197,582.294902 A 348.606798,310.687463 -71.565051 0,1 317.705098,335.410197" fill="none" stroke="orange" stroke-dasharray="10,10" stroke-dashoffset="0" stroke-width="6" /><line fill="red" stroke="red" stroke-linecap="round" stroke-width="6" x1="322.177234267" x2="313.232962357" y1="344.354468535" y2="326.465924715" /></svg>