<?xml version="1.0" encoding="utf-8" ?>
<svg baseProfile="full" height="1000" version="1.1" width="1000" xmlns="http://www.w3.org/2000/svg" xmlns:ev="http://www.w3.org/2001/xml-events" xmlns:xlink="http://www.w3.org/1999/xlink"><defs /><circle cx="400" cy="500" fill="red" r="5" stroke="red" stroke-width="2" /><circle cx="600" cy="400" fill="orange" r="5" stroke="orange" stroke-width="2" /><circle cx="500" cy="700" fill="green" r="5" stroke="green" stroke-width="2" /><g fill="none"><path d="M 317.705098,335.410197 A 236.803399,208.748293 -26.565051 0,1 643.626539,269.120382" stroke="red" stroke-dasharray="10,10" stroke-dashoffset="10" stroke-width="6" /><path d="M 317.705098,335.410197 A 236.803399,208.748293 -26.565051 0,1 643.626539,269.120382" stroke="orange" stroke-dasharray="10,10" stroke-dashoffset="0" stroke-width="6" /><line fill="orange" stroke="orange" stroke-linecap="round" stroke-width="6" x1="640.4642618170633" x2="646.7888171374" y1="278.60721454881036" y2="259.6335485878001" /><path d="M 643.626539,269.120382 A 394.917282,378.760689 63.434949 0,1 724.914169,337.542916" stroke="red" stroke-dasharray="10,10" stroke-dashoffset="10" stroke-width="6" /><path d="M 643.626539,269.120382 A 394.917282,378.760689 63.434949 0,1 724.914169,337.542916" stroke="green" stroke-dasharray="10,10" stroke-dashoffset="0" stroke-width="6" /><line fill="orange" stroke="orange" stroke-linecap="round" stroke-width="6" x1="715.9698966557233" x2="733.8584404757217" y1="342.0150516721383" y2="333.0707797621391" /><path d="M 724.914169,337.542916 A 283.113883,234.847761 108.434949 0,1 562.457084,824.914169" stroke="orange" stroke-dasharray="10,10" stroke-dashoffset="10" stroke-width="6" /><path d="M 724.914169,337.542916 A 283.113883,234.847761 108.434949 0,1 562.457084,824.914169" stroke="green" stroke-dasharray="10,10" stroke-dashoffset="0" stroke-width="6" /><line fill="green" stroke="green" stroke-linecap="round" stroke-width="6" x1="557.9849483278617" x2="566.9292202378608" y1="815.9698966557233" y2="833.8584404757217" /><path d="M 562.457084,824.914169 A 394.917282,378.760689 153.434949 0,1 456.373461,830.879618" stroke="orange" stroke-dasharray="10,10" stroke-dashoffset="10" stroke-width="6" /><path d="M 562.457084,824.914169 A 394.917282,378.760689 153.434949 0,1 456.373461,830.879618" stroke="red" stroke-dasharray="10,10" stroke-dashoffset="0" stroke-width="6" /><line fill="green" stroke="green" stroke-linecap="round" stroke-width="6" x1="459.5357381829368" x2="453.2111828626" y1="821.3927854511898" y2="840.3664514122" /><path d="M 456.373461,830.879618 A 236.803399,208.748293 -116.565051 0,1 235.410197,582.294902" stroke="green" stroke-dasharray="10,10" stroke-dashoffset="10" stroke-width="6" /><path d="M 456.373461,830.879618 A 236.803399,208.748293 -116.565051 0,1 235.410197,582.294902" stroke="red" stroke-dasharray="10,10" stroke-dashoffset="0" stroke-width="6" /><line fill="red" stroke="red" stroke-linecap="round" stroke-width="6" x1="244.35446853496762" x2="226.46592471496928" y1="577.8227657325162" y2="586.7670376425153" /><path d="M 235.410197,582.294902 A 348.606798,310.687463 -71.565051 0,1 317.705098,335.410197" stroke="green" stroke-dasharray="10,10" stroke-dashoffset="10" stroke-width="6" /><path d="M 235.410197,582.294902 A 348.606798,310.687463 -71.565051 0,1 317.705098,335.410197" stroke="orange" stroke-dasharray="10,10" stroke-dashoffset="0" stroke-width="6" /><line fill="red" stroke="red" stroke-linecap="round" stroke-width="6" x1="322.1772342674838" x2="313.2329623574846" y1="344.3544685349676" y2="326.46592471496933" /></g></svg>