<?xml version="1.0" encoding="utf-8" ?>
<svg baseProfile="full" height="1000" version="1.1" width="1000" xmlns="http://www.w3.org/2000/svg" xmlns:ev="http://www.w3.org/2001/xml-events" xmlns:xlink="http://www.w3.org/1999/xlink"><defs /><g fill="none" stroke="green" stroke-width="2" transform="translate(500.000000,450.000000),rotate(-26.565051,0,0),scale(1,-1)"><circle cx="-111.80339887498948" cy="0" r="5" stroke="red" /><circle cx="111.80339887498948" cy="0" r="5" stroke="orange" /><path d="M -111.803399,184.016994 A 236.803399,208.748293 0 0,0 209.355307,97.551908" stroke="green" stroke-width="4" /><path d="M -111.803399,184.016994 A 236.803399,208.748293 0 1,1 209.355307,97.551908" stroke="green" stroke-dasharray="3,7" /><circle cx="209.35530676915755" cy="97.55190789416808" fill="green" r="8" stroke="orange" /></g><g fill="none" stroke="orange" stroke-width="2" transform="translate(450.000000,600.000000),rotate(-116.565051,0,0),scale(1,-1)"><circle cx="-111.80339887498948" cy="0" r="5" stroke="green" /><circle cx="111.80339887498948" cy="0" r="5" stroke="red" /><path d="M 209.355307,-321.158706 A 394.917282,378.760689 0 0,0 111.803399,-363.265084" stroke="orange" stroke-width="4" /><path d="M 209.355307,-321.158706 A 394.917282,378.760689 0 1,1 111.803399,-363.265084" stroke="orange" stroke-dasharray="3,7" /><circle cx="111.80339887498948" cy="-363.26508388289056" fill="orange" r="8" stroke="red" /></g><g fill="none" stroke="red" stroke-width="2" transform="translate(550.000000,550.000000),rotate(108.434949,0,0),scale(1,-1)"><circle cx="-158.11388300841898" cy="0" r="5" stroke="orange" /><circle cx="158.11388300841898" cy="0" r="5" stroke="green" /><path d="M -256.867204,98.753321 A 283.113883,234.847761 0 0,0 256.867204,98.753321" stroke="red" stroke-width="4" /><path d="M -256.867204,98.753321 A 283.113883,234.847761 0 1,1 256.867204,98.753321" stroke="red" stroke-dasharray="3,7" /><circle cx="256.8672041818919" cy="98.75332117347293" fill="red" r="8" stroke="green" /></g><g fill="none" stroke="green" stroke-width="2" transform="translate(500.000000,450.000000),rotate(-26.565051,0,0),scale(1,-1)"><circle cx="-111.80339887498948" cy="0" r="5" stroke="red" /><circle cx="111.80339887498948" cy="0" r="5" stroke="orange" /><path d="M -111.803399,-363.265084 A 394.917282,378.760689 0 0,0 -209.355307,-321.158706" stroke="green" stroke-width="4" /><path d="M -111.803399,-363.265084 A 394.917282,378.760689 0 1,1 -209.355307,-321.158706" stroke="green" stroke-dasharray="3,7" /><circle cx="-209.35530676915752" cy="-321.15870564414706" fill="green" r="8" stroke="orange" /></g><g fill="none" stroke="orange" stroke-width="2" transform="translate(450.000000,600.000000),rotate(-116.565051,0,0),scale(1,-1)"><circle cx="-111.80339887498948" cy="0" r="5" stroke="green" /><circle cx="111.80339887498948" cy="0" r="5" stroke="red" /><path d="M -209.355307,97.551908 A 236.803399,208.748293 0 0,0 111.803399,184.016994" stroke="orange" stroke-width="4" /><path d="M -209.355307,97.551908 A 236.803399,208.748293 0 1,1 111.803399,184.016994" stroke="orange" stroke-dasharray="3,7" /><circle cx="111.80339887498948" cy="184.01699437494744" fill="orange" r="8" stroke="red" /></g><g fill="none" stroke="red" stroke-width="2" transform="translate(550.000000,550.000000),rotate(108.434949,0,0),scale(1,-1)"><circle cx="-158.11388300841898" cy="0" r="5" stroke="orange" /><circle cx="158.11388300841898" cy="0" r="5" stroke="green" /><path d="M 130.119665,-288.233548 A 348.606798,310.687463 0 0,0 -130.119665,-288.233548" stroke="red" stroke-width="4" /><path d="M 130.119665,-288.233548 A 348.606798,310.687463 0 1,1 -130.119665,-288.233548" stroke="red" stroke-dasharray="3,7" /><circle cx="-130.11966457609205" cy="-288.2335475845111" fill="red" r="8" stroke="green" /></g></svg>