<?xml version="1.0" encoding="utf-8" ?>
<svg baseProfile="full" height="1000" version="1.1" width="1000" xmlns="http://www.w3.org/2000/svg" xmlns:ev="http://www.w3.org/2001/xml-events" xmlns:xlink="http://www.w3.org/1999/xlink"><defs /><circle cx="400" cy="500" fill="red" r="5" stroke="red" stroke-width="2" /><circle cx="600" cy="400" fill="orange" r="5" stroke="orange" stroke-width="2" /><circle cx="500" cy="700" fill="green" r="5" stroke="green" stroke-width="2" /><path d="M 317.705098,335.410197 A 236.803399,208.748293 -26.565051 0,1 643.626539,269.120382" fill="none" stroke="red" stroke-dasharray="10,10" stroke-dashoffset="10" stroke-width="6" /><path d="M 317.705098,335.410197 A 236.803399,208.748293 -26.565051 0,1 643.626539,269.120382" fill="none" stroke="orange" stroke-dasharray="10,10" stroke-dashoffset="0" stroke-width="6" /><path d="M 317.705098,335.410197 A 236.803399,208.748293 -26.565051 1,0 643.626539,269.120382" fill="none" stroke="red" stroke-dasharray="5,15" stroke-dashoffset="0" stroke-width="2" /><path d="M 317.705098,335.410197 A 236.803399,208.748293 -26.565051 1,0 643.626539,269.120382" fill="none" stroke="orange" stroke-dasharray="5,15" stroke-dashoffset="10" stroke-width="2" /><line fill="orange" stroke="orange" stroke-linecap="round" stroke-width="6" x1="640" x2="647" y1="279" y2="260" /><path d="M 643.626539,269.120382 A 394.917282,378.760689 63.434949 0,1 724.914169,337.542916" fill="none" stroke="red" stroke-dasharray="10,10" stroke-dashoffset="10" stroke-width="6" /><path d="M 643.626539,269.120382 A 394.917282,378.760689 63.434949 0,1 724.914169,337.542916" fill="none" stroke="green" stroke-dasharray="10,10" stroke-dashoffset="0" stroke-width="6" /><path d="M 643.626539,269.120382 A 394.917282,378.760689 63.434949 1,0 724.914169,337.542916" fill="none" stroke="red" stroke-dasharray="5,15" stroke-dashoffset="0" stroke-width="2" /><path d="M 643.626539,269.120382 A 394.917282,378.760689 63.434949 1,0 724.914169,337.542916" fill="none" stroke="green" stroke-dasharray="5,15" stroke-dashoffset="10" stroke-width="2" /><line fill="orange" stroke="orange" stroke-linecap="round" stroke-width="6" x1="716" x2="734" y1="342" y2="333" /><path d="M 724.914169,337.542916 A 283.113883,234.847761 108.434949 0,1 562.457084,824.914169" fill="none" stroke="orange" stroke-dasharray="10,10" stroke-dashoffset="10" stroke-width="6" /><path d="M 724.914169,337.542916 A 283.113883,234.847761 108.434949 0,1 562.457084,824.914169" fill="none" stroke="green" stroke-dasharray="10,10" stroke-dashoffset="0" stroke-width="6" /><path d="M 724.914169,337.542916 A 283.113883,234.847761 108.434949 1,0 562.457084,824.914169" fill="none" stroke="orange" stroke-dasharray="5,15" stroke-dashoffset="0" stroke-width="2" /><path d="M 724.914169,337.542916 A 283.113883,234.847761 108.434949 1,0 562.457084,824.914169" fill="none" stroke="green" stroke-dasharray="5,15" stroke-dashoffset="10" stroke-width="2" /><line fill="green" stroke="green" stroke-linecap="round" stroke-width="6" x1="558" x2="567" y1="816" y2="834" /><path d="M 562.457084,824.914169 A 394.917282,378.760689 153.434949 0,1 456.373461,830.879618" fill="none" stroke="orange" stroke-dasharray="10,10" stroke-dashoffset="10" stroke-width="6" /><path d="M 562.457084,824.914169 A 394.917282,378.760689 153.434949 0,1 456.373461,830.879618" fill="none" stroke="red" stroke-dasharray="10,10" stroke-dashoffset="0" stroke-width="6" /><path d="M 562.457084,824.914169 A 394.917282,378.760689 153.434949 1,0 456.373461,830.879618" fill="none" stroke="orange" stroke-dasharray="5,15" stroke-dashoffset="0" stroke-width="2" /><path d="M 562.457084,824.914169 A 394.917282,378.760689 153.434949 1,0 456.373461,830.879618" fill="none" stroke="red" stroke-dasharray="5,15" stroke-dashoffset="10" stroke-width="2" /><line fill="green" stroke="green" stroke-linecap="round" stroke-width="6" x1="460" x2="453" y1="821" y2="840" /><path d="M 456.373461,830.879618 A 236.803399,208.748293 -116.565051 0,1 235.410197,582.294902" fill="none" stroke="green" stroke-dasharray="10,10" stroke-dashoffset="10" stroke-width="6" /><path d="M 456.373461,830.879618 A 236.803399,208.748293 -116.565051 0,1 235.410197,582.294902" fill="none" stroke="red" stroke-dasharray="10,10" stroke-dashoffset="0" stroke-width="6" /><path d="M 456.373461,830.879618 A 236.803399,208.748293 -116.565051 1,0 235.410197,582.294902" fill="none" stroke="green" stroke-dasharray="5,15" stroke-dashoffset="0" stroke-width="2" /><path d="M 456.373461,830.879618 A 236.803399,208.748293 -116.565051 1,0 235.410197,582.294902" fill="none" stroke="red" stroke-dasharray="5,15" stroke-dashoffset="10" stroke-width="2" /><line fill="red" stroke="red" stroke-linecap="round" stroke-width="6" x1="244" x2="226" y1="578" y2="587" /><path d="M 235.410197,582.294902 A 348.606798,310.687463 -71.565051 0,1 317.705098,335.410197" fill="none" stroke="green" stroke-dasharray="10,10" stroke-dashoffset="10" stroke-width="6" /><path d="M 235.410197,582.294902 A 348.606798,310.687463 -71.565051 0,1 317.705098,335.410197" fill="none" stroke="orange" stroke-dasharray="10,10" stroke-dashoffset="0" stroke-width="6" /><path d="M 235.410197,582.294902 A 348.606798,310.687463 -71.565051 1,0 317.705098,335.410197" fill="none" stroke="green" stroke-dasharray="5,15" stroke-dashoffset="0" stroke-width="2" /><path d="M 235.410197,582.294902 A 348.606798,310.687463 -71.565051 1,0 317.705098,335.410197" fill="none" stroke="orange" stroke-dasharray="5,15" stroke-dashoffset="10" stroke-width="2" /><line fill="red" stroke="red" stroke-linecap="round" stroke-width="6" x1="322" x2="313" y1="344" y2="326" /></svg>